<?xml version="1.0" encoding="utf-8" standalone="no"?>
<!DOCTYPE svg PUBLIC "-//W3C//DTD SVG 1.1//EN"
  "http://www.w3.org/Graphics/SVG/1.1/DTD/svg11.dtd">
<svg xmlns:xlink="http://www.w3.org/1999/xlink" width="568.375469pt" height="315.888781pt" viewBox="0 0 568.375469 315.888781" xmlns="http://www.w3.org/2000/svg" version="1.1">
 <metadata>
  <rdf:RDF xmlns:dc="http://purl.org/dc/elements/1.1/" xmlns:cc="http://creativecommons.org/ns#" xmlns:rdf="http://www.w3.org/1999/02/22-rdf-syntax-ns#">
   <cc:Work>
    <dc:type rdf:resource="http://purl.org/dc/dcmitype/StillImage"/>
    <dc:date>2026-04-12T14:44:13.070088</dc:date>
    <dc:format>image/svg+xml</dc:format>
    <dc:creator>
     <cc:Agent>
      <dc:title>Matplotlib v3.10.6, https://matplotlib.org/</dc:title>
     </cc:Agent>
    </dc:creator>
   </cc:Work>
  </rdf:RDF>
 </metadata>
 <defs>
  <style type="text/css">*{stroke-linejoin: round; stroke-linecap: butt}</style>
 </defs>
 <g id="figure_1">
  <g id="patch_1">
   <path d="M 0 315.888781 
L 568.375469 315.888781 
L 568.375469 0 
L 0 0 
z
" style="fill: #ffffff"/>
  </g>
  <g id="axes_1">
   <g id="patch_2">
    <path d="M 35.336719 276.29425 
L 561.175469 276.29425 
L 561.175469 42.30625 
L 35.336719 42.30625 
z
" style="fill: #ffffff"/>
   </g>
   <g id="matplotlib.axis_1">
    <g id="xtick_1">
     <g id="line2d_1">
      <defs>
       <path id="m4dded77508" d="M 0 0 
L 0 3.5 
" style="stroke: #000000; stroke-width: 0.8"/>
      </defs>
      <g>
       <use xlink:href="#m4dded77508" x="88.130719" y="276.29425" style="stroke: #000000; stroke-width: 0.8"/>
      </g>
     </g>
     <g id="text_1">
      <!-- KNN -->
      <g transform="translate(80.630719 290.16925) scale(0.1 -0.1)">
       <defs>
        <path id="SimHei-4b" d="M 3050 125 
L 2400 125 
L 1250 2250 
L 850 1725 
L 850 125 
L 275 125 
L 275 4400 
L 850 4400 
L 850 2550 
L 2275 4400 
L 2950 4400 
L 1625 2725 
L 3050 125 
z
" transform="scale(0.015625)"/>
        <path id="SimHei-4e" d="M 2850 125 
L 2225 125 
L 850 3225 
L 825 3225 
L 825 125 
L 250 125 
L 250 4400 
L 875 4400 
L 2250 1300 
L 2275 1300 
L 2275 4400 
L 2850 4400 
L 2850 125 
z
" transform="scale(0.015625)"/>
       </defs>
       <use xlink:href="#SimHei-4b"/>
       <use xlink:href="#SimHei-4e" transform="translate(50 0)"/>
       <use xlink:href="#SimHei-4e" transform="translate(100 0)"/>
      </g>
     </g>
    </g>
    <g id="xtick_2">
     <g id="line2d_2">
      <g>
       <use xlink:href="#m4dded77508" x="193.193406" y="276.29425" style="stroke: #000000; stroke-width: 0.8"/>
      </g>
     </g>
     <g id="text_2">
      <!-- SVM -->
      <g transform="translate(185.693406 290.16925) scale(0.1 -0.1)">
       <defs>
        <path id="SimHei-53" d="M 2900 1325 
Q 2900 750 2537 412 
Q 2175 75 1550 75 
Q 925 75 575 425 
Q 225 775 225 1300 
L 225 1475 
L 800 1475 
L 800 1325 
Q 800 950 1025 750 
Q 1250 550 1550 550 
Q 1950 550 2137 762 
Q 2325 975 2325 1275 
Q 2325 1525 2100 1737 
Q 1875 1950 1450 2125 
Q 850 2350 587 2625 
Q 325 2900 325 3275 
Q 325 3800 687 4125 
Q 1050 4450 1550 4450 
Q 2200 4450 2487 4062 
Q 2775 3675 2775 3225 
L 2200 3225 
Q 2225 3500 2050 3725 
Q 1875 3950 1550 3950 
Q 1250 3950 1075 3787 
Q 900 3625 900 3350 
Q 900 3125 1037 2962 
Q 1175 2800 1750 2575 
Q 2300 2350 2600 2037 
Q 2900 1725 2900 1325 
z
" transform="scale(0.015625)"/>
        <path id="SimHei-56" d="M 3050 4400 
L 1800 75 
L 1300 75 
L 50 4400 
L 650 4400 
L 1525 1125 
L 1575 1125 
L 2450 4400 
L 3050 4400 
z
" transform="scale(0.015625)"/>
        <path id="SimHei-4d" d="M 2925 125 
L 2425 125 
L 2425 3175 
L 2375 3175 
L 1775 125 
L 1375 125 
L 775 3175 
L 725 3175 
L 725 125 
L 225 125 
L 225 4400 
L 1000 4400 
L 1550 1575 
L 1600 1575 
L 2150 4400 
L 2925 4400 
L 2925 125 
z
" transform="scale(0.015625)"/>
       </defs>
       <use xlink:href="#SimHei-53"/>
       <use xlink:href="#SimHei-56" transform="translate(50 0)"/>
       <use xlink:href="#SimHei-4d" transform="translate(100 0)"/>
      </g>
     </g>
    </g>
    <g id="xtick_3">
     <g id="line2d_3">
      <g>
       <use xlink:href="#m4dded77508" x="298.256094" y="276.29425" style="stroke: #000000; stroke-width: 0.8"/>
      </g>
     </g>
     <g id="text_3">
      <!-- 纯RF -->
      <g transform="translate(288.256094 290.677062) scale(0.1 -0.1)">
       <defs>
        <path id="SimHei-7eaf" d="M 3900 4125 
Q 3900 4575 3875 5100 
L 4375 5100 
Q 4350 4650 4350 4125 
L 5025 4125 
Q 5425 4125 5850 4150 
L 5850 3725 
Q 5450 3750 5050 3750 
L 4350 3750 
L 4350 1725 
L 5175 1725 
L 5175 2425 
Q 5175 2800 5150 3100 
L 5675 3100 
Q 5625 2825 5625 2050 
Q 5625 1300 5650 1025 
L 5175 1025 
L 5175 1325 
L 4350 1325 
L 4350 250 
Q 4350 -50 4650 -50 
L 5200 -50 
Q 5350 -50 5425 25 
Q 5500 100 5575 650 
Q 5800 525 6100 450 
Q 5975 -50 5862 -237 
Q 5750 -425 5325 -425 
L 4550 -425 
Q 3900 -425 3900 0 
L 3900 1325 
L 2625 1325 
Q 2650 1625 2650 2200 
Q 2650 2775 2625 3100 
L 3150 3100 
Q 3125 2750 3125 2500 
L 3125 1725 
L 3900 1725 
L 3900 3750 
L 3350 3750 
Q 2825 3750 2425 3725 
L 2425 4150 
Q 2825 4125 3350 4125 
L 3900 4125 
z
M 2300 1300 
Q 2200 1300 1662 1250 
Q 1125 1200 575 1075 
Q 500 1300 400 1575 
Q 600 1625 887 1962 
Q 1175 2300 1525 2800 
Q 1275 2800 962 2762 
Q 650 2725 425 2625 
Q 375 2800 225 3100 
Q 450 3150 775 3737 
Q 1100 4325 1300 5050 
Q 1550 4900 1875 4775 
Q 1650 4550 1412 4125 
Q 1175 3700 825 3125 
L 1725 3150 
Q 1900 3400 2025 3725 
Q 2250 3550 2575 3425 
Q 2325 3275 2025 2837 
Q 1725 2400 1075 1625 
Q 1975 1675 2300 1725 
L 2300 1300 
z
M 2475 250 
Q 2025 175 1450 12 
Q 875 -150 450 -300 
Q 325 25 225 200 
Q 925 325 1212 387 
Q 1500 450 2475 700 
L 2475 250 
z
" transform="scale(0.015625)"/>
        <path id="SimHei-52" d="M 3000 125 
L 2400 125 
L 1500 1975 
L 850 1975 
L 850 125 
L 275 125 
L 275 4400 
L 1525 4400 
Q 2125 4400 2500 4112 
Q 2875 3825 2875 3175 
Q 2875 2675 2625 2400 
Q 2375 2125 2050 2050 
L 3000 125 
z
M 2300 3175 
Q 2300 3525 2087 3725 
Q 1875 3925 1400 3925 
L 850 3925 
L 850 2450 
L 1550 2450 
Q 1850 2450 2075 2612 
Q 2300 2775 2300 3175 
z
" transform="scale(0.015625)"/>
        <path id="SimHei-46" d="M 2925 3925 
L 875 3925 
L 875 2525 
L 2425 2525 
L 2425 2050 
L 875 2050 
L 875 125 
L 300 125 
L 300 4400 
L 2925 4400 
L 2925 3925 
z
" transform="scale(0.015625)"/>
       </defs>
       <use xlink:href="#SimHei-7eaf"/>
       <use xlink:href="#SimHei-52" transform="translate(100 0)"/>
       <use xlink:href="#SimHei-46" transform="translate(150 0)"/>
      </g>
     </g>
    </g>
    <g id="xtick_4">
     <g id="line2d_4">
      <g>
       <use xlink:href="#m4dded77508" x="403.318781" y="276.29425" style="stroke: #000000; stroke-width: 0.8"/>
      </g>
     </g>
     <g id="text_4">
      <!-- MLP -->
      <g transform="translate(395.818781 290.16925) scale(0.1 -0.1)">
       <defs>
        <path id="SimHei-4c" d="M 2900 125 
L 300 125 
L 300 4400 
L 875 4400 
L 875 600 
L 2900 600 
L 2900 125 
z
" transform="scale(0.015625)"/>
        <path id="SimHei-50" d="M 2950 3100 
Q 2950 2500 2600 2150 
Q 2250 1800 1625 1800 
L 900 1800 
L 900 125 
L 325 125 
L 325 4400 
L 1625 4400 
Q 2250 4400 2600 4050 
Q 2950 3700 2950 3100 
z
M 2375 3100 
Q 2375 3575 2150 3750 
Q 1925 3925 1475 3925 
L 900 3925 
L 900 2275 
L 1475 2275 
Q 1925 2275 2150 2450 
Q 2375 2625 2375 3100 
z
" transform="scale(0.015625)"/>
       </defs>
       <use xlink:href="#SimHei-4d"/>
       <use xlink:href="#SimHei-4c" transform="translate(50 0)"/>
       <use xlink:href="#SimHei-50" transform="translate(100 0)"/>
      </g>
     </g>
    </g>
    <g id="xtick_5">
     <g id="line2d_5">
      <g>
       <use xlink:href="#m4dded77508" x="508.381468" y="276.29425" style="stroke: #000000; stroke-width: 0.8"/>
      </g>
     </g>
     <g id="text_5">
      <!-- PINN-RF(本文) -->
      <g transform="translate(475.881468 291.302062) scale(0.1 -0.1)">
       <defs>
        <path id="SimHei-49" d="M 1850 125 
L 1275 125 
L 1275 4400 
L 1850 4400 
L 1850 125 
z
" transform="scale(0.015625)"/>
        <path id="SimHei-2d" d="M 2975 2125 
L 125 2125 
L 125 2525 
L 2975 2525 
L 2975 2125 
z
" transform="scale(0.015625)"/>
        <path id="SimHei-28" d="M 2975 -200 
L 2700 -475 
Q 2075 125 1762 775 
Q 1450 1425 1450 2250 
Q 1450 3075 1762 3725 
Q 2075 4375 2700 5000 
L 2975 4725 
Q 2400 4175 2112 3587 
Q 1825 3000 1825 2250 
Q 1825 1500 2112 912 
Q 2400 325 2975 -200 
z
" transform="scale(0.015625)"/>
        <path id="SimHei-672c" d="M 2950 3925 
L 2950 4425 
Q 2950 4825 2925 5175 
L 3475 5175 
Q 3450 4900 3450 4450 
L 3450 3925 
L 4850 3925 
Q 5275 3925 5850 3950 
L 5850 3475 
Q 5300 3500 4875 3500 
L 3850 3500 
Q 4200 2350 4862 1687 
Q 5525 1025 6075 800 
Q 5850 625 5650 325 
Q 4800 900 4262 1637 
Q 3725 2375 3450 3350 
L 3450 1000 
L 3775 1000 
Q 4175 1000 4600 1025 
L 4600 550 
Q 4175 575 3750 575 
L 3450 575 
Q 3450 0 3475 -600 
L 2925 -600 
Q 2950 0 2950 575 
L 2625 575 
Q 2225 575 1825 550 
L 1825 1025 
Q 2225 1000 2625 1000 
L 2950 1000 
L 2950 3300 
Q 2550 2275 2062 1575 
Q 1575 875 750 175 
Q 550 450 275 575 
Q 1100 1075 1650 1825 
Q 2200 2575 2525 3500 
L 1425 3500 
Q 1025 3500 575 3475 
L 575 3950 
Q 1025 3925 1400 3925 
L 2950 3925 
z
" transform="scale(0.015625)"/>
        <path id="SimHei-6587" d="M 1250 3450 
Q 725 3450 350 3400 
L 350 3925 
Q 925 3900 1400 3900 
L 4950 3900 
Q 5400 3900 6025 3925 
L 6025 3400 
Q 5400 3425 4625 3425 
Q 4500 2650 4175 1987 
Q 3850 1325 3475 900 
Q 3950 475 4725 212 
Q 5500 -50 6075 -100 
Q 5850 -275 5675 -625 
Q 5250 -525 4575 -275 
Q 3900 -25 3125 575 
Q 2100 -275 675 -675 
Q 625 -450 325 -175 
Q 750 -125 1487 137 
Q 2225 400 2750 875 
Q 1875 1775 1500 3450 
L 1250 3450 
z
M 2025 3425 
Q 2225 2075 3100 1200 
Q 3900 2175 4100 3425 
L 2025 3425 
z
M 2850 5250 
Q 3125 4825 3500 4175 
Q 3300 4125 3050 3925 
Q 2700 4575 2425 5000 
Q 2600 5050 2850 5250 
z
" transform="scale(0.015625)"/>
        <path id="SimHei-29" d="M 1675 2250 
Q 1675 1425 1362 775 
Q 1050 125 425 -475 
L 150 -200 
Q 725 325 1012 912 
Q 1300 1500 1300 2250 
Q 1300 3000 1012 3587 
Q 725 4175 150 4725 
L 425 5000 
Q 1050 4375 1362 3725 
Q 1675 3075 1675 2250 
z
" transform="scale(0.015625)"/>
       </defs>
       <use xlink:href="#SimHei-50"/>
       <use xlink:href="#SimHei-49" transform="translate(50 0)"/>
       <use xlink:href="#SimHei-4e" transform="translate(100 0)"/>
       <use xlink:href="#SimHei-4e" transform="translate(150 0)"/>
       <use xlink:href="#SimHei-2d" transform="translate(200 0)"/>
       <use xlink:href="#SimHei-52" transform="translate(250 0)"/>
       <use xlink:href="#SimHei-46" transform="translate(300 0)"/>
       <use xlink:href="#SimHei-28" transform="translate(350 0)"/>
       <use xlink:href="#SimHei-672c" transform="translate(400 0)"/>
       <use xlink:href="#SimHei-6587" transform="translate(500 0)"/>
       <use xlink:href="#SimHei-29" transform="translate(600 0)"/>
      </g>
     </g>
    </g>
    <g id="text_6">
     <!-- 对比方法 -->
     <g transform="translate(272.256094 307.063781) scale(0.13 -0.13)">
      <defs>
       <path id="SimHei-5bf9" d="M 525 4250 
Q 900 4225 1400 4225 
L 2825 4225 
Q 2575 2625 2200 1750 
Q 2825 875 3125 400 
Q 2950 275 2725 75 
Q 2200 975 1950 1300 
Q 1650 775 1350 425 
Q 1050 75 600 -350 
Q 425 -125 200 -25 
Q 625 275 975 675 
Q 1325 1075 1650 1700 
Q 1050 2425 550 2900 
Q 700 3025 900 3225 
Q 1625 2425 1875 2150 
Q 2200 3050 2300 3825 
L 1400 3825 
Q 900 3825 525 3800 
L 525 4250 
z
M 2925 3700 
Q 3525 3675 3750 3675 
L 4825 3675 
L 4825 4425 
Q 4825 4750 4775 5125 
L 5350 5125 
Q 5325 4825 5325 4375 
L 5325 3675 
Q 5575 3675 6150 3700 
L 6150 3250 
Q 5575 3275 5325 3275 
L 5325 125 
Q 5350 -350 5012 -475 
Q 4675 -600 4250 -650 
Q 4175 -350 4025 -100 
Q 4575 -100 4712 -37 
Q 4850 25 4825 325 
L 4825 3275 
L 3775 3275 
Q 3550 3275 2925 3225 
L 2925 3700 
z
M 3450 2725 
Q 3875 1975 4175 1325 
Q 3850 1200 3700 1075 
Q 3475 1750 3050 2475 
Q 3225 2550 3450 2725 
z
" transform="scale(0.015625)"/>
       <path id="SimHei-6bd4" d="M 3775 5100 
Q 3750 4575 3750 4100 
L 3750 3050 
Q 4925 3600 5475 4175 
Q 5675 3900 5900 3675 
Q 5600 3500 5037 3187 
Q 4475 2875 3750 2550 
L 3750 450 
Q 3750 100 4050 100 
L 5000 100 
Q 5175 100 5262 250 
Q 5350 400 5450 900 
Q 5650 775 6025 675 
Q 5850 0 5650 -175 
Q 5450 -350 5225 -350 
L 3900 -350 
Q 3250 -350 3250 275 
L 3250 4000 
Q 3250 4550 3225 5100 
L 3775 5100 
z
M 1275 4975 
Q 1250 4575 1250 4000 
L 1250 3150 
L 1850 3150 
Q 2325 3150 2875 3175 
L 2875 2650 
Q 2325 2675 1850 2675 
L 1250 2675 
L 1250 475 
Q 1650 650 1962 812 
Q 2275 975 2850 1275 
Q 2900 950 2950 750 
Q 2375 475 1762 175 
Q 1150 -125 925 -325 
Q 750 -100 575 200 
Q 700 300 750 600 
L 750 3950 
Q 750 4550 725 4975 
L 1275 4975 
z
" transform="scale(0.015625)"/>
       <path id="SimHei-65b9" d="M 425 3975 
Q 825 3950 1300 3950 
L 5025 3950 
Q 5625 3950 6000 3975 
L 6000 3475 
Q 5675 3500 5100 3500 
L 2525 3500 
Q 2525 3225 2500 2500 
L 5300 2500 
Q 5250 2175 5200 1550 
L 5050 175 
Q 5000 -275 4625 -412 
Q 4250 -550 3525 -625 
Q 3500 -300 3325 -50 
Q 3900 -75 4200 0 
Q 4500 75 4575 425 
L 4725 2050 
L 2475 2050 
Q 2375 1350 2162 875 
Q 1950 400 1575 0 
Q 1200 -400 825 -700 
Q 725 -550 375 -350 
Q 700 -175 1062 200 
Q 1425 575 1662 1050 
Q 1900 1525 1962 2100 
Q 2025 2675 2025 3500 
L 1325 3500 
Q 775 3500 425 3475 
L 425 3975 
z
M 3075 4075 
Q 2850 4575 2575 5000 
Q 2800 5125 3025 5275 
Q 3300 4850 3575 4350 
Q 3325 4250 3075 4075 
z
" transform="scale(0.015625)"/>
       <path id="SimHei-6cd5" d="M 6075 -300 
Q 5850 -425 5625 -625 
Q 5450 -300 5325 -125 
Q 4525 -175 3587 -262 
Q 2650 -350 2325 -450 
Q 2250 -150 2125 75 
Q 2450 175 2825 725 
Q 3200 1275 3500 2100 
L 2800 2100 
Q 2350 2100 1950 2075 
L 1950 2525 
Q 2350 2500 2825 2500 
L 3725 2500 
L 3725 3600 
L 3150 3600 
Q 2675 3600 2325 3575 
L 2325 4025 
Q 2725 4000 3125 4000 
L 3725 4000 
Q 3725 4700 3700 5150 
L 4250 5150 
Q 4225 4775 4225 4000 
L 4975 4000 
Q 5350 4000 5750 4025 
L 5750 3575 
Q 5350 3600 5025 3600 
L 4225 3600 
L 4225 2500 
L 5125 2500 
Q 5575 2500 6025 2525 
L 6025 2075 
Q 5575 2100 5125 2100 
L 3850 2100 
L 4100 1950 
Q 3950 1775 3625 1200 
Q 3300 625 2900 100 
Q 4000 150 5075 225 
Q 4775 675 4450 1025 
Q 4650 1175 4825 1350 
Q 5275 800 6075 -300 
z
M 300 -250 
Q 650 100 1012 625 
Q 1375 1150 1725 1725 
Q 1850 1500 2075 1375 
Q 1850 1075 1500 487 
Q 1150 -100 850 -625 
Q 650 -425 300 -250 
z
M 675 3425 
Q 1200 3100 1800 2650 
Q 1575 2500 1400 2250 
Q 925 2675 350 3050 
Q 525 3200 675 3425 
z
M 1050 4900 
Q 1550 4575 2100 4125 
Q 1900 3975 1725 3725 
Q 1250 4175 725 4525 
Q 900 4700 1050 4900 
z
" transform="scale(0.015625)"/>
      </defs>
      <use xlink:href="#SimHei-5bf9"/>
      <use xlink:href="#SimHei-6bd4" transform="translate(100 0)"/>
      <use xlink:href="#SimHei-65b9" transform="translate(200 0)"/>
      <use xlink:href="#SimHei-6cd5" transform="translate(300 0)"/>
     </g>
    </g>
   </g>
   <g id="matplotlib.axis_2">
    <g id="ytick_1">
     <g id="line2d_6">
      <path d="M 35.336719 276.29425 
L 561.175469 276.29425 
" clip-path="url(#pc2f806b3ba)" style="fill: none; stroke-dasharray: 2.96,1.28; stroke-dashoffset: 0; stroke: #b0b0b0; stroke-opacity: 0.45; stroke-width: 0.8"/>
     </g>
     <g id="line2d_7">
      <defs>
       <path id="mf7ea1b7486" d="M 0 0 
L -3.5 0 
" style="stroke: #000000; stroke-width: 0.8"/>
      </defs>
      <g>
       <use xlink:href="#mf7ea1b7486" x="35.336719" y="276.29425" style="stroke: #000000; stroke-width: 0.8"/>
      </g>
     </g>
     <g id="text_7">
      <!-- 0 -->
      <g transform="translate(23.336719 279.73175) scale(0.1 -0.1)">
       <defs>
        <path id="SimHei-30" d="M 225 2537 
Q 250 3200 412 3587 
Q 575 3975 875 4225 
Q 1175 4475 1612 4475 
Q 2050 4475 2375 4112 
Q 2700 3750 2800 3200 
Q 2900 2650 2862 1937 
Q 2825 1225 2612 775 
Q 2400 325 1975 150 
Q 1550 -25 1125 187 
Q 700 400 525 750 
Q 350 1100 275 1487 
Q 200 1875 225 2537 
z
M 750 2687 
Q 675 2000 800 1462 
Q 925 925 1212 700 
Q 1500 475 1800 612 
Q 2100 750 2237 1162 
Q 2375 1575 2375 2062 
Q 2375 2550 2337 2950 
Q 2300 3350 2112 3675 
Q 1925 4000 1612 4012 
Q 1300 4025 1062 3700 
Q 825 3375 750 2687 
z
" transform="scale(0.015625)"/>
       </defs>
       <use xlink:href="#SimHei-30"/>
      </g>
     </g>
    </g>
    <g id="ytick_2">
     <g id="line2d_8">
      <path d="M 35.336719 229.103393 
L 561.175469 229.103393 
" clip-path="url(#pc2f806b3ba)" style="fill: none; stroke-dasharray: 2.96,1.28; stroke-dashoffset: 0; stroke: #b0b0b0; stroke-opacity: 0.45; stroke-width: 0.8"/>
     </g>
     <g id="line2d_9">
      <g>
       <use xlink:href="#mf7ea1b7486" x="35.336719" y="229.103393" style="stroke: #000000; stroke-width: 0.8"/>
      </g>
     </g>
     <g id="text_8">
      <!-- 2 -->
      <g transform="translate(23.336719 232.540893) scale(0.1 -0.1)">
       <defs>
        <path id="SimHei-32" d="M 300 250 
Q 325 625 650 925 
Q 975 1225 1475 1862 
Q 1975 2500 2125 2850 
Q 2275 3200 2237 3450 
Q 2200 3700 2000 3862 
Q 1800 4025 1537 4000 
Q 1275 3975 1037 3800 
Q 800 3625 675 3275 
L 200 3350 
Q 400 3925 712 4187 
Q 1025 4450 1450 4475 
Q 1700 4500 1900 4462 
Q 2100 4425 2312 4287 
Q 2525 4150 2662 3875 
Q 2800 3600 2762 3212 
Q 2725 2825 2375 2287 
Q 2025 1750 1025 600 
L 2825 600 
L 2825 150 
L 300 150 
L 300 250 
z
" transform="scale(0.015625)"/>
       </defs>
       <use xlink:href="#SimHei-32"/>
      </g>
     </g>
    </g>
    <g id="ytick_3">
     <g id="line2d_10">
      <path d="M 35.336719 181.912536 
L 561.175469 181.912536 
" clip-path="url(#pc2f806b3ba)" style="fill: none; stroke-dasharray: 2.96,1.28; stroke-dashoffset: 0; stroke: #b0b0b0; stroke-opacity: 0.45; stroke-width: 0.8"/>
     </g>
     <g id="line2d_11">
      <g>
       <use xlink:href="#mf7ea1b7486" x="35.336719" y="181.912536" style="stroke: #000000; stroke-width: 0.8"/>
      </g>
     </g>
     <g id="text_9">
      <!-- 4 -->
      <g transform="translate(23.336719 185.350036) scale(0.1 -0.1)">
       <defs>
        <path id="SimHei-34" d="M 2000 1100 
L 75 1100 
L 75 1525 
L 2100 4450 
L 2475 4450 
L 2475 1525 
L 3075 1525 
L 3075 1100 
L 2475 1100 
L 2475 150 
L 2000 150 
L 2000 1100 
z
M 2000 1525 
L 2000 3500 
L 600 1525 
L 2000 1525 
z
" transform="scale(0.015625)"/>
       </defs>
       <use xlink:href="#SimHei-34"/>
      </g>
     </g>
    </g>
    <g id="ytick_4">
     <g id="line2d_12">
      <path d="M 35.336719 134.721679 
L 561.175469 134.721679 
" clip-path="url(#pc2f806b3ba)" style="fill: none; stroke-dasharray: 2.96,1.28; stroke-dashoffset: 0; stroke: #b0b0b0; stroke-opacity: 0.45; stroke-width: 0.8"/>
     </g>
     <g id="line2d_13">
      <g>
       <use xlink:href="#mf7ea1b7486" x="35.336719" y="134.721679" style="stroke: #000000; stroke-width: 0.8"/>
      </g>
     </g>
     <g id="text_10">
      <!-- 6 -->
      <g transform="translate(23.336719 138.159179) scale(0.1 -0.1)">
       <defs>
        <path id="SimHei-36" d="M 250 1612 
Q 275 1975 387 2225 
Q 500 2475 725 2850 
L 1750 4450 
L 2325 4450 
L 1275 2800 
Q 1950 2975 2350 2750 
Q 2750 2525 2887 2237 
Q 3025 1950 3037 1612 
Q 3050 1275 2937 950 
Q 2825 625 2537 362 
Q 2250 100 1737 75 
Q 1225 50 862 262 
Q 500 475 362 862 
Q 225 1250 250 1612 
z
M 1025 787 
Q 1250 550 1625 525 
Q 2000 500 2250 775 
Q 2500 1050 2500 1575 
Q 2500 2100 2187 2300 
Q 1875 2500 1487 2450 
Q 1100 2400 925 2075 
Q 750 1750 775 1387 
Q 800 1025 1025 787 
z
" transform="scale(0.015625)"/>
       </defs>
       <use xlink:href="#SimHei-36"/>
      </g>
     </g>
    </g>
    <g id="ytick_5">
     <g id="line2d_14">
      <path d="M 35.336719 87.530821 
L 561.175469 87.530821 
" clip-path="url(#pc2f806b3ba)" style="fill: none; stroke-dasharray: 2.96,1.28; stroke-dashoffset: 0; stroke: #b0b0b0; stroke-opacity: 0.45; stroke-width: 0.8"/>
     </g>
     <g id="line2d_15">
      <g>
       <use xlink:href="#mf7ea1b7486" x="35.336719" y="87.530821" style="stroke: #000000; stroke-width: 0.8"/>
      </g>
     </g>
     <g id="text_11">
      <!-- 8 -->
      <g transform="translate(23.336719 90.968321) scale(0.1 -0.1)">
       <defs>
        <path id="SimHei-38" d="M 175 1375 
Q 175 1675 325 1962 
Q 475 2250 825 2425 
Q 525 2600 425 2812 
Q 325 3025 312 3300 
Q 300 3575 387 3775 
Q 475 3975 650 4150 
Q 825 4325 1037 4387 
Q 1250 4450 1500 4450 
Q 1750 4450 1950 4400 
Q 2150 4350 2375 4187 
Q 2600 4025 2700 3725 
Q 2800 3425 2687 3025 
Q 2575 2625 2100 2400 
Q 2525 2275 2700 2012 
Q 2875 1750 2875 1375 
Q 2875 1000 2762 775 
Q 2650 550 2512 400 
Q 2375 250 2137 162 
Q 1900 75 1537 75 
Q 1175 75 912 162 
Q 650 250 475 425 
Q 300 600 237 837 
Q 175 1075 175 1375 
z
M 687 1400 
Q 675 1100 787 875 
Q 900 650 1200 587 
Q 1500 525 1825 600 
Q 2150 675 2275 950 
Q 2400 1225 2362 1500 
Q 2325 1775 2050 1962 
Q 1775 2150 1450 2125 
Q 1125 2100 912 1900 
Q 700 1700 687 1400 
z
M 775 3350 
Q 775 3100 950 2875 
Q 1125 2650 1500 2650 
Q 1875 2650 2062 2875 
Q 2250 3100 2237 3412 
Q 2225 3725 2012 3875 
Q 1800 4025 1437 4000 
Q 1075 3975 925 3787 
Q 775 3600 775 3350 
z
" transform="scale(0.015625)"/>
       </defs>
       <use xlink:href="#SimHei-38"/>
      </g>
     </g>
    </g>
    <g id="text_12">
     <!-- 准确率下降幅度（百分点） -->
     <g transform="translate(17.711719 237.30025) rotate(-90) scale(0.13 -0.13)">
      <defs>
       <path id="SimHei-51c6" d="M 1600 2775 
Q 1900 3050 2275 3787 
Q 2650 4525 2800 5175 
Q 3075 5050 3400 4950 
Q 3250 4775 3000 4100 
L 4825 4100 
Q 5400 4100 5875 4125 
L 5875 3675 
Q 5375 3700 4825 3700 
L 4525 3700 
L 4525 2850 
Q 5250 2850 5700 2875 
L 5700 2425 
Q 5250 2450 4525 2450 
L 4525 1600 
Q 5275 1600 5700 1625 
L 5700 1200 
Q 5275 1225 4525 1225 
L 4525 375 
Q 5575 375 6050 400 
L 6050 -100 
Q 5575 -75 4975 -75 
L 2950 -75 
L 2950 -600 
L 2425 -600 
Q 2450 -150 2450 675 
L 2450 3050 
Q 2300 2775 2075 2400 
Q 1875 2650 1600 2775 
z
M 1675 2050 
Q 1425 1425 1200 850 
Q 975 275 775 -125 
Q 550 50 275 200 
Q 550 650 775 1112 
Q 1000 1575 1225 2300 
Q 1400 2125 1675 2050 
z
M 4025 1600 
L 4025 2450 
L 2950 2450 
L 2950 1600 
L 4025 1600 
z
M 4025 2850 
L 4025 3700 
L 2950 3700 
L 2950 2850 
L 4025 2850 
z
M 4025 375 
L 4025 1225 
L 2950 1225 
L 2950 375 
L 4025 375 
z
M 725 4775 
Q 850 4625 1162 4312 
Q 1475 4000 1750 3700 
Q 1525 3475 1375 3300 
Q 1100 3700 350 4450 
Q 550 4600 725 4775 
z
M 4150 5225 
Q 4600 4800 4800 4500 
Q 4625 4400 4400 4200 
Q 4225 4500 3775 4925 
Q 3925 5000 4150 5225 
z
" transform="scale(0.015625)"/>
       <path id="SimHei-786e" d="M 4975 -200 
Q 5250 -175 5362 -125 
Q 5475 -75 5475 125 
L 5475 975 
L 4625 975 
L 4625 -400 
L 4200 -400 
L 4200 975 
L 3500 975 
Q 3475 625 3325 237 
Q 3175 -150 2800 -600 
Q 2625 -350 2325 -325 
Q 2650 -50 2812 262 
Q 2975 575 3025 1000 
Q 3075 1425 3087 2187 
Q 3100 2950 3075 3425 
L 4250 3425 
Q 4475 3825 4650 4225 
L 3625 4225 
Q 3325 3875 2850 3250 
Q 2650 3425 2425 3500 
Q 2875 3975 3175 4425 
Q 3475 4875 3625 5300 
Q 3900 5175 4200 5100 
Q 4075 5025 3825 4575 
L 5350 4575 
Q 4900 3775 4750 3425 
L 5950 3425 
Q 5925 2975 5925 2450 
L 5925 -50 
Q 5950 -350 5775 -462 
Q 5600 -575 5175 -675 
Q 5150 -425 4975 -200 
z
M 200 1975 
Q 550 2300 850 2837 
Q 1150 3375 1300 4225 
Q 825 4225 525 4200 
L 525 4650 
Q 875 4625 1200 4625 
L 1900 4625 
Q 2325 4625 2625 4650 
L 2625 4200 
Q 2325 4225 1800 4225 
Q 1650 3525 1400 2925 
L 2525 2925 
Q 2500 2500 2500 2125 
L 2500 1075 
Q 2500 650 2525 125 
L 2075 125 
L 2075 600 
L 1350 600 
L 1350 -300 
L 900 -300 
Q 925 225 925 600 
L 925 2100 
Q 800 1900 625 1625 
Q 475 1825 200 1975 
z
M 2075 975 
L 2075 2575 
L 1350 2575 
L 1350 975 
L 2075 975 
z
M 5475 2350 
L 5475 3075 
L 4625 3075 
L 4625 2350 
L 5475 2350 
z
M 5475 1325 
L 5475 2000 
L 4625 2000 
L 4625 1325 
L 5475 1325 
z
M 4200 2350 
L 4200 3075 
L 3500 3075 
L 3500 2350 
L 4200 2350 
z
M 4200 1325 
L 4200 2000 
L 3500 2000 
L 3500 1325 
L 4200 1325 
z
" transform="scale(0.015625)"/>
       <path id="SimHei-7387" d="M 3325 5150 
Q 3425 4900 3550 4525 
L 4800 4525 
Q 5250 4525 5800 4550 
L 5800 4125 
Q 5250 4175 4775 4175 
L 2800 4175 
Q 2975 4050 3300 3900 
Q 3075 3750 2875 3537 
Q 2675 3325 2475 3125 
L 3275 3125 
Q 3575 3425 3775 3775 
Q 4000 3600 4275 3425 
Q 3950 3250 3600 2875 
Q 3250 2500 2625 2000 
L 3850 2100 
Q 3725 2250 3600 2425 
Q 3750 2475 4000 2650 
Q 4250 2350 4700 1700 
Q 4475 1625 4225 1450 
Q 4175 1600 4025 1775 
Q 3700 1750 3425 1750 
L 3425 1050 
L 5150 1050 
Q 5675 1050 6100 1075 
L 6100 650 
Q 5700 675 5125 675 
L 3425 675 
L 3425 175 
Q 3425 -300 3450 -625 
L 2900 -625 
Q 2925 -300 2925 175 
L 2925 675 
L 1325 675 
Q 825 675 325 650 
L 325 1075 
Q 825 1050 1350 1050 
L 2925 1050 
L 2925 1700 
Q 2700 1675 2475 1637 
Q 2250 1600 2025 1525 
Q 1950 1775 1850 2000 
Q 2075 2025 2325 2200 
Q 2575 2375 2975 2800 
Q 2300 2725 2025 2625 
Q 1975 2875 1850 3175 
Q 2075 3175 2325 3487 
Q 2575 3800 2750 4175 
L 1700 4175 
Q 1150 4175 650 4125 
L 650 4550 
Q 1150 4525 1550 4525 
L 2975 4525 
Q 2900 4825 2800 5025 
Q 3025 5075 3325 5150 
z
M 1625 2575 
Q 1725 2400 1825 2200 
Q 1575 2050 1325 1862 
Q 1075 1675 800 1425 
Q 625 1675 475 1875 
Q 800 2025 1100 2212 
Q 1400 2400 1625 2575 
z
M 4850 2650 
Q 5125 2475 5337 2337 
Q 5550 2200 5875 1950 
Q 5675 1800 5500 1600 
Q 5300 1775 5062 1975 
Q 4825 2175 4575 2325 
Q 4725 2475 4850 2650 
z
M 5725 3525 
Q 5550 3450 5300 3262 
Q 5050 3075 4800 2825 
Q 4625 3050 4475 3175 
Q 4700 3325 4875 3487 
Q 5050 3650 5300 3925 
Q 5525 3700 5725 3525 
z
M 1050 3850 
Q 1425 3600 1775 3275 
Q 1575 3100 1425 2925 
Q 1075 3300 675 3525 
Q 875 3700 1050 3850 
z
" transform="scale(0.015625)"/>
       <path id="SimHei-4e0b" d="M 5000 4700 
Q 5475 4700 5975 4725 
L 5975 4200 
Q 5425 4225 5000 4225 
L 3275 4225 
L 3275 375 
Q 3275 50 3300 -450 
L 2725 -450 
Q 2750 0 2750 375 
L 2750 4225 
L 1375 4225 
Q 875 4225 400 4200 
L 400 4725 
Q 875 4700 1375 4700 
L 5000 4700 
z
M 5650 1400 
Q 5400 1225 5200 1000 
Q 4800 1525 3650 2575 
L 4025 2950 
Q 4700 2400 5650 1400 
z
" transform="scale(0.015625)"/>
       <path id="SimHei-964d" d="M 4075 5050 
Q 3850 4800 3775 4625 
L 5650 4625 
Q 5425 4175 5187 3837 
Q 4950 3500 4650 3200 
Q 4900 3025 5275 2925 
Q 5650 2825 6200 2800 
Q 6025 2525 5975 2300 
Q 5375 2400 4950 2562 
Q 4525 2725 4275 2900 
Q 3950 2700 3550 2500 
Q 3150 2300 2525 2125 
Q 2450 2350 2250 2550 
Q 2775 2650 3212 2825 
Q 3650 3000 3875 3200 
Q 3550 3525 3325 3875 
Q 3000 3450 2825 3275 
Q 2650 3450 2450 3550 
Q 2775 3850 3075 4325 
Q 3375 4800 3575 5300 
Q 3950 5100 4075 5050 
z
M 2350 4975 
Q 2225 4650 2025 4062 
Q 1825 3475 1675 2975 
Q 2075 2450 2200 2175 
Q 2325 1900 2287 1550 
Q 2250 1200 2012 1012 
Q 1775 825 1350 775 
Q 1300 1025 1150 1325 
Q 1650 1300 1737 1512 
Q 1825 1725 1787 1962 
Q 1750 2200 1200 2925 
L 1450 3600 
Q 1600 4025 1725 4550 
L 975 4550 
L 975 -600 
L 500 -600 
Q 525 325 525 875 
L 525 3750 
Q 525 4325 500 4975 
L 2350 4975 
z
M 5100 2075 
Q 5275 2075 5725 2100 
L 5725 1650 
Q 5450 1675 5150 1675 
L 4575 1675 
L 4575 900 
L 5200 900 
Q 5675 900 6050 925 
L 6050 475 
Q 5700 500 5225 500 
L 4575 500 
L 4575 125 
Q 4575 -250 4600 -600 
L 4100 -600 
Q 4125 -225 4125 100 
L 4125 500 
L 2375 500 
Q 2500 1100 2500 1400 
L 3025 1325 
Q 2925 1025 2925 900 
L 4125 900 
L 4125 1675 
L 3475 1675 
Q 3100 1675 2775 1650 
L 2775 2100 
Q 3225 2075 3475 2075 
L 4125 2075 
Q 4125 2375 4100 2625 
L 4575 2625 
Q 4550 2225 4550 2075 
L 5100 2075 
z
M 4275 3475 
Q 4600 3725 4925 4250 
L 3550 4250 
Q 4025 3650 4275 3475 
z
" transform="scale(0.015625)"/>
       <path id="SimHei-5e45" d="M 5950 2250 
Q 5925 1875 5925 900 
Q 5925 -50 5950 -425 
L 5450 -425 
L 5450 -175 
L 3350 -175 
L 3350 -475 
L 2875 -475 
Q 2900 200 2900 1025 
Q 2900 1875 2875 2250 
L 5950 2250 
z
M 2575 1125 
Q 2575 800 2437 700 
Q 2300 600 1950 525 
Q 1900 800 1750 1000 
Q 1975 1000 2075 1037 
Q 2175 1075 2175 1300 
L 2175 3725 
L 1700 3725 
L 1700 475 
Q 1700 0 1725 -550 
L 1225 -550 
Q 1250 -25 1250 475 
L 1250 3725 
L 850 3725 
L 850 500 
L 400 500 
Q 425 1000 425 2300 
Q 425 3600 400 4100 
L 1250 4100 
L 1250 4500 
Q 1250 4825 1225 5175 
L 1725 5175 
Q 1700 4825 1700 4500 
L 1700 4100 
L 2600 4100 
Q 2575 3900 2575 3225 
L 2575 1125 
z
M 5575 3925 
Q 5550 3625 5550 3300 
Q 5550 2975 5575 2600 
L 3200 2600 
Q 3225 2975 3225 3300 
Q 3225 3625 3200 3925 
L 5575 3925 
z
M 5250 4800 
Q 5650 4800 6025 4825 
L 6025 4375 
Q 5650 4400 5250 4400 
L 3550 4400 
Q 3075 4400 2800 4375 
L 2800 4825 
Q 3075 4800 3550 4800 
L 5250 4800 
z
M 5150 2975 
L 5150 3575 
L 3625 3575 
L 3625 2975 
L 5150 2975 
z
M 5450 1225 
L 5450 1875 
L 4625 1875 
L 4625 1225 
L 5450 1225 
z
M 4175 200 
L 4175 850 
L 3350 850 
L 3350 200 
L 4175 200 
z
M 5450 200 
L 5450 850 
L 4625 850 
L 4625 200 
L 5450 200 
z
M 4175 1225 
L 4175 1875 
L 3350 1875 
L 3350 1225 
L 4175 1225 
z
" transform="scale(0.015625)"/>
       <path id="SimHei-5ea6" d="M 1750 1675 
Q 2450 1650 2875 1650 
L 5200 1650 
Q 4975 1250 4650 850 
Q 4325 450 4025 200 
Q 4350 50 4950 -50 
Q 5550 -150 6100 -150 
Q 5950 -300 5825 -650 
Q 5100 -550 4550 -412 
Q 4000 -275 3625 -100 
Q 3100 -325 2587 -462 
Q 2075 -600 1525 -675 
Q 1450 -475 1225 -250 
Q 1675 -250 2250 -125 
Q 2825 0 3250 200 
Q 2825 550 2400 1275 
L 1750 1250 
L 1750 1675 
z
M 2975 5075 
Q 3250 5150 3475 5250 
Q 3625 4975 3775 4525 
L 4700 4525 
Q 4975 4525 5700 4550 
L 5700 4100 
Q 5000 4125 4650 4125 
L 1375 4125 
Q 1375 3000 1350 2312 
Q 1325 1625 1212 950 
Q 1100 275 725 -525 
Q 500 -375 250 -300 
Q 650 400 762 1075 
Q 875 1750 887 2800 
Q 900 3850 875 4525 
L 3200 4525 
Q 3100 4850 2975 5075 
z
M 2475 3300 
Q 2475 3700 2450 3925 
L 2975 3925 
Q 2950 3725 2950 3300 
L 4300 3300 
Q 4300 3700 4275 3950 
L 4800 3950 
Q 4775 3650 4775 3300 
Q 5325 3300 5725 3325 
L 5725 2900 
Q 5350 2925 4775 2925 
Q 4775 2250 4800 1950 
L 2450 1950 
Q 2475 2350 2475 2925 
Q 2175 2925 1600 2900 
L 1600 3325 
Q 2175 3300 2475 3300 
z
M 4300 2350 
L 4300 2925 
L 2950 2925 
L 2950 2350 
L 4300 2350 
z
M 2875 1275 
Q 3200 775 3650 425 
Q 4025 700 4425 1275 
L 2900 1275 
L 2875 1275 
z
" transform="scale(0.015625)"/>
       <path id="SimHei-ff08" d="M 5425 5100 
L 5700 4775 
Q 4275 3725 4325 2350 
Q 4350 1025 5675 50 
L 5400 -275 
Q 3875 825 3925 2500 
Q 3925 3875 5425 5100 
z
" transform="scale(0.015625)"/>
       <path id="SimHei-767e" d="M 5050 4850 
Q 5675 4850 5950 4875 
L 5950 4425 
Q 5600 4450 5050 4450 
L 3400 4450 
Q 3200 3875 3075 3450 
L 5300 3450 
Q 5275 2975 5275 2475 
L 5275 550 
Q 5275 -50 5300 -525 
L 4800 -525 
L 4800 -25 
L 1625 -25 
L 1625 -600 
L 1125 -600 
Q 1150 275 1150 550 
L 1150 2400 
Q 1150 3100 1125 3450 
L 2600 3450 
Q 2775 3950 2875 4450 
L 1400 4450 
Q 975 4450 425 4425 
L 425 4875 
Q 925 4850 1375 4850 
L 5050 4850 
z
M 4800 400 
L 4800 1525 
L 1625 1525 
L 1625 400 
L 4800 400 
z
M 4800 1950 
L 4800 3050 
L 1625 3050 
L 1625 1950 
L 4800 1950 
z
" transform="scale(0.015625)"/>
       <path id="SimHei-5206" d="M 1000 -650 
Q 825 -375 575 -225 
Q 975 -75 1300 137 
Q 1625 350 1875 662 
Q 2125 975 2250 1350 
Q 2375 1725 2425 2275 
Q 1850 2275 1500 2250 
L 1500 2775 
Q 1900 2750 2525 2750 
L 5025 2750 
Q 4975 2375 4950 2100 
L 4750 250 
Q 4700 -200 4350 -350 
Q 4000 -500 3575 -525 
Q 3550 -275 3325 50 
Q 3850 25 4037 87 
Q 4225 150 4275 525 
L 4450 2275 
L 2950 2275 
Q 2875 1625 2737 1187 
Q 2600 750 2350 425 
Q 2100 100 1750 -175 
Q 1400 -450 1000 -650 
z
M 3950 5175 
Q 4125 4650 4662 3975 
Q 5200 3300 6175 2800 
Q 5975 2625 5775 2275 
Q 5325 2600 4987 2887 
Q 4650 3175 4425 3425 
Q 4200 3675 3925 4137 
Q 3650 4600 3475 5000 
Q 3750 5075 3950 5175 
z
M 2700 4825 
Q 2475 4425 2325 4125 
Q 2175 3825 2025 3587 
Q 1875 3350 1575 2950 
Q 1275 2550 850 2125 
Q 625 2350 400 2475 
Q 900 2925 1187 3300 
Q 1475 3675 1737 4112 
Q 2000 4550 2200 5075 
Q 2400 4925 2700 4825 
z
" transform="scale(0.015625)"/>
       <path id="SimHei-70b9" d="M 3325 5200 
Q 3300 4925 3300 4375 
L 4900 4375 
Q 5275 4375 5725 4400 
L 5725 3925 
Q 5300 3950 4900 3950 
L 3300 3950 
L 3300 3225 
L 5225 3225 
Q 5200 2700 5200 2150 
Q 5200 1625 5225 1175 
L 1175 1175 
Q 1200 1625 1200 2175 
Q 1200 2725 1175 3225 
L 2775 3225 
L 2775 4500 
Q 2775 4900 2750 5200 
L 3325 5200 
z
M 4700 1600 
L 4700 2800 
L 1725 2800 
L 1725 1600 
L 4700 1600 
z
M 1500 750 
Q 1025 -250 825 -625 
Q 625 -475 325 -375 
Q 650 50 950 925 
Q 1200 800 1500 750 
z
M 5325 850 
Q 5775 150 6075 -350 
Q 5925 -425 5575 -625 
Q 5375 -150 4900 575 
Q 5150 700 5325 850 
z
M 3975 -575 
Q 3775 -100 3400 575 
Q 3575 675 3825 825 
Q 4350 -75 4450 -325 
Q 4200 -450 3975 -575 
z
M 2375 -575 
Q 2350 -300 1975 550 
Q 2200 625 2425 775 
Q 2800 -75 2900 -350 
Q 2625 -450 2375 -575 
z
" transform="scale(0.015625)"/>
       <path id="SimHei-ff09" d="M 1000 5100 
Q 2500 3875 2500 2500 
Q 2550 825 1025 -275 
L 750 50 
Q 2075 1025 2100 2350 
Q 2150 3725 725 4775 
L 1000 5100 
z
" transform="scale(0.015625)"/>
      </defs>
      <use xlink:href="#SimHei-51c6"/>
      <use xlink:href="#SimHei-786e" transform="translate(100 0)"/>
      <use xlink:href="#SimHei-7387" transform="translate(200 0)"/>
      <use xlink:href="#SimHei-4e0b" transform="translate(300 0)"/>
      <use xlink:href="#SimHei-964d" transform="translate(400 0)"/>
      <use xlink:href="#SimHei-5e45" transform="translate(500 0)"/>
      <use xlink:href="#SimHei-5ea6" transform="translate(600 0)"/>
      <use xlink:href="#SimHei-ff08" transform="translate(700 0)"/>
      <use xlink:href="#SimHei-767e" transform="translate(800 0)"/>
      <use xlink:href="#SimHei-5206" transform="translate(900 0)"/>
      <use xlink:href="#SimHei-70b9" transform="translate(1000 0)"/>
      <use xlink:href="#SimHei-ff09" transform="translate(1100 0)"/>
     </g>
    </g>
   </g>
   <g id="patch_3">
    <path d="M 35.336719 276.29425 
L 35.336719 42.30625 
" style="fill: none; stroke: #000000; stroke-width: 0.8; stroke-linejoin: miter; stroke-linecap: square"/>
   </g>
   <g id="patch_4">
    <path d="M 35.336719 276.29425 
L 561.175469 276.29425 
" style="fill: none; stroke: #000000; stroke-width: 0.8; stroke-linejoin: miter; stroke-linecap: square"/>
   </g>
   <g id="patch_5">
    <path d="M 59.23848 276.29425 
L 117.022958 276.29425 
L 117.022958 207.47425 
L 59.23848 207.47425 
z
" clip-path="url(#pc2f806b3ba)" style="fill: #5b8dbe; fill-opacity: 0.8; stroke: #ffffff; stroke-width: 1.2; stroke-linejoin: miter"/>
   </g>
   <g id="patch_6">
    <path d="M 164.301167 276.29425 
L 222.085645 276.29425 
L 222.085645 236.968536 
L 164.301167 236.968536 
z
" clip-path="url(#pc2f806b3ba)" style="fill: #4caf8a; fill-opacity: 0.8; stroke: #ffffff; stroke-width: 1.2; stroke-linejoin: miter"/>
   </g>
   <g id="patch_7">
    <path d="M 269.363855 276.29425 
L 327.148333 276.29425 
L 327.148333 227.137107 
L 269.363855 227.137107 
z
" clip-path="url(#pc2f806b3ba)" style="fill: #e0a830; fill-opacity: 0.8; stroke: #ffffff; stroke-width: 1.2; stroke-linejoin: miter"/>
   </g>
   <g id="patch_8">
    <path d="M 374.426542 276.29425 
L 432.21102 276.29425 
L 432.21102 109.159964 
L 374.426542 109.159964 
z
" clip-path="url(#pc2f806b3ba)" style="fill: #9b6bb5; fill-opacity: 0.8; stroke: #ffffff; stroke-width: 1.2; stroke-linejoin: miter"/>
   </g>
   <g id="patch_9">
    <path d="M 479.489229 276.29425 
L 537.273707 276.29425 
L 537.273707 168.148536 
L 479.489229 168.148536 
z
" clip-path="url(#pc2f806b3ba)" style="fill: #e24b4a; stroke: #900000; stroke-width: 2.5; stroke-linejoin: miter"/>
   </g>
   <g id="text_13">
    <!-- ↓2.92pp -->
    <g transform="translate(66.130719 202.559936) scale(0.11 -0.11)">
     <defs>
      <path id="SimHei-2193" d="M 2775 5100 
L 3600 5100 
L 3600 1600 
L 5100 1600 
L 3175 25 
L 1225 1600 
L 2775 1600 
L 2775 5100 
z
" transform="scale(0.015625)"/>
      <path id="SimHei-2e" d="M 1075 125 
L 500 125 
L 500 675 
L 1075 675 
L 1075 125 
z
" transform="scale(0.015625)"/>
      <path id="SimHei-39" d="M 800 75 
Q 1350 1000 1700 1750 
Q 1075 1650 662 1912 
Q 250 2175 162 2625 
Q 75 3075 175 3437 
Q 275 3800 487 4037 
Q 700 4275 1000 4375 
Q 1300 4475 1537 4475 
Q 1775 4475 2025 4375 
Q 2275 4275 2475 4075 
Q 2675 3875 2750 3662 
Q 2825 3450 2825 3112 
Q 2825 2775 2575 2250 
Q 2325 1725 1350 75 
L 800 75 
z
M 662 2875 
Q 700 2550 937 2337 
Q 1175 2125 1450 2150 
Q 1725 2175 1887 2300 
Q 2050 2425 2200 2725 
Q 2300 3100 2250 3362 
Q 2200 3625 1987 3800 
Q 1775 3975 1525 3975 
Q 1375 4000 1137 3900 
Q 900 3800 762 3500 
Q 625 3200 662 2875 
z
" transform="scale(0.015625)"/>
      <path id="SimHei-70" d="M 2825 1525 
Q 2825 800 2475 425 
Q 2125 50 1625 50 
Q 1350 50 1150 162 
Q 950 275 800 500 
L 800 -800 
L 300 -800 
L 300 2925 
L 800 2925 
L 800 2550 
Q 950 2775 1150 2875 
Q 1350 2975 1625 2975 
Q 2125 2975 2475 2612 
Q 2825 2250 2825 1525 
z
M 2275 1525 
Q 2275 2000 2087 2262 
Q 1900 2525 1525 2525 
Q 1225 2525 1012 2262 
Q 800 2000 800 1525 
Q 800 1050 1012 775 
Q 1225 500 1525 500 
Q 1900 500 2087 775 
Q 2275 1050 2275 1525 
z
" transform="scale(0.015625)"/>
     </defs>
     <use xlink:href="#SimHei-2193"/>
     <use xlink:href="#SimHei-32" transform="translate(100 0)"/>
     <use xlink:href="#SimHei-2e" transform="translate(150 0)"/>
     <use xlink:href="#SimHei-39" transform="translate(200 0)"/>
     <use xlink:href="#SimHei-32" transform="translate(250 0)"/>
     <use xlink:href="#SimHei-70" transform="translate(300 0)"/>
     <use xlink:href="#SimHei-70" transform="translate(350 0)"/>
    </g>
   </g>
   <g id="text_14">
    <!-- ↓1.67pp -->
    <g transform="translate(171.193406 232.054221) scale(0.11 -0.11)">
     <defs>
      <path id="SimHei-31" d="M 1400 3600 
Q 1075 3275 575 2975 
L 575 3450 
Q 1200 3875 1600 4450 
L 1900 4450 
L 1900 150 
L 1400 150 
L 1400 3600 
z
" transform="scale(0.015625)"/>
      <path id="SimHei-37" d="M 850 150 
Q 1300 2050 2425 3925 
L 275 3925 
L 275 4375 
L 2950 4375 
L 2950 3950 
Q 1775 2050 1400 150 
L 850 150 
z
" transform="scale(0.015625)"/>
     </defs>
     <use xlink:href="#SimHei-2193"/>
     <use xlink:href="#SimHei-31" transform="translate(100 0)"/>
     <use xlink:href="#SimHei-2e" transform="translate(150 0)"/>
     <use xlink:href="#SimHei-36" transform="translate(200 0)"/>
     <use xlink:href="#SimHei-37" transform="translate(250 0)"/>
     <use xlink:href="#SimHei-70" transform="translate(300 0)"/>
     <use xlink:href="#SimHei-70" transform="translate(350 0)"/>
    </g>
   </g>
   <g id="text_15">
    <!-- ↓2.08pp -->
    <g transform="translate(276.256094 222.222793) scale(0.11 -0.11)">
     <use xlink:href="#SimHei-2193"/>
     <use xlink:href="#SimHei-32" transform="translate(100 0)"/>
     <use xlink:href="#SimHei-2e" transform="translate(150 0)"/>
     <use xlink:href="#SimHei-30" transform="translate(200 0)"/>
     <use xlink:href="#SimHei-38" transform="translate(250 0)"/>
     <use xlink:href="#SimHei-70" transform="translate(300 0)"/>
     <use xlink:href="#SimHei-70" transform="translate(350 0)"/>
    </g>
   </g>
   <g id="text_16">
    <!-- ↓7.08pp -->
    <g transform="translate(381.318781 104.24565) scale(0.11 -0.11)">
     <use xlink:href="#SimHei-2193"/>
     <use xlink:href="#SimHei-37" transform="translate(100 0)"/>
     <use xlink:href="#SimHei-2e" transform="translate(150 0)"/>
     <use xlink:href="#SimHei-30" transform="translate(200 0)"/>
     <use xlink:href="#SimHei-38" transform="translate(250 0)"/>
     <use xlink:href="#SimHei-70" transform="translate(300 0)"/>
     <use xlink:href="#SimHei-70" transform="translate(350 0)"/>
    </g>
   </g>
   <g id="text_17">
    <!-- ↓4.58pp -->
    <g transform="translate(486.381468 163.234221) scale(0.11 -0.11)">
     <defs>
      <path id="SimHei-35" d="M 550 1325 
Q 725 650 1150 575 
Q 1575 500 1837 662 
Q 2100 825 2212 1087 
Q 2325 1350 2312 1675 
Q 2300 2000 2137 2225 
Q 1975 2450 1725 2525 
Q 1475 2600 1162 2525 
Q 850 2450 650 2175 
L 225 2225 
Q 275 2375 700 4375 
L 2675 4375 
L 2675 3925 
L 1075 3925 
Q 950 3250 825 2850 
Q 1200 3025 1525 3012 
Q 1850 3000 2150 2862 
Q 2450 2725 2587 2487 
Q 2725 2250 2787 2012 
Q 2850 1775 2837 1500 
Q 2825 1225 2725 937 
Q 2625 650 2425 462 
Q 2225 275 1937 162 
Q 1650 50 1275 75 
Q 900 100 562 350 
Q 225 600 100 1200 
L 550 1325 
z
" transform="scale(0.015625)"/>
     </defs>
     <use xlink:href="#SimHei-2193"/>
     <use xlink:href="#SimHei-34" transform="translate(100 0)"/>
     <use xlink:href="#SimHei-2e" transform="translate(150 0)"/>
     <use xlink:href="#SimHei-35" transform="translate(200 0)"/>
     <use xlink:href="#SimHei-38" transform="translate(250 0)"/>
     <use xlink:href="#SimHei-70" transform="translate(300 0)"/>
     <use xlink:href="#SimHei-70" transform="translate(350 0)"/>
    </g>
   </g>
   <g id="text_18">
    <!-- 引入传感器噪声后各方法准确率下降幅度 -->
    <g transform="translate(181.256094 17.7625) scale(0.13 -0.13)">
     <defs>
      <path id="SimHei-5f15" d="M 3475 4825 
Q 3450 4350 3450 3925 
Q 3450 3500 3475 3050 
L 1400 3050 
L 1350 2075 
L 3525 2075 
Q 3300 150 3225 -100 
Q 3150 -350 2837 -462 
Q 2525 -575 1600 -625 
Q 1575 -350 1400 -25 
Q 2275 -50 2487 0 
Q 2700 50 2775 300 
L 2950 1675 
L 825 1675 
Q 850 2075 875 2487 
Q 900 2900 900 3450 
L 2950 3450 
L 2950 4400 
L 1925 4400 
Q 1350 4400 800 4375 
L 800 4850 
Q 1350 4825 1750 4825 
L 3475 4825 
z
M 5450 5075 
Q 5425 4625 5425 4175 
L 5425 600 
Q 5425 50 5450 -550 
L 4900 -550 
Q 4925 100 4925 600 
L 4925 4200 
Q 4925 4625 4900 5075 
L 5450 5075 
z
" transform="scale(0.015625)"/>
      <path id="SimHei-5165" d="M 5650 -375 
Q 5050 25 4500 650 
Q 3950 1275 3275 3050 
Q 2575 975 675 -475 
Q 575 -225 225 50 
Q 1850 825 2975 3525 
Q 2900 3725 2525 4125 
Q 2150 4525 1750 4675 
Q 2025 4900 2175 5125 
Q 2800 4650 3175 4225 
Q 3550 3800 4125 2375 
Q 4700 950 6125 250 
Q 5775 0 5650 -375 
z
" transform="scale(0.015625)"/>
      <path id="SimHei-4f20" d="M 5500 1975 
Q 5025 925 4700 250 
Q 4975 100 5450 -200 
Q 5300 -375 5125 -675 
Q 4700 -375 4012 12 
Q 3325 400 3050 525 
Q 3175 750 3275 950 
Q 3600 800 4275 475 
Q 4525 975 4750 1550 
L 2800 1550 
Q 2950 2000 3125 2650 
L 2575 2650 
Q 2200 2650 1925 2625 
L 1925 3075 
Q 2250 3050 2600 3050 
L 3200 3050 
Q 3300 3525 3350 3825 
L 2975 3825 
Q 2525 3825 2250 3800 
L 2250 4250 
Q 2550 4225 2950 4225 
L 3425 4225 
Q 3525 4950 3525 5225 
Q 3850 5150 4100 5125 
Q 4025 5000 3875 4225 
L 4950 4225 
Q 5350 4225 5700 4250 
L 5700 3800 
Q 5375 3825 4925 3825 
L 3825 3825 
Q 3775 3550 3675 3050 
L 5250 3050 
Q 5750 3050 6025 3075 
L 6025 2625 
Q 5725 2650 5250 2650 
L 3600 2650 
Q 3500 2250 3425 1975 
L 5500 1975 
z
M 2225 4875 
Q 2025 4675 1650 3750 
L 1650 550 
Q 1650 -25 1675 -525 
L 1125 -525 
Q 1175 -125 1175 525 
L 1175 3000 
Q 800 2400 550 2050 
Q 450 2250 200 2450 
Q 500 2800 925 3525 
Q 1350 4250 1625 5175 
Q 1850 5050 2225 4875 
z
" transform="scale(0.015625)"/>
      <path id="SimHei-611f" d="M 6125 1900 
Q 5900 1200 5725 1112 
Q 5550 1025 5237 1137 
Q 4925 1250 4425 1700 
Q 4125 1375 3725 1100 
Q 3550 1300 3350 1400 
Q 3875 1700 4175 2050 
Q 3900 2500 3762 3037 
Q 3625 3575 3575 4050 
L 1325 4050 
Q 1325 2925 1287 2525 
Q 1250 2125 1125 1775 
Q 1000 1425 750 1025 
Q 450 1225 275 1275 
Q 575 1650 712 2012 
Q 850 2375 875 2850 
Q 900 3325 875 4450 
L 3525 4450 
Q 3525 4650 3500 5175 
Q 3725 5125 4025 5100 
Q 3975 4800 4000 4450 
L 5100 4450 
Q 5450 4450 5925 4475 
L 5925 4025 
Q 5450 4050 5125 4050 
L 4025 4050 
Q 4125 3000 4450 2475 
Q 4600 2725 4725 3087 
Q 4850 3450 4925 3775 
Q 5175 3675 5450 3600 
Q 5350 3500 5187 3050 
Q 5025 2600 4725 2050 
Q 5000 1800 5212 1675 
Q 5425 1550 5487 1625 
Q 5550 1700 5650 2150 
Q 5850 1975 6125 1900 
z
M 3325 1600 
L 1575 1600 
L 1575 2875 
L 3325 2875 
L 3325 1600 
z
M 4875 175 
Q 4700 -325 4575 -412 
Q 4450 -500 4250 -500 
L 2350 -500 
Q 2025 -475 1962 -200 
Q 1900 75 1900 325 
Q 1900 575 1875 925 
L 2400 925 
Q 2375 500 2375 325 
Q 2375 175 2400 25 
Q 2425 -125 2725 -100 
L 3875 -100 
Q 4125 -100 4212 -12 
Q 4300 75 4350 450 
Q 4550 300 4875 175 
z
M 3300 3275 
L 1600 3275 
L 1600 3650 
L 3300 3650 
L 3300 3275 
z
M 5350 900 
Q 5900 225 6075 -50 
Q 5825 -200 5625 -350 
Q 5375 125 4950 600 
Q 5125 725 5350 900 
z
M 475 -175 
Q 700 100 975 925 
Q 1175 825 1450 725 
Q 1125 -25 950 -375 
Q 750 -275 475 -175 
z
M 2925 1950 
L 2925 2525 
L 1975 2525 
L 1975 1950 
L 2925 1950 
z
M 2725 1050 
Q 2875 1175 3100 1325 
Q 3525 775 3650 550 
Q 3450 425 3275 250 
Q 3125 525 2725 1050 
z
M 4900 4500 
Q 4750 4625 4350 4900 
Q 4500 5075 4600 5225 
Q 4775 5125 5200 4800 
Q 5050 4675 4900 4500 
z
" transform="scale(0.015625)"/>
      <path id="SimHei-5668" d="M 275 1925 
Q 775 1925 1212 2000 
Q 1650 2075 1987 2200 
Q 2325 2325 2625 2625 
L 1525 2625 
Q 1250 2625 550 2600 
L 550 3025 
Q 1250 3000 1525 3000 
L 2750 3000 
Q 2825 3225 2800 3550 
Q 3125 3500 3475 3450 
Q 3325 3300 3300 3000 
L 4425 3000 
Q 4250 3175 4075 3300 
L 4425 3550 
Q 4625 3400 4800 3200 
Q 4650 3125 4500 3000 
L 4875 3000 
Q 5425 3000 5875 3025 
L 5875 2600 
Q 5450 2625 4875 2625 
L 3625 2625 
Q 4100 2225 4837 2112 
Q 5575 2000 6100 2050 
Q 5900 1800 5850 1500 
Q 5225 1550 4787 1637 
Q 4350 1725 3987 1900 
Q 3625 2075 3150 2575 
Q 2700 2000 1975 1762 
Q 1250 1525 525 1425 
Q 450 1725 275 1925 
z
M 5025 -575 
L 5025 -100 
L 3825 -100 
L 3825 -550 
L 3400 -550 
Q 3425 0 3425 475 
Q 3425 975 3400 1425 
L 5475 1425 
Q 5450 1125 5450 400 
Q 5450 -300 5475 -575 
L 5025 -575 
z
M 2400 -550 
L 2400 -100 
L 1325 -100 
L 1325 -575 
L 875 -575 
Q 900 -150 900 475 
Q 900 1100 875 1425 
L 2825 1425 
Q 2800 1025 2800 425 
Q 2800 -150 2825 -550 
L 2400 -550 
z
M 5475 5025 
Q 5450 4700 5450 4350 
Q 5450 4000 5475 3625 
L 3375 3625 
Q 3400 4000 3400 4350 
Q 3400 4725 3375 5025 
L 5475 5025 
z
M 2825 5025 
Q 2800 4700 2800 4325 
Q 2800 3975 2825 3625 
L 875 3625 
Q 900 3975 900 4325 
Q 900 4700 875 5025 
L 2825 5025 
z
M 5025 250 
L 5025 1050 
L 3825 1050 
L 3825 250 
L 5025 250 
z
M 2400 250 
L 2400 1050 
L 1325 1050 
L 1325 250 
L 2400 250 
z
M 5025 3975 
L 5025 4675 
L 3825 4675 
L 3825 3975 
L 5025 3975 
z
M 2400 3975 
L 2400 4675 
L 1325 4675 
L 1325 3975 
L 2400 3975 
z
" transform="scale(0.015625)"/>
      <path id="SimHei-566a" d="M 1800 4800 
Q 1775 4250 1775 3675 
L 1775 1950 
Q 1775 1475 1800 875 
L 1350 875 
L 1350 1425 
L 825 1425 
L 825 350 
L 375 350 
Q 400 900 400 1450 
L 400 3675 
Q 400 4250 375 4800 
L 1800 4800 
z
M 5800 -475 
Q 5100 -125 4750 225 
Q 4400 575 4175 1000 
L 4175 225 
Q 4175 -250 4200 -650 
L 3725 -650 
Q 3750 -250 3750 225 
L 3750 1050 
Q 3375 425 2950 75 
Q 2525 -275 2150 -525 
Q 2075 -325 1700 -100 
Q 2100 0 2562 300 
Q 3025 600 3250 1050 
L 2950 1050 
Q 2500 1050 2100 1025 
L 2100 1425 
Q 2500 1400 2950 1400 
L 3750 1400 
Q 3750 1675 3725 1950 
L 4200 1950 
Q 4175 1575 4175 1400 
L 5225 1400 
Q 5575 1400 6025 1425 
L 6025 1025 
Q 5575 1050 5250 1050 
L 4575 1050 
Q 4775 700 5125 450 
Q 5475 200 6175 25 
Q 5900 -200 5800 -475 
z
M 5225 5050 
Q 5175 4725 5175 4375 
Q 5175 4050 5225 3700 
L 2725 3700 
Q 2750 4050 2750 4375 
Q 2750 4725 2725 5050 
L 5225 5050 
z
M 5825 3350 
Q 5800 3025 5800 2675 
Q 5800 2350 5825 2075 
L 4175 2075 
Q 4200 2375 4200 2700 
Q 4200 3050 4175 3350 
L 5825 3350 
z
M 3675 3350 
Q 3650 3050 3650 2700 
Q 3650 2375 3675 2075 
L 2075 2075 
Q 2100 2375 2100 2700 
Q 2100 3050 2075 3350 
L 3675 3350 
z
M 1350 1775 
L 1350 4375 
L 825 4375 
L 825 1775 
L 1350 1775 
z
M 4725 4100 
L 4725 4675 
L 3175 4675 
L 3175 4100 
L 4725 4100 
z
M 5375 2425 
L 5375 3000 
L 4650 3000 
L 4650 2425 
L 5375 2425 
z
M 3200 2450 
L 3200 2975 
L 2525 2975 
L 2525 2450 
L 3200 2450 
z
" transform="scale(0.015625)"/>
      <path id="SimHei-58f0" d="M 5500 2800 
Q 5475 2500 5475 1800 
Q 5475 1100 5500 700 
L 4975 700 
L 4975 1050 
L 1575 1050 
Q 1525 650 1350 262 
Q 1175 -125 750 -650 
Q 550 -400 250 -300 
Q 575 0 762 300 
Q 950 600 1037 962 
Q 1125 1325 1125 1775 
Q 1125 2225 1100 2800 
L 5500 2800 
z
M 3050 4700 
Q 3050 5075 3025 5225 
L 3575 5225 
Q 3550 5075 3550 4700 
L 4900 4700 
Q 5450 4700 5925 4725 
L 5925 4275 
Q 5450 4300 4900 4300 
L 3550 4300 
L 3550 3650 
L 4525 3650 
Q 5075 3650 5575 3675 
L 5575 3225 
Q 5075 3250 4525 3250 
L 1950 3250 
Q 1400 3250 1025 3225 
L 1025 3675 
Q 1425 3650 1925 3650 
L 3050 3650 
L 3050 4300 
L 1675 4300 
Q 1050 4300 625 4275 
L 625 4725 
Q 1075 4700 1675 4700 
L 3050 4700 
z
M 4975 1450 
L 4975 2375 
L 3550 2375 
L 3550 1450 
L 4975 1450 
z
M 3050 1450 
L 3050 2375 
L 1675 2375 
L 1675 1450 
L 3050 1450 
z
" transform="scale(0.015625)"/>
      <path id="SimHei-540e" d="M 5475 2150 
Q 5450 1750 5450 775 
Q 5450 -175 5500 -550 
L 4975 -550 
L 4975 -25 
L 2525 -25 
L 2525 -600 
L 2025 -600 
Q 2050 -175 2050 775 
Q 2050 1750 2025 2150 
L 5475 2150 
z
M 5175 5075 
Q 5300 4800 5525 4525 
Q 4950 4475 3750 4337 
Q 2550 4200 1575 4175 
L 1575 3375 
L 5200 3375 
Q 5550 3375 5975 3400 
L 5975 2900 
Q 5575 2925 5200 2925 
L 1575 2925 
Q 1550 2425 1487 1875 
Q 1425 1325 1250 712 
Q 1075 100 800 -325 
Q 650 -200 225 -50 
Q 625 325 825 1062 
Q 1025 1800 1050 2825 
Q 1075 3850 1075 4575 
Q 2300 4600 3625 4775 
Q 4950 4950 5175 5075 
z
M 4975 375 
L 4975 1725 
L 2525 1725 
L 2525 375 
L 4975 375 
z
" transform="scale(0.015625)"/>
      <path id="SimHei-5404" d="M 5100 4425 
Q 4850 4000 4525 3600 
Q 4200 3200 3675 2750 
Q 4050 2500 4750 2325 
Q 5450 2150 6050 2125 
Q 5825 1825 5775 1600 
Q 5050 1750 4412 1962 
Q 3775 2175 3300 2475 
Q 2750 2150 2000 1875 
Q 1250 1600 550 1425 
Q 475 1625 275 1850 
Q 900 1950 1662 2200 
Q 2425 2450 2950 2750 
Q 2525 3150 2100 3900 
Q 1900 3575 1675 3300 
Q 1450 3025 1250 2800 
Q 1050 3000 850 3100 
Q 1200 3400 1587 3950 
Q 1975 4500 2175 5225 
Q 2450 5075 2725 5000 
Q 2600 4850 2375 4425 
L 5100 4425 
z
M 4975 1675 
Q 4950 1125 4950 400 
Q 4950 -325 4975 -575 
L 4475 -575 
L 4475 -225 
L 2050 -225 
L 2050 -625 
L 1550 -625 
Q 1575 -275 1575 400 
Q 1575 1075 1550 1675 
L 4975 1675 
z
M 4475 200 
L 4475 1250 
L 2050 1250 
L 2050 200 
L 4475 200 
z
M 3325 3000 
Q 3875 3450 4300 4025 
L 2500 4025 
Q 2975 3275 3325 3000 
z
" transform="scale(0.015625)"/>
     </defs>
     <use xlink:href="#SimHei-5f15"/>
     <use xlink:href="#SimHei-5165" transform="translate(100 0)"/>
     <use xlink:href="#SimHei-4f20" transform="translate(200 0)"/>
     <use xlink:href="#SimHei-611f" transform="translate(300 0)"/>
     <use xlink:href="#SimHei-5668" transform="translate(400 0)"/>
     <use xlink:href="#SimHei-566a" transform="translate(500 0)"/>
     <use xlink:href="#SimHei-58f0" transform="translate(600 0)"/>
     <use xlink:href="#SimHei-540e" transform="translate(700 0)"/>
     <use xlink:href="#SimHei-5404" transform="translate(800 0)"/>
     <use xlink:href="#SimHei-65b9" transform="translate(900 0)"/>
     <use xlink:href="#SimHei-6cd5" transform="translate(1000 0)"/>
     <use xlink:href="#SimHei-51c6" transform="translate(1100 0)"/>
     <use xlink:href="#SimHei-786e" transform="translate(1200 0)"/>
     <use xlink:href="#SimHei-7387" transform="translate(1300 0)"/>
     <use xlink:href="#SimHei-4e0b" transform="translate(1400 0)"/>
     <use xlink:href="#SimHei-964d" transform="translate(1500 0)"/>
     <use xlink:href="#SimHei-5e45" transform="translate(1600 0)"/>
     <use xlink:href="#SimHei-5ea6" transform="translate(1700 0)"/>
    </g>
    <!-- （下降越小，鲁棒性越强） -->
    <g transform="translate(220.256094 32.30625) scale(0.13 -0.13)">
     <defs>
      <path id="SimHei-8d8a" d="M 1275 1875 
Q 1225 1525 1175 1125 
Q 1400 825 1750 600 
L 1750 2550 
Q 975 2550 500 2525 
L 500 2925 
Q 975 2900 1625 2900 
L 1625 3850 
Q 1075 3850 700 3825 
L 700 4225 
Q 1075 4200 1625 4200 
Q 1625 4700 1600 5125 
L 2075 5125 
Q 2050 4750 2050 4200 
Q 2475 4200 2850 4225 
L 2850 3825 
Q 2475 3850 2050 3850 
L 2050 2900 
Q 2450 2900 2900 2925 
L 2900 2525 
Q 2475 2550 2175 2550 
L 2175 1700 
Q 2450 1700 2800 1725 
L 2800 1350 
Q 2450 1375 2175 1375 
L 2175 350 
Q 2925 0 4162 -25 
Q 5400 -50 6025 50 
Q 5850 -250 5825 -475 
Q 4900 -475 4137 -462 
Q 3375 -450 2825 -312 
Q 2275 -175 1850 50 
Q 1425 275 1100 650 
Q 925 -75 675 -525 
Q 450 -325 350 -250 
Q 575 175 662 537 
Q 750 900 787 1287 
Q 825 1675 825 2000 
Q 1075 1900 1275 1875 
z
M 4600 5000 
Q 4550 4725 4550 4500 
L 4550 3975 
Q 5350 3975 5825 4000 
L 5825 3625 
Q 5350 3650 4575 3650 
Q 4600 3400 4650 2837 
Q 4700 2275 4800 1875 
Q 5100 2550 5225 3200 
Q 5425 3050 5675 2950 
Q 5550 2800 5400 2387 
Q 5250 1975 5000 1375 
Q 5100 1125 5300 937 
Q 5500 750 5600 1425 
Q 5800 1200 6000 1125 
Q 5800 500 5525 350 
Q 5250 200 4725 1025 
Q 4375 600 4000 225 
Q 3825 400 3625 475 
Q 3850 625 4087 850 
Q 4325 1075 4500 1425 
Q 4300 2075 4175 3650 
L 3550 3650 
L 3550 1525 
Q 3750 1650 4025 1900 
Q 4075 1675 4175 1475 
Q 3975 1325 3737 1150 
Q 3500 975 3250 775 
Q 3150 950 3000 1150 
Q 3150 1250 3150 1475 
L 3150 3200 
Q 3150 3525 3125 3975 
L 4150 3975 
Q 4125 4650 4100 5075 
Q 4375 5000 4600 5000 
z
M 5100 4975 
Q 5300 4800 5750 4425 
Q 5600 4325 5475 4125 
Q 5150 4475 4825 4700 
Q 4975 4825 5100 4975 
z
" transform="scale(0.015625)"/>
      <path id="SimHei-5c0f" d="M 3500 5150 
Q 3475 4800 3475 4200 
L 3475 175 
Q 3475 -300 3225 -425 
Q 2975 -550 2375 -600 
Q 2325 -300 2150 -25 
Q 2700 -25 2837 0 
Q 2975 25 2975 300 
L 2975 4200 
Q 2975 4650 2950 5150 
L 3500 5150 
z
M 2075 3400 
Q 1850 2775 1550 1962 
Q 1250 1150 1025 750 
Q 775 950 500 1000 
Q 925 1750 1175 2487 
Q 1425 3225 1500 3575 
Q 1800 3425 2075 3400 
z
M 4675 3600 
Q 5675 1800 5875 1150 
Q 5625 1100 5375 925 
Q 5000 2000 4225 3325 
Q 4425 3425 4675 3600 
z
" transform="scale(0.015625)"/>
      <path id="SimHei-ff0c" d="M 875 950 
L 1775 950 
L 1775 -50 
Q 1700 -675 1150 -975 
L 900 -750 
Q 1350 -500 1350 0 
L 875 0 
L 875 950 
z
" transform="scale(0.015625)"/>
      <path id="SimHei-9c81" d="M 2800 4950 
Q 2625 4850 2475 4775 
L 4500 4775 
L 4000 3975 
L 5350 3975 
Q 5325 3600 5325 3125 
Q 5325 2675 5350 2350 
L 1175 2350 
Q 1200 2800 1200 3100 
L 1200 3675 
Q 825 3400 550 3250 
Q 475 3400 250 3575 
Q 800 3850 1375 4325 
Q 1950 4800 2325 5275 
Q 2475 5100 2800 4950 
z
M 5275 1400 
Q 5250 1075 5250 750 
L 5250 175 
Q 5250 -125 5275 -625 
L 4800 -625 
L 4800 -400 
L 1750 -400 
L 1750 -650 
L 1250 -650 
Q 1300 -175 1300 175 
L 1300 750 
Q 1300 1100 1275 1400 
L 5275 1400 
z
M 5325 2025 
Q 5675 2025 6150 2075 
L 6150 1650 
Q 5675 1675 5350 1675 
L 1275 1675 
Q 850 1675 375 1650 
L 375 2075 
Q 850 2025 1275 2025 
L 5325 2025 
z
M 4800 -50 
L 4800 325 
L 1750 325 
L 1750 -50 
L 4800 -50 
z
M 4800 675 
L 4800 1050 
L 1750 1050 
L 1750 675 
L 4800 675 
z
M 2150 4425 
Q 1925 4225 1600 3975 
L 3500 3975 
Q 3675 4225 3800 4425 
L 2150 4425 
z
M 4850 3300 
L 4850 3625 
L 3450 3625 
L 3450 3300 
L 4850 3300 
z
M 3000 3300 
L 3000 3625 
L 1675 3625 
L 1675 3300 
L 3000 3300 
z
M 4850 2675 
L 4850 2975 
L 3450 2975 
L 3450 2675 
L 4850 2675 
z
M 3000 2675 
L 3000 2975 
L 1675 2975 
L 1675 2675 
L 3000 2675 
z
" transform="scale(0.015625)"/>
      <path id="SimHei-68d2" d="M 3775 4425 
Q 3875 5050 3850 5200 
L 4400 5125 
Q 4375 5050 4350 5000 
Q 4325 4950 4200 4425 
L 5100 4425 
Q 5325 4425 5750 4450 
L 5750 4050 
Q 5425 4075 5050 4075 
L 4150 4075 
Q 4100 3900 4025 3575 
L 4850 3575 
Q 5275 3575 5500 3600 
L 5500 3200 
Q 5225 3225 4800 3225 
L 3950 3225 
Q 3900 3075 3775 2775 
L 5100 2775 
Q 5675 2775 6000 2800 
L 6000 2425 
Q 5600 2450 5100 2450 
L 4925 2450 
Q 5125 2125 5550 1862 
Q 5975 1600 6200 1550 
Q 5950 1300 5875 1175 
Q 5375 1425 5012 1787 
Q 4650 2150 4500 2450 
L 3675 2450 
Q 3550 2250 3387 2037 
Q 3225 1825 3000 1600 
Q 3350 1575 3575 1575 
L 3825 1575 
Q 3825 1850 3800 2150 
L 4275 2150 
Q 4250 1825 4250 1575 
L 4475 1575 
Q 4700 1575 5175 1600 
L 5175 1200 
Q 4650 1225 4450 1225 
L 4250 1225 
L 4250 700 
L 5025 700 
Q 5500 700 5850 725 
L 5850 325 
Q 5425 350 5025 350 
L 4250 350 
L 4250 175 
Q 4250 -275 4275 -650 
L 3800 -650 
Q 3825 -275 3825 175 
L 3825 350 
L 3225 350 
Q 2750 350 2325 325 
L 2325 725 
Q 2625 700 3200 700 
L 3825 700 
L 3825 1225 
L 3600 1225 
Q 3400 1225 2975 1200 
L 2975 1575 
Q 2775 1400 2250 1050 
Q 2125 1200 1900 1400 
Q 2250 1525 2600 1800 
Q 2950 2075 3200 2450 
L 3025 2450 
Q 2750 2450 2375 2425 
L 2375 2800 
Q 2650 2775 3125 2775 
L 3350 2775 
Q 3475 3050 3525 3225 
L 3275 3225 
Q 3050 3225 2700 3200 
L 2700 3600 
Q 3000 3575 3250 3575 
L 3600 3575 
Q 3675 3875 3700 4075 
L 3275 4075 
Q 2825 4075 2500 4050 
L 2500 4450 
Q 2725 4425 3200 4425 
L 3775 4425 
z
M 1575 375 
Q 1575 -25 1600 -625 
L 1125 -625 
Q 1150 -125 1150 375 
L 1150 2325 
Q 950 1775 500 950 
Q 375 1150 175 1275 
Q 500 1825 725 2387 
Q 950 2950 1050 3425 
Q 625 3425 275 3400 
L 275 3800 
Q 625 3775 1150 3775 
L 1150 4500 
Q 1150 4850 1125 5100 
L 1600 5100 
Q 1575 4825 1575 4500 
L 1575 3775 
Q 1925 3775 2325 3800 
L 2325 3400 
Q 1900 3425 1575 3425 
L 1575 2600 
Q 1700 2675 1875 2850 
Q 2150 2475 2375 2075 
Q 2250 2000 2000 1800 
Q 1825 2175 1575 2525 
L 1575 375 
z
" transform="scale(0.015625)"/>
      <path id="SimHei-6027" d="M 3450 4525 
Q 3325 4075 3275 3750 
L 4050 3750 
L 4050 4275 
Q 4050 4700 4025 5100 
L 4550 5100 
Q 4525 4700 4525 4275 
L 4525 3750 
L 5025 3750 
Q 5350 3750 5800 3775 
L 5800 3300 
Q 5350 3325 5025 3325 
L 4525 3325 
L 4525 2000 
L 4975 2000 
Q 5350 2000 5725 2025 
L 5725 1550 
Q 5350 1575 4975 1575 
L 4525 1575 
L 4525 25 
L 5200 25 
Q 5625 25 6025 50 
L 6025 -400 
Q 5625 -375 5200 -375 
L 3275 -375 
Q 2825 -375 2400 -400 
L 2400 50 
Q 2825 25 3250 25 
L 4050 25 
L 4050 1575 
L 3625 1575 
Q 3300 1575 2875 1550 
L 2875 2025 
Q 3200 2000 3625 2000 
L 4050 2000 
L 4050 3325 
L 3175 3325 
Q 3100 2950 2775 2225 
Q 2500 2375 2325 2400 
Q 2675 3125 2775 3650 
Q 2875 4175 2950 4650 
Q 3200 4575 3450 4525 
z
M 1700 5150 
Q 1675 4650 1675 4175 
L 1675 425 
Q 1675 -100 1700 -625 
L 1175 -625 
Q 1200 -100 1200 425 
L 1200 4175 
Q 1200 4700 1175 5150 
L 1700 5150 
z
M 975 3725 
Q 825 2675 700 2150 
Q 450 2200 250 2250 
Q 425 2900 525 3800 
Q 725 3775 975 3725 
z
M 2125 4025 
Q 2325 3625 2525 3000 
Q 2300 2925 2125 2825 
Q 1950 3375 1750 3850 
Q 1950 3950 2125 4025 
z
" transform="scale(0.015625)"/>
      <path id="SimHei-5f3a" d="M 2350 25 
Q 3100 75 3950 225 
L 3950 1200 
L 3100 1200 
L 3100 975 
L 2625 975 
Q 2650 1725 2650 2050 
L 2650 2875 
L 3950 2875 
L 3950 3500 
L 2850 3500 
Q 2875 3900 2875 4275 
Q 2875 4675 2850 5025 
L 5525 5025 
Q 5500 4675 5500 4275 
Q 5500 3900 5525 3500 
L 4400 3500 
L 4400 2875 
L 5750 2875 
Q 5725 2575 5725 2075 
Q 5725 1575 5750 1200 
L 4400 1200 
L 4400 275 
L 5250 425 
Q 5150 575 5050 750 
Q 5300 825 5475 925 
Q 5925 200 6175 -250 
Q 5925 -350 5725 -500 
Q 5625 -250 5425 100 
Q 5125 50 4225 -137 
Q 3325 -325 2600 -525 
Q 2525 -200 2350 25 
z
M 600 -25 
Q 1250 -25 1400 50 
Q 1550 125 1575 325 
L 1675 1850 
L 500 1850 
Q 550 2350 562 2762 
Q 575 3175 575 3575 
L 1800 3575 
L 1800 4550 
L 1275 4550 
Q 825 4550 425 4525 
L 425 4950 
Q 850 4925 1275 4925 
L 2275 4925 
Q 2250 4525 2250 4075 
Q 2250 3650 2275 3200 
L 1075 3200 
L 1025 2225 
L 2175 2225 
Q 2125 1775 2100 1425 
L 2025 150 
Q 1975 -250 1637 -387 
Q 1300 -525 850 -600 
Q 775 -275 600 -25 
z
M 5050 3875 
L 5050 4650 
L 3325 4650 
L 3325 3875 
L 5050 3875 
z
M 3950 1575 
L 3950 2500 
L 3100 2500 
L 3100 1575 
L 3950 1575 
z
M 5250 1575 
L 5250 2500 
L 4400 2500 
L 4400 1575 
L 5250 1575 
z
" transform="scale(0.015625)"/>
     </defs>
     <use xlink:href="#SimHei-ff08"/>
     <use xlink:href="#SimHei-4e0b" transform="translate(100 0)"/>
     <use xlink:href="#SimHei-964d" transform="translate(200 0)"/>
     <use xlink:href="#SimHei-8d8a" transform="translate(300 0)"/>
     <use xlink:href="#SimHei-5c0f" transform="translate(400 0)"/>
     <use xlink:href="#SimHei-ff0c" transform="translate(500 0)"/>
     <use xlink:href="#SimHei-9c81" transform="translate(600 0)"/>
     <use xlink:href="#SimHei-68d2" transform="translate(700 0)"/>
     <use xlink:href="#SimHei-6027" transform="translate(800 0)"/>
     <use xlink:href="#SimHei-8d8a" transform="translate(900 0)"/>
     <use xlink:href="#SimHei-5f3a" transform="translate(1000 0)"/>
     <use xlink:href="#SimHei-ff09" transform="translate(1100 0)"/>
    </g>
   </g>
  </g>
 </g>
 <defs>
  <clipPath id="pc2f806b3ba">
   <rect x="35.336719" y="42.30625" width="525.83875" height="233.988"/>
  </clipPath>
 </defs>
</svg>
