<?xml version="1.0" encoding="utf-8" standalone="no"?>
<!DOCTYPE svg PUBLIC "-//W3C//DTD SVG 1.1//EN"
  "http://www.w3.org/Graphics/SVG/1.1/DTD/svg11.dtd">
<svg xmlns:xlink="http://www.w3.org/1999/xlink" width="712.6725pt" height="351.541853pt" viewBox="0 0 712.6725 351.541853" xmlns="http://www.w3.org/2000/svg" version="1.1">
 <metadata>
  <rdf:RDF xmlns:dc="http://purl.org/dc/elements/1.1/" xmlns:cc="http://creativecommons.org/ns#" xmlns:rdf="http://www.w3.org/1999/02/22-rdf-syntax-ns#">
   <cc:Work>
    <dc:type rdf:resource="http://purl.org/dc/dcmitype/StillImage"/>
    <dc:date>2026-05-23T14:48:19.484263</dc:date>
    <dc:format>image/svg+xml</dc:format>
    <dc:creator>
     <cc:Agent>
      <dc:title>Matplotlib v3.10.9, https://matplotlib.org/</dc:title>
     </cc:Agent>
    </dc:creator>
   </cc:Work>
  </rdf:RDF>
 </metadata>
 <defs>
  <style type="text/css">*{stroke-linejoin: round; stroke-linecap: butt}</style>
 </defs>
 <g id="figure_1">
  <g id="patch_1">
   <path d="M 0 351.541853 
L 712.6725 351.541853 
L 712.6725 0 
L 0 0 
z
" style="fill: #ffffff"/>
  </g>
  <g id="axes_1">
   <g id="patch_2">
    <path d="M 42.575 262.35918 
L 705.4725 262.35918 
L 705.4725 22.809375 
L 42.575 22.809375 
z
" style="fill: #ffffff"/>
   </g>
   <g id="patch_3">
    <path d="M 72.706705 930.104262 
L 173.14572 930.104262 
L 173.14572 123.120856 
L 72.706705 123.120856 
z
" clip-path="url(#p9a0574e71e)" style="fill: #4c78a8"/>
   </g>
   <g id="patch_4">
    <path d="M 198.255473 930.104262 
L 298.694489 930.104262 
L 298.694489 217.443592 
L 198.255473 217.443592 
z
" clip-path="url(#p9a0574e71e)" style="fill: #4c78a8"/>
   </g>
   <g id="patch_5">
    <path d="M 323.804242 930.104262 
L 424.243258 930.104262 
L 424.243258 69.596446 
L 323.804242 69.596446 
z
" clip-path="url(#p9a0574e71e)" style="fill: #4c78a8"/>
   </g>
   <g id="patch_6">
    <path d="M 449.353011 930.104262 
L 549.792027 930.104262 
L 549.792027 70.719336 
L 449.353011 70.719336 
z
" clip-path="url(#p9a0574e71e)" style="fill: #4c78a8"/>
   </g>
   <g id="patch_7">
    <path d="M 574.90178 930.104262 
L 675.340795 930.104262 
L 675.340795 65.853481 
L 574.90178 65.853481 
z
" clip-path="url(#p9a0574e71e)" style="fill: #4c78a8"/>
   </g>
   <g id="matplotlib.axis_1">
    <g id="xtick_1">
     <g id="line2d_1">
      <defs>
       <path id="mfcfaa0af3d" d="M 0 0 
L 0 3.5 
" style="stroke: #000000; stroke-width: 0.8"/>
      </defs>
      <g>
       <use xlink:href="#mfcfaa0af3d" x="122.926212" y="262.35918" style="stroke: #000000; stroke-width: 0.8"/>
      </g>
     </g>
     <g id="text_1">
      <!-- Raw I-V + RF -->
      <g transform="translate(68.019472 300.947142) rotate(-25) scale(0.1 -0.1)">
       <defs>
        <path id="SimHei-52" d="M 3000 125 
L 2400 125 
L 1500 1975 
L 850 1975 
L 850 125 
L 275 125 
L 275 4400 
L 1525 4400 
Q 2125 4400 2500 4112 
Q 2875 3825 2875 3175 
Q 2875 2675 2625 2400 
Q 2375 2125 2050 2050 
L 3000 125 
z
M 2300 3175 
Q 2300 3525 2087 3725 
Q 1875 3925 1400 3925 
L 850 3925 
L 850 2450 
L 1550 2450 
Q 1850 2450 2075 2612 
Q 2300 2775 2300 3175 
z
" transform="scale(0.015625)"/>
        <path id="SimHei-61" d="M 2875 125 
L 2275 125 
Q 2225 175 2200 262 
Q 2175 350 2175 475 
Q 2000 275 1750 175 
Q 1500 75 1225 75 
Q 825 75 550 275 
Q 275 475 275 850 
Q 275 1225 525 1450 
Q 775 1675 1300 1750 
Q 1650 1800 1912 1875 
Q 2175 1950 2175 2075 
Q 2175 2225 2062 2375 
Q 1950 2525 1575 2525 
Q 1275 2525 1137 2412 
Q 1000 2300 950 2100 
L 400 2100 
Q 450 2500 762 2737 
Q 1075 2975 1575 2975 
Q 2125 2975 2400 2725 
Q 2675 2475 2675 2025 
L 2675 650 
Q 2675 500 2725 375 
Q 2775 250 2875 125 
z
M 2175 1050 
L 2175 1550 
Q 2025 1500 1887 1462 
Q 1750 1425 1425 1375 
Q 1050 1325 937 1200 
Q 825 1075 825 900 
Q 825 750 937 637 
Q 1050 525 1275 525 
Q 1500 525 1762 650 
Q 2025 775 2175 1050 
z
" transform="scale(0.015625)"/>
        <path id="SimHei-77" d="M 3075 2925 
L 2450 75 
L 1975 75 
L 1575 2250 
L 1525 2250 
L 1125 75 
L 650 75 
L 25 2925 
L 550 2925 
L 875 1050 
L 925 1050 
L 1275 2925 
L 1825 2925 
L 2175 1050 
L 2225 1050 
L 2550 2925 
L 3075 2925 
z
" transform="scale(0.015625)"/>
        <path id="SimHei-20" transform="scale(0.015625)"/>
        <path id="SimHei-49" d="M 1850 125 
L 1275 125 
L 1275 4400 
L 1850 4400 
L 1850 125 
z
" transform="scale(0.015625)"/>
        <path id="SimHei-2d" d="M 2975 2125 
L 125 2125 
L 125 2525 
L 2975 2525 
L 2975 2125 
z
" transform="scale(0.015625)"/>
        <path id="SimHei-56" d="M 3050 4400 
L 1800 75 
L 1300 75 
L 50 4400 
L 650 4400 
L 1525 1125 
L 1575 1125 
L 2450 4400 
L 3050 4400 
z
" transform="scale(0.015625)"/>
        <path id="SimHei-2b" d="M 3000 2125 
L 1775 2125 
L 1775 900 
L 1350 900 
L 1350 2125 
L 125 2125 
L 125 2525 
L 1350 2525 
L 1350 3750 
L 1775 3750 
L 1775 2525 
L 3000 2525 
L 3000 2125 
z
" transform="scale(0.015625)"/>
        <path id="SimHei-46" d="M 2925 3925 
L 875 3925 
L 875 2525 
L 2425 2525 
L 2425 2050 
L 875 2050 
L 875 125 
L 300 125 
L 300 4400 
L 2925 4400 
L 2925 3925 
z
" transform="scale(0.015625)"/>
       </defs>
       <use xlink:href="#SimHei-52"/>
       <use xlink:href="#SimHei-61" transform="translate(50 0)"/>
       <use xlink:href="#SimHei-77" transform="translate(100 0)"/>
       <use xlink:href="#SimHei-20" transform="translate(150 0)"/>
       <use xlink:href="#SimHei-49" transform="translate(200 0)"/>
       <use xlink:href="#SimHei-2d" transform="translate(250 0)"/>
       <use xlink:href="#SimHei-56" transform="translate(300 0)"/>
       <use xlink:href="#SimHei-20" transform="translate(350 0)"/>
       <use xlink:href="#SimHei-2b" transform="translate(400 0)"/>
       <use xlink:href="#SimHei-20" transform="translate(450 0)"/>
       <use xlink:href="#SimHei-52" transform="translate(500 0)"/>
       <use xlink:href="#SimHei-46" transform="translate(550 0)"/>
      </g>
     </g>
    </g>
    <g id="xtick_2">
     <g id="line2d_2">
      <g>
       <use xlink:href="#mfcfaa0af3d" x="248.474981" y="262.35918" style="stroke: #000000; stroke-width: 0.8"/>
      </g>
     </g>
     <g id="text_2">
      <!-- I-V Features + RF -->
      <g transform="translate(170.910546 311.512598) rotate(-25) scale(0.1 -0.1)">
       <defs>
        <path id="SimHei-65" d="M 2850 1075 
Q 2800 625 2450 350 
Q 2100 75 1625 75 
Q 1025 75 637 462 
Q 250 850 250 1525 
Q 250 2200 637 2587 
Q 1025 2975 1625 2975 
Q 2150 2975 2487 2637 
Q 2825 2300 2825 1525 
L 800 1525 
Q 800 975 1037 750 
Q 1275 525 1625 525 
Q 1900 525 2075 662 
Q 2250 800 2300 1075 
L 2850 1075 
z
M 2250 1925 
Q 2200 2275 2025 2412 
Q 1850 2550 1575 2550 
Q 1325 2550 1125 2412 
Q 925 2275 825 1925 
L 2250 1925 
z
" transform="scale(0.015625)"/>
        <path id="SimHei-74" d="M 2750 200 
Q 2625 150 2462 112 
Q 2300 75 2025 75 
Q 1575 75 1300 325 
Q 1025 575 1025 1025 
L 1025 2525 
L 175 2525 
L 175 2925 
L 1025 2925 
L 1025 3900 
L 1525 3900 
L 1525 2925 
L 2550 2925 
L 2550 2525 
L 1525 2525 
L 1525 1000 
Q 1525 800 1625 662 
Q 1725 525 2000 525 
Q 2275 525 2450 575 
Q 2625 625 2750 700 
L 2750 200 
z
" transform="scale(0.015625)"/>
        <path id="SimHei-75" d="M 2800 125 
L 2300 125 
L 2300 650 
Q 2100 375 1862 225 
Q 1625 75 1250 75 
Q 800 75 575 325 
Q 350 575 350 950 
L 350 2925 
L 850 2925 
L 850 1125 
Q 850 825 1000 650 
Q 1150 475 1400 475 
Q 1725 475 2012 812 
Q 2300 1150 2300 1650 
L 2300 2925 
L 2800 2925 
L 2800 125 
z
" transform="scale(0.015625)"/>
        <path id="SimHei-72" d="M 2500 2425 
Q 2025 2500 1700 2287 
Q 1375 2075 1150 1550 
L 1150 125 
L 650 125 
L 650 2925 
L 1150 2925 
L 1150 2200 
Q 1375 2600 1712 2787 
Q 2050 2975 2500 2975 
L 2500 2425 
z
" transform="scale(0.015625)"/>
        <path id="SimHei-73" d="M 2750 900 
Q 2750 500 2437 287 
Q 2125 75 1650 75 
Q 1050 75 725 312 
Q 400 550 400 1000 
L 900 1000 
Q 900 700 1112 600 
Q 1325 500 1625 500 
Q 1925 500 2075 612 
Q 2225 725 2225 900 
Q 2225 1025 2100 1150 
Q 1975 1275 1475 1350 
Q 900 1425 687 1637 
Q 475 1850 475 2200 
Q 475 2500 762 2737 
Q 1050 2975 1600 2975 
Q 2100 2975 2387 2750 
Q 2675 2525 2675 2150 
L 2175 2150 
Q 2175 2375 2012 2462 
Q 1850 2550 1600 2550 
Q 1275 2550 1137 2437 
Q 1000 2325 1000 2175 
Q 1000 2000 1125 1900 
Q 1250 1800 1650 1750 
Q 2300 1650 2525 1437 
Q 2750 1225 2750 900 
z
" transform="scale(0.015625)"/>
       </defs>
       <use xlink:href="#SimHei-49"/>
       <use xlink:href="#SimHei-2d" transform="translate(50 0)"/>
       <use xlink:href="#SimHei-56" transform="translate(100 0)"/>
       <use xlink:href="#SimHei-20" transform="translate(150 0)"/>
       <use xlink:href="#SimHei-46" transform="translate(200 0)"/>
       <use xlink:href="#SimHei-65" transform="translate(250 0)"/>
       <use xlink:href="#SimHei-61" transform="translate(300 0)"/>
       <use xlink:href="#SimHei-74" transform="translate(350 0)"/>
       <use xlink:href="#SimHei-75" transform="translate(400 0)"/>
       <use xlink:href="#SimHei-72" transform="translate(450 0)"/>
       <use xlink:href="#SimHei-65" transform="translate(500 0)"/>
       <use xlink:href="#SimHei-73" transform="translate(550 0)"/>
       <use xlink:href="#SimHei-20" transform="translate(600 0)"/>
       <use xlink:href="#SimHei-2b" transform="translate(650 0)"/>
       <use xlink:href="#SimHei-20" transform="translate(700 0)"/>
       <use xlink:href="#SimHei-52" transform="translate(750 0)"/>
       <use xlink:href="#SimHei-46" transform="translate(800 0)"/>
      </g>
     </g>
    </g>
    <g id="xtick_3">
     <g id="line2d_3">
      <g>
       <use xlink:href="#mfcfaa0af3d" x="374.02375" y="262.35918" style="stroke: #000000; stroke-width: 0.8"/>
      </g>
     </g>
     <g id="text_3">
      <!-- PINN Params + RF -->
      <g transform="translate(300.990854 309.399507) rotate(-25) scale(0.1 -0.1)">
       <defs>
        <path id="SimHei-50" d="M 2950 3100 
Q 2950 2500 2600 2150 
Q 2250 1800 1625 1800 
L 900 1800 
L 900 125 
L 325 125 
L 325 4400 
L 1625 4400 
Q 2250 4400 2600 4050 
Q 2950 3700 2950 3100 
z
M 2375 3100 
Q 2375 3575 2150 3750 
Q 1925 3925 1475 3925 
L 900 3925 
L 900 2275 
L 1475 2275 
Q 1925 2275 2150 2450 
Q 2375 2625 2375 3100 
z
" transform="scale(0.015625)"/>
        <path id="SimHei-4e" d="M 2850 125 
L 2225 125 
L 850 3225 
L 825 3225 
L 825 125 
L 250 125 
L 250 4400 
L 875 4400 
L 2250 1300 
L 2275 1300 
L 2275 4400 
L 2850 4400 
L 2850 125 
z
" transform="scale(0.015625)"/>
        <path id="SimHei-6d" d="M 3050 125 
L 2550 125 
L 2550 2150 
Q 2550 2300 2500 2400 
Q 2450 2500 2300 2500 
Q 2125 2500 1975 2312 
Q 1825 2125 1825 1825 
L 1825 125 
L 1325 125 
L 1325 2150 
Q 1325 2300 1275 2400 
Q 1225 2500 1075 2500 
Q 900 2500 750 2312 
Q 600 2125 600 1825 
L 600 125 
L 100 125 
L 100 2925 
L 600 2925 
L 600 2550 
Q 725 2750 900 2862 
Q 1075 2975 1275 2975 
Q 1475 2975 1612 2862 
Q 1750 2750 1800 2550 
Q 1925 2750 2087 2862 
Q 2250 2975 2450 2975 
Q 2750 2975 2900 2812 
Q 3050 2650 3050 2350 
L 3050 125 
z
" transform="scale(0.015625)"/>
       </defs>
       <use xlink:href="#SimHei-50"/>
       <use xlink:href="#SimHei-49" transform="translate(50 0)"/>
       <use xlink:href="#SimHei-4e" transform="translate(100 0)"/>
       <use xlink:href="#SimHei-4e" transform="translate(150 0)"/>
       <use xlink:href="#SimHei-20" transform="translate(200 0)"/>
       <use xlink:href="#SimHei-50" transform="translate(250 0)"/>
       <use xlink:href="#SimHei-61" transform="translate(300 0)"/>
       <use xlink:href="#SimHei-72" transform="translate(350 0)"/>
       <use xlink:href="#SimHei-61" transform="translate(400 0)"/>
       <use xlink:href="#SimHei-6d" transform="translate(450 0)"/>
       <use xlink:href="#SimHei-73" transform="translate(500 0)"/>
       <use xlink:href="#SimHei-20" transform="translate(550 0)"/>
       <use xlink:href="#SimHei-2b" transform="translate(600 0)"/>
       <use xlink:href="#SimHei-20" transform="translate(650 0)"/>
       <use xlink:href="#SimHei-52" transform="translate(700 0)"/>
       <use xlink:href="#SimHei-46" transform="translate(750 0)"/>
      </g>
     </g>
    </g>
    <g id="xtick_4">
     <g id="line2d_4">
      <g>
       <use xlink:href="#mfcfaa0af3d" x="499.572519" y="262.35918" style="stroke: #000000; stroke-width: 0.8"/>
      </g>
     </g>
     <g id="text_4">
      <!-- PINN Params + I-V Features + RF -->
      <g transform="translate(358.566539 341.095877) rotate(-25) scale(0.1 -0.1)">
       <use xlink:href="#SimHei-50"/>
       <use xlink:href="#SimHei-49" transform="translate(50 0)"/>
       <use xlink:href="#SimHei-4e" transform="translate(100 0)"/>
       <use xlink:href="#SimHei-4e" transform="translate(150 0)"/>
       <use xlink:href="#SimHei-20" transform="translate(200 0)"/>
       <use xlink:href="#SimHei-50" transform="translate(250 0)"/>
       <use xlink:href="#SimHei-61" transform="translate(300 0)"/>
       <use xlink:href="#SimHei-72" transform="translate(350 0)"/>
       <use xlink:href="#SimHei-61" transform="translate(400 0)"/>
       <use xlink:href="#SimHei-6d" transform="translate(450 0)"/>
       <use xlink:href="#SimHei-73" transform="translate(500 0)"/>
       <use xlink:href="#SimHei-20" transform="translate(550 0)"/>
       <use xlink:href="#SimHei-2b" transform="translate(600 0)"/>
       <use xlink:href="#SimHei-20" transform="translate(650 0)"/>
       <use xlink:href="#SimHei-49" transform="translate(700 0)"/>
       <use xlink:href="#SimHei-2d" transform="translate(750 0)"/>
       <use xlink:href="#SimHei-56" transform="translate(800 0)"/>
       <use xlink:href="#SimHei-20" transform="translate(850 0)"/>
       <use xlink:href="#SimHei-46" transform="translate(900 0)"/>
       <use xlink:href="#SimHei-65" transform="translate(950 0)"/>
       <use xlink:href="#SimHei-61" transform="translate(1000 0)"/>
       <use xlink:href="#SimHei-74" transform="translate(1050 0)"/>
       <use xlink:href="#SimHei-75" transform="translate(1100 0)"/>
       <use xlink:href="#SimHei-72" transform="translate(1150 0)"/>
       <use xlink:href="#SimHei-65" transform="translate(1200 0)"/>
       <use xlink:href="#SimHei-73" transform="translate(1250 0)"/>
       <use xlink:href="#SimHei-20" transform="translate(1300 0)"/>
       <use xlink:href="#SimHei-2b" transform="translate(1350 0)"/>
       <use xlink:href="#SimHei-20" transform="translate(1400 0)"/>
       <use xlink:href="#SimHei-52" transform="translate(1450 0)"/>
       <use xlink:href="#SimHei-46" transform="translate(1500 0)"/>
      </g>
     </g>
    </g>
    <g id="xtick_5">
     <g id="line2d_5">
      <g>
       <use xlink:href="#mfcfaa0af3d" x="625.121288" y="262.35918" style="stroke: #000000; stroke-width: 0.8"/>
      </g>
     </g>
     <g id="text_5">
      <!-- PINN Params + I-V Features + SVM -->
      <g transform="translate(479.583769 343.208968) rotate(-25) scale(0.1 -0.1)">
       <defs>
        <path id="SimHei-53" d="M 2900 1325 
Q 2900 750 2537 412 
Q 2175 75 1550 75 
Q 925 75 575 425 
Q 225 775 225 1300 
L 225 1475 
L 800 1475 
L 800 1325 
Q 800 950 1025 750 
Q 1250 550 1550 550 
Q 1950 550 2137 762 
Q 2325 975 2325 1275 
Q 2325 1525 2100 1737 
Q 1875 1950 1450 2125 
Q 850 2350 587 2625 
Q 325 2900 325 3275 
Q 325 3800 687 4125 
Q 1050 4450 1550 4450 
Q 2200 4450 2487 4062 
Q 2775 3675 2775 3225 
L 2200 3225 
Q 2225 3500 2050 3725 
Q 1875 3950 1550 3950 
Q 1250 3950 1075 3787 
Q 900 3625 900 3350 
Q 900 3125 1037 2962 
Q 1175 2800 1750 2575 
Q 2300 2350 2600 2037 
Q 2900 1725 2900 1325 
z
" transform="scale(0.015625)"/>
        <path id="SimHei-4d" d="M 2925 125 
L 2425 125 
L 2425 3175 
L 2375 3175 
L 1775 125 
L 1375 125 
L 775 3175 
L 725 3175 
L 725 125 
L 225 125 
L 225 4400 
L 1000 4400 
L 1550 1575 
L 1600 1575 
L 2150 4400 
L 2925 4400 
L 2925 125 
z
" transform="scale(0.015625)"/>
       </defs>
       <use xlink:href="#SimHei-50"/>
       <use xlink:href="#SimHei-49" transform="translate(50 0)"/>
       <use xlink:href="#SimHei-4e" transform="translate(100 0)"/>
       <use xlink:href="#SimHei-4e" transform="translate(150 0)"/>
       <use xlink:href="#SimHei-20" transform="translate(200 0)"/>
       <use xlink:href="#SimHei-50" transform="translate(250 0)"/>
       <use xlink:href="#SimHei-61" transform="translate(300 0)"/>
       <use xlink:href="#SimHei-72" transform="translate(350 0)"/>
       <use xlink:href="#SimHei-61" transform="translate(400 0)"/>
       <use xlink:href="#SimHei-6d" transform="translate(450 0)"/>
       <use xlink:href="#SimHei-73" transform="translate(500 0)"/>
       <use xlink:href="#SimHei-20" transform="translate(550 0)"/>
       <use xlink:href="#SimHei-2b" transform="translate(600 0)"/>
       <use xlink:href="#SimHei-20" transform="translate(650 0)"/>
       <use xlink:href="#SimHei-49" transform="translate(700 0)"/>
       <use xlink:href="#SimHei-2d" transform="translate(750 0)"/>
       <use xlink:href="#SimHei-56" transform="translate(800 0)"/>
       <use xlink:href="#SimHei-20" transform="translate(850 0)"/>
       <use xlink:href="#SimHei-46" transform="translate(900 0)"/>
       <use xlink:href="#SimHei-65" transform="translate(950 0)"/>
       <use xlink:href="#SimHei-61" transform="translate(1000 0)"/>
       <use xlink:href="#SimHei-74" transform="translate(1050 0)"/>
       <use xlink:href="#SimHei-75" transform="translate(1100 0)"/>
       <use xlink:href="#SimHei-72" transform="translate(1150 0)"/>
       <use xlink:href="#SimHei-65" transform="translate(1200 0)"/>
       <use xlink:href="#SimHei-73" transform="translate(1250 0)"/>
       <use xlink:href="#SimHei-20" transform="translate(1300 0)"/>
       <use xlink:href="#SimHei-2b" transform="translate(1350 0)"/>
       <use xlink:href="#SimHei-20" transform="translate(1400 0)"/>
       <use xlink:href="#SimHei-53" transform="translate(1450 0)"/>
       <use xlink:href="#SimHei-56" transform="translate(1500 0)"/>
       <use xlink:href="#SimHei-4d" transform="translate(1550 0)"/>
      </g>
     </g>
    </g>
   </g>
   <g id="matplotlib.axis_2">
    <g id="ytick_1">
     <g id="line2d_6">
      <path d="M 42.575 256.370435 
L 705.4725 256.370435 
" clip-path="url(#p9a0574e71e)" style="fill: none; stroke-dasharray: 2.96,1.28; stroke-dashoffset: 0; stroke: #b0b0b0; stroke-opacity: 0.4; stroke-width: 0.8"/>
     </g>
     <g id="line2d_7">
      <defs>
       <path id="m9a520c4bfb" d="M 0 0 
L -3.5 0 
" style="stroke: #000000; stroke-width: 0.8"/>
      </defs>
      <g>
       <use xlink:href="#m9a520c4bfb" x="42.575" y="256.370435" style="stroke: #000000; stroke-width: 0.8"/>
      </g>
     </g>
     <g id="text_6">
      <!-- 75 -->
      <g transform="translate(25.575 259.807935) scale(0.1 -0.1)">
       <defs>
        <path id="SimHei-37" d="M 850 150 
Q 1300 2050 2425 3925 
L 275 3925 
L 275 4375 
L 2950 4375 
L 2950 3950 
Q 1775 2050 1400 150 
L 850 150 
z
" transform="scale(0.015625)"/>
        <path id="SimHei-35" d="M 550 1325 
Q 725 650 1150 575 
Q 1575 500 1837 662 
Q 2100 825 2212 1087 
Q 2325 1350 2312 1675 
Q 2300 2000 2137 2225 
Q 1975 2450 1725 2525 
Q 1475 2600 1162 2525 
Q 850 2450 650 2175 
L 225 2225 
Q 275 2375 700 4375 
L 2675 4375 
L 2675 3925 
L 1075 3925 
Q 950 3250 825 2850 
Q 1200 3025 1525 3012 
Q 1850 3000 2150 2862 
Q 2450 2725 2587 2487 
Q 2725 2250 2787 2012 
Q 2850 1775 2837 1500 
Q 2825 1225 2725 937 
Q 2625 650 2425 462 
Q 2225 275 1937 162 
Q 1650 50 1275 75 
Q 900 100 562 350 
Q 225 600 100 1200 
L 550 1325 
z
" transform="scale(0.015625)"/>
       </defs>
       <use xlink:href="#SimHei-37"/>
       <use xlink:href="#SimHei-35" transform="translate(50 0)"/>
      </g>
     </g>
    </g>
    <g id="ytick_2">
     <g id="line2d_8">
      <path d="M 42.575 211.454847 
L 705.4725 211.454847 
" clip-path="url(#p9a0574e71e)" style="fill: none; stroke-dasharray: 2.96,1.28; stroke-dashoffset: 0; stroke: #b0b0b0; stroke-opacity: 0.4; stroke-width: 0.8"/>
     </g>
     <g id="line2d_9">
      <g>
       <use xlink:href="#m9a520c4bfb" x="42.575" y="211.454847" style="stroke: #000000; stroke-width: 0.8"/>
      </g>
     </g>
     <g id="text_7">
      <!-- 80 -->
      <g transform="translate(25.575 214.892347) scale(0.1 -0.1)">
       <defs>
        <path id="SimHei-38" d="M 175 1375 
Q 175 1675 325 1962 
Q 475 2250 825 2425 
Q 525 2600 425 2812 
Q 325 3025 312 3300 
Q 300 3575 387 3775 
Q 475 3975 650 4150 
Q 825 4325 1037 4387 
Q 1250 4450 1500 4450 
Q 1750 4450 1950 4400 
Q 2150 4350 2375 4187 
Q 2600 4025 2700 3725 
Q 2800 3425 2687 3025 
Q 2575 2625 2100 2400 
Q 2525 2275 2700 2012 
Q 2875 1750 2875 1375 
Q 2875 1000 2762 775 
Q 2650 550 2512 400 
Q 2375 250 2137 162 
Q 1900 75 1537 75 
Q 1175 75 912 162 
Q 650 250 475 425 
Q 300 600 237 837 
Q 175 1075 175 1375 
z
M 687 1400 
Q 675 1100 787 875 
Q 900 650 1200 587 
Q 1500 525 1825 600 
Q 2150 675 2275 950 
Q 2400 1225 2362 1500 
Q 2325 1775 2050 1962 
Q 1775 2150 1450 2125 
Q 1125 2100 912 1900 
Q 700 1700 687 1400 
z
M 775 3350 
Q 775 3100 950 2875 
Q 1125 2650 1500 2650 
Q 1875 2650 2062 2875 
Q 2250 3100 2237 3412 
Q 2225 3725 2012 3875 
Q 1800 4025 1437 4000 
Q 1075 3975 925 3787 
Q 775 3600 775 3350 
z
" transform="scale(0.015625)"/>
        <path id="SimHei-30" d="M 225 2537 
Q 250 3200 412 3587 
Q 575 3975 875 4225 
Q 1175 4475 1612 4475 
Q 2050 4475 2375 4112 
Q 2700 3750 2800 3200 
Q 2900 2650 2862 1937 
Q 2825 1225 2612 775 
Q 2400 325 1975 150 
Q 1550 -25 1125 187 
Q 700 400 525 750 
Q 350 1100 275 1487 
Q 200 1875 225 2537 
z
M 750 2687 
Q 675 2000 800 1462 
Q 925 925 1212 700 
Q 1500 475 1800 612 
Q 2100 750 2237 1162 
Q 2375 1575 2375 2062 
Q 2375 2550 2337 2950 
Q 2300 3350 2112 3675 
Q 1925 4000 1612 4012 
Q 1300 4025 1062 3700 
Q 825 3375 750 2687 
z
" transform="scale(0.015625)"/>
       </defs>
       <use xlink:href="#SimHei-38"/>
       <use xlink:href="#SimHei-30" transform="translate(50 0)"/>
      </g>
     </g>
    </g>
    <g id="ytick_3">
     <g id="line2d_10">
      <path d="M 42.575 166.539258 
L 705.4725 166.539258 
" clip-path="url(#p9a0574e71e)" style="fill: none; stroke-dasharray: 2.96,1.28; stroke-dashoffset: 0; stroke: #b0b0b0; stroke-opacity: 0.4; stroke-width: 0.8"/>
     </g>
     <g id="line2d_11">
      <g>
       <use xlink:href="#m9a520c4bfb" x="42.575" y="166.539258" style="stroke: #000000; stroke-width: 0.8"/>
      </g>
     </g>
     <g id="text_8">
      <!-- 85 -->
      <g transform="translate(25.575 169.976758) scale(0.1 -0.1)">
       <use xlink:href="#SimHei-38"/>
       <use xlink:href="#SimHei-35" transform="translate(50 0)"/>
      </g>
     </g>
    </g>
    <g id="ytick_4">
     <g id="line2d_12">
      <path d="M 42.575 121.62367 
L 705.4725 121.62367 
" clip-path="url(#p9a0574e71e)" style="fill: none; stroke-dasharray: 2.96,1.28; stroke-dashoffset: 0; stroke: #b0b0b0; stroke-opacity: 0.4; stroke-width: 0.8"/>
     </g>
     <g id="line2d_13">
      <g>
       <use xlink:href="#m9a520c4bfb" x="42.575" y="121.62367" style="stroke: #000000; stroke-width: 0.8"/>
      </g>
     </g>
     <g id="text_9">
      <!-- 90 -->
      <g transform="translate(25.575 125.06117) scale(0.1 -0.1)">
       <defs>
        <path id="SimHei-39" d="M 800 75 
Q 1350 1000 1700 1750 
Q 1075 1650 662 1912 
Q 250 2175 162 2625 
Q 75 3075 175 3437 
Q 275 3800 487 4037 
Q 700 4275 1000 4375 
Q 1300 4475 1537 4475 
Q 1775 4475 2025 4375 
Q 2275 4275 2475 4075 
Q 2675 3875 2750 3662 
Q 2825 3450 2825 3112 
Q 2825 2775 2575 2250 
Q 2325 1725 1350 75 
L 800 75 
z
M 662 2875 
Q 700 2550 937 2337 
Q 1175 2125 1450 2150 
Q 1725 2175 1887 2300 
Q 2050 2425 2200 2725 
Q 2300 3100 2250 3362 
Q 2200 3625 1987 3800 
Q 1775 3975 1525 3975 
Q 1375 4000 1137 3900 
Q 900 3800 762 3500 
Q 625 3200 662 2875 
z
" transform="scale(0.015625)"/>
       </defs>
       <use xlink:href="#SimHei-39"/>
       <use xlink:href="#SimHei-30" transform="translate(50 0)"/>
      </g>
     </g>
    </g>
    <g id="ytick_5">
     <g id="line2d_14">
      <path d="M 42.575 76.708081 
L 705.4725 76.708081 
" clip-path="url(#p9a0574e71e)" style="fill: none; stroke-dasharray: 2.96,1.28; stroke-dashoffset: 0; stroke: #b0b0b0; stroke-opacity: 0.4; stroke-width: 0.8"/>
     </g>
     <g id="line2d_15">
      <g>
       <use xlink:href="#m9a520c4bfb" x="42.575" y="76.708081" style="stroke: #000000; stroke-width: 0.8"/>
      </g>
     </g>
     <g id="text_10">
      <!-- 95 -->
      <g transform="translate(25.575 80.145581) scale(0.1 -0.1)">
       <use xlink:href="#SimHei-39"/>
       <use xlink:href="#SimHei-35" transform="translate(50 0)"/>
      </g>
     </g>
    </g>
    <g id="ytick_6">
     <g id="line2d_16">
      <path d="M 42.575 31.792493 
L 705.4725 31.792493 
" clip-path="url(#p9a0574e71e)" style="fill: none; stroke-dasharray: 2.96,1.28; stroke-dashoffset: 0; stroke: #b0b0b0; stroke-opacity: 0.4; stroke-width: 0.8"/>
     </g>
     <g id="line2d_17">
      <g>
       <use xlink:href="#m9a520c4bfb" x="42.575" y="31.792493" style="stroke: #000000; stroke-width: 0.8"/>
      </g>
     </g>
     <g id="text_11">
      <!-- 100 -->
      <g transform="translate(20.575 35.229993) scale(0.1 -0.1)">
       <defs>
        <path id="SimHei-31" d="M 1400 3600 
Q 1075 3275 575 2975 
L 575 3450 
Q 1200 3875 1600 4450 
L 1900 4450 
L 1900 150 
L 1400 150 
L 1400 3600 
z
" transform="scale(0.015625)"/>
       </defs>
       <use xlink:href="#SimHei-31"/>
       <use xlink:href="#SimHei-30" transform="translate(50 0)"/>
       <use xlink:href="#SimHei-30" transform="translate(100 0)"/>
      </g>
     </g>
    </g>
    <g id="text_12">
     <!-- 诊断准确率 (%) -->
     <g transform="translate(15.325 177.584278) rotate(-90) scale(0.1 -0.1)">
      <defs>
       <path id="SimHei-8bca" d="M 1875 2875 
Q 2250 3075 2537 3325 
Q 2825 3575 3050 3900 
Q 3275 4225 3425 4562 
Q 3575 4900 3700 5275 
Q 4000 5175 4375 5075 
L 4300 4850 
Q 4550 4175 5037 3787 
Q 5525 3400 6150 3275 
Q 5925 3125 5750 2725 
Q 4975 3100 4525 3650 
Q 4075 4200 3975 4550 
Q 3750 4125 3450 3637 
Q 3150 3150 2425 2525 
Q 2275 2650 1875 2875 
z
M 2100 1275 
Q 2250 1125 2425 875 
Q 2150 525 1887 250 
Q 1625 -25 1350 -425 
Q 1100 -250 875 -75 
Q 1000 25 1075 150 
Q 1150 275 1150 475 
L 1150 2775 
L 950 2775 
Q 625 2775 250 2750 
L 250 3200 
Q 600 3175 950 3175 
L 1700 3175 
Q 1650 2725 1650 2200 
L 1650 775 
Q 1925 1075 2100 1275 
z
M 2475 -200 
Q 2975 -150 3437 25 
Q 3900 200 4287 462 
Q 4675 725 4975 1037 
Q 5275 1350 5550 1675 
Q 5725 1425 6025 1225 
Q 5775 1075 5525 837 
Q 5275 600 4975 337 
Q 4675 75 4087 -200 
Q 3500 -475 2800 -700 
Q 2725 -425 2475 -200 
z
M 2750 975 
Q 3425 1200 4000 1687 
Q 4575 2175 4800 2675 
Q 5050 2450 5275 2250 
Q 5000 1975 4662 1612 
Q 4325 1250 3875 950 
Q 3425 650 3125 500 
Q 2975 725 2750 975 
z
M 4500 3050 
Q 4100 2650 3700 2287 
Q 3300 1925 2875 1625 
Q 2675 1850 2500 2050 
Q 2900 2225 3325 2575 
Q 3750 2925 4075 3425 
Q 4250 3250 4500 3050 
z
M 1075 5125 
Q 1425 4800 1900 4200 
Q 1675 4025 1500 3825 
Q 1050 4450 675 4825 
Q 850 4975 1075 5125 
z
" transform="scale(0.015625)"/>
       <path id="SimHei-65ad" d="M 3800 4600 
Q 4400 4600 4925 4687 
Q 5450 4775 5700 4900 
Q 5775 4700 6000 4375 
Q 5750 4375 5337 4337 
Q 4925 4300 4275 4250 
L 4275 3050 
L 5575 3050 
Q 5775 3050 6075 3075 
L 6075 2625 
Q 5750 2650 5500 2650 
L 5500 225 
Q 5500 -200 5550 -550 
L 5025 -550 
Q 5075 -125 5075 300 
L 5075 2650 
L 4275 2650 
Q 4275 2000 4225 1475 
Q 4175 950 4075 537 
Q 3975 125 3475 -600 
Q 3275 -450 3050 -350 
Q 3500 200 3650 725 
Q 3800 1250 3825 1800 
Q 3850 2350 3850 3250 
Q 3850 4150 3800 4600 
z
M 2600 5150 
Q 2575 4875 2575 4400 
L 2575 3225 
Q 3050 3225 3450 3250 
L 3450 2800 
Q 3075 2850 2575 2850 
L 2575 1450 
Q 2575 1000 2600 675 
L 2100 675 
Q 2125 1400 2125 2225 
Q 1850 1525 1450 1000 
Q 1250 1175 1075 1300 
Q 1700 2075 1925 2850 
Q 1700 2850 1225 2825 
L 1225 3250 
Q 1575 3225 2125 3225 
L 2125 4375 
Q 2125 4875 2100 5150 
L 2600 5150 
z
M 1000 475 
L 2550 475 
Q 2950 475 3300 500 
L 3300 50 
Q 2950 75 2325 75 
L 500 75 
Q 525 450 525 950 
L 525 3850 
Q 525 4300 500 4650 
L 1025 4650 
Q 1000 4300 1000 3950 
L 1000 475 
z
M 2975 2550 
Q 3275 2025 3625 1525 
L 3225 1225 
Q 3000 1725 2625 2325 
Q 2750 2425 2975 2550 
z
M 3625 4550 
Q 3450 4350 3350 4087 
Q 3250 3825 3125 3550 
Q 2925 3650 2700 3725 
Q 3000 4225 3125 4775 
Q 3375 4650 3625 4550 
z
M 1200 4675 
Q 1450 4700 1675 4725 
Q 1800 3950 1850 3675 
Q 1675 3650 1400 3600 
Q 1375 3875 1200 4675 
z
" transform="scale(0.015625)"/>
       <path id="SimHei-51c6" d="M 1600 2775 
Q 1900 3050 2275 3787 
Q 2650 4525 2800 5175 
Q 3075 5050 3400 4950 
Q 3250 4775 3000 4100 
L 4825 4100 
Q 5400 4100 5875 4125 
L 5875 3675 
Q 5375 3700 4825 3700 
L 4525 3700 
L 4525 2850 
Q 5250 2850 5700 2875 
L 5700 2425 
Q 5250 2450 4525 2450 
L 4525 1600 
Q 5275 1600 5700 1625 
L 5700 1200 
Q 5275 1225 4525 1225 
L 4525 375 
Q 5575 375 6050 400 
L 6050 -100 
Q 5575 -75 4975 -75 
L 2950 -75 
L 2950 -600 
L 2425 -600 
Q 2450 -150 2450 675 
L 2450 3050 
Q 2300 2775 2075 2400 
Q 1875 2650 1600 2775 
z
M 1675 2050 
Q 1425 1425 1200 850 
Q 975 275 775 -125 
Q 550 50 275 200 
Q 550 650 775 1112 
Q 1000 1575 1225 2300 
Q 1400 2125 1675 2050 
z
M 4025 1600 
L 4025 2450 
L 2950 2450 
L 2950 1600 
L 4025 1600 
z
M 4025 2850 
L 4025 3700 
L 2950 3700 
L 2950 2850 
L 4025 2850 
z
M 4025 375 
L 4025 1225 
L 2950 1225 
L 2950 375 
L 4025 375 
z
M 725 4775 
Q 850 4625 1162 4312 
Q 1475 4000 1750 3700 
Q 1525 3475 1375 3300 
Q 1100 3700 350 4450 
Q 550 4600 725 4775 
z
M 4150 5225 
Q 4600 4800 4800 4500 
Q 4625 4400 4400 4200 
Q 4225 4500 3775 4925 
Q 3925 5000 4150 5225 
z
" transform="scale(0.015625)"/>
       <path id="SimHei-786e" d="M 4975 -200 
Q 5250 -175 5362 -125 
Q 5475 -75 5475 125 
L 5475 975 
L 4625 975 
L 4625 -400 
L 4200 -400 
L 4200 975 
L 3500 975 
Q 3475 625 3325 237 
Q 3175 -150 2800 -600 
Q 2625 -350 2325 -325 
Q 2650 -50 2812 262 
Q 2975 575 3025 1000 
Q 3075 1425 3087 2187 
Q 3100 2950 3075 3425 
L 4250 3425 
Q 4475 3825 4650 4225 
L 3625 4225 
Q 3325 3875 2850 3250 
Q 2650 3425 2425 3500 
Q 2875 3975 3175 4425 
Q 3475 4875 3625 5300 
Q 3900 5175 4200 5100 
Q 4075 5025 3825 4575 
L 5350 4575 
Q 4900 3775 4750 3425 
L 5950 3425 
Q 5925 2975 5925 2450 
L 5925 -50 
Q 5950 -350 5775 -462 
Q 5600 -575 5175 -675 
Q 5150 -425 4975 -200 
z
M 200 1975 
Q 550 2300 850 2837 
Q 1150 3375 1300 4225 
Q 825 4225 525 4200 
L 525 4650 
Q 875 4625 1200 4625 
L 1900 4625 
Q 2325 4625 2625 4650 
L 2625 4200 
Q 2325 4225 1800 4225 
Q 1650 3525 1400 2925 
L 2525 2925 
Q 2500 2500 2500 2125 
L 2500 1075 
Q 2500 650 2525 125 
L 2075 125 
L 2075 600 
L 1350 600 
L 1350 -300 
L 900 -300 
Q 925 225 925 600 
L 925 2100 
Q 800 1900 625 1625 
Q 475 1825 200 1975 
z
M 2075 975 
L 2075 2575 
L 1350 2575 
L 1350 975 
L 2075 975 
z
M 5475 2350 
L 5475 3075 
L 4625 3075 
L 4625 2350 
L 5475 2350 
z
M 5475 1325 
L 5475 2000 
L 4625 2000 
L 4625 1325 
L 5475 1325 
z
M 4200 2350 
L 4200 3075 
L 3500 3075 
L 3500 2350 
L 4200 2350 
z
M 4200 1325 
L 4200 2000 
L 3500 2000 
L 3500 1325 
L 4200 1325 
z
" transform="scale(0.015625)"/>
       <path id="SimHei-7387" d="M 3325 5150 
Q 3425 4900 3550 4525 
L 4800 4525 
Q 5250 4525 5800 4550 
L 5800 4125 
Q 5250 4175 4775 4175 
L 2800 4175 
Q 2975 4050 3300 3900 
Q 3075 3750 2875 3537 
Q 2675 3325 2475 3125 
L 3275 3125 
Q 3575 3425 3775 3775 
Q 4000 3600 4275 3425 
Q 3950 3250 3600 2875 
Q 3250 2500 2625 2000 
L 3850 2100 
Q 3725 2250 3600 2425 
Q 3750 2475 4000 2650 
Q 4250 2350 4700 1700 
Q 4475 1625 4225 1450 
Q 4175 1600 4025 1775 
Q 3700 1750 3425 1750 
L 3425 1050 
L 5150 1050 
Q 5675 1050 6100 1075 
L 6100 650 
Q 5700 675 5125 675 
L 3425 675 
L 3425 175 
Q 3425 -300 3450 -625 
L 2900 -625 
Q 2925 -300 2925 175 
L 2925 675 
L 1325 675 
Q 825 675 325 650 
L 325 1075 
Q 825 1050 1350 1050 
L 2925 1050 
L 2925 1700 
Q 2700 1675 2475 1637 
Q 2250 1600 2025 1525 
Q 1950 1775 1850 2000 
Q 2075 2025 2325 2200 
Q 2575 2375 2975 2800 
Q 2300 2725 2025 2625 
Q 1975 2875 1850 3175 
Q 2075 3175 2325 3487 
Q 2575 3800 2750 4175 
L 1700 4175 
Q 1150 4175 650 4125 
L 650 4550 
Q 1150 4525 1550 4525 
L 2975 4525 
Q 2900 4825 2800 5025 
Q 3025 5075 3325 5150 
z
M 1625 2575 
Q 1725 2400 1825 2200 
Q 1575 2050 1325 1862 
Q 1075 1675 800 1425 
Q 625 1675 475 1875 
Q 800 2025 1100 2212 
Q 1400 2400 1625 2575 
z
M 4850 2650 
Q 5125 2475 5337 2337 
Q 5550 2200 5875 1950 
Q 5675 1800 5500 1600 
Q 5300 1775 5062 1975 
Q 4825 2175 4575 2325 
Q 4725 2475 4850 2650 
z
M 5725 3525 
Q 5550 3450 5300 3262 
Q 5050 3075 4800 2825 
Q 4625 3050 4475 3175 
Q 4700 3325 4875 3487 
Q 5050 3650 5300 3925 
Q 5525 3700 5725 3525 
z
M 1050 3850 
Q 1425 3600 1775 3275 
Q 1575 3100 1425 2925 
Q 1075 3300 675 3525 
Q 875 3700 1050 3850 
z
" transform="scale(0.015625)"/>
       <path id="SimHei-28" d="M 2975 -200 
L 2700 -475 
Q 2075 125 1762 775 
Q 1450 1425 1450 2250 
Q 1450 3075 1762 3725 
Q 2075 4375 2700 5000 
L 2975 4725 
Q 2400 4175 2112 3587 
Q 1825 3000 1825 2250 
Q 1825 1500 2112 912 
Q 2400 325 2975 -200 
z
" transform="scale(0.015625)"/>
       <path id="SimHei-25" d="M 1400 3325 
Q 1400 2600 1187 2400 
Q 975 2200 775 2200 
Q 575 2200 362 2400 
Q 150 2600 150 3325 
Q 150 4050 362 4250 
Q 575 4450 775 4450 
Q 975 4450 1187 4250 
Q 1400 4050 1400 3325 
z
M 2625 4375 
L 700 75 
L 500 150 
L 2425 4450 
L 2625 4375 
z
M 2975 1200 
Q 2975 475 2762 275 
Q 2550 75 2350 75 
Q 2150 75 1937 275 
Q 1725 475 1725 1200 
Q 1725 1925 1937 2125 
Q 2150 2325 2350 2325 
Q 2550 2325 2762 2125 
Q 2975 1925 2975 1200 
z
M 1000 3325 
Q 1000 3775 950 3925 
Q 900 4075 775 4075 
Q 650 4075 600 3925 
Q 550 3775 550 3325 
Q 550 2875 600 2725 
Q 650 2575 775 2575 
Q 900 2575 950 2725 
Q 1000 2875 1000 3325 
z
M 2575 1200 
Q 2575 1650 2525 1800 
Q 2475 1950 2350 1950 
Q 2225 1950 2175 1800 
Q 2125 1650 2125 1200 
Q 2125 750 2175 600 
Q 2225 450 2350 450 
Q 2475 450 2525 600 
Q 2575 750 2575 1200 
z
" transform="scale(0.015625)"/>
       <path id="SimHei-29" d="M 1675 2250 
Q 1675 1425 1362 775 
Q 1050 125 425 -475 
L 150 -200 
Q 725 325 1012 912 
Q 1300 1500 1300 2250 
Q 1300 3000 1012 3587 
Q 725 4175 150 4725 
L 425 5000 
Q 1050 4375 1362 3725 
Q 1675 3075 1675 2250 
z
" transform="scale(0.015625)"/>
      </defs>
      <use xlink:href="#SimHei-8bca"/>
      <use xlink:href="#SimHei-65ad" transform="translate(100 0)"/>
      <use xlink:href="#SimHei-51c6" transform="translate(200 0)"/>
      <use xlink:href="#SimHei-786e" transform="translate(300 0)"/>
      <use xlink:href="#SimHei-7387" transform="translate(400 0)"/>
      <use xlink:href="#SimHei-20" transform="translate(500 0)"/>
      <use xlink:href="#SimHei-28" transform="translate(550 0)"/>
      <use xlink:href="#SimHei-25" transform="translate(600 0)"/>
      <use xlink:href="#SimHei-29" transform="translate(650 0)"/>
     </g>
    </g>
   </g>
   <g id="patch_8">
    <path d="M 42.575 262.35918 
L 42.575 22.809375 
" style="fill: none; stroke: #000000; stroke-width: 0.8; stroke-linejoin: miter; stroke-linecap: square"/>
   </g>
   <g id="patch_9">
    <path d="M 705.4725 262.35918 
L 705.4725 22.809375 
" style="fill: none; stroke: #000000; stroke-width: 0.8; stroke-linejoin: miter; stroke-linecap: square"/>
   </g>
   <g id="patch_10">
    <path d="M 42.575 262.35918 
L 705.4725 262.35918 
" style="fill: none; stroke: #000000; stroke-width: 0.8; stroke-linejoin: miter; stroke-linecap: square"/>
   </g>
   <g id="patch_11">
    <path d="M 42.575 22.809375 
L 705.4725 22.809375 
" style="fill: none; stroke: #000000; stroke-width: 0.8; stroke-linejoin: miter; stroke-linecap: square"/>
   </g>
   <g id="text_13">
    <!-- 89.83% -->
    <g transform="translate(109.426212 119.300921) scale(0.09 -0.09)">
     <defs>
      <path id="SimHei-2e" d="M 1075 125 
L 500 125 
L 500 675 
L 1075 675 
L 1075 125 
z
" transform="scale(0.015625)"/>
      <path id="SimHei-33" d="M 250 1225 
L 700 1300 
Q 800 975 1025 762 
Q 1250 550 1587 562 
Q 1925 575 2125 837 
Q 2325 1100 2300 1437 
Q 2275 1775 2037 1962 
Q 1800 2150 1275 2225 
L 1275 2550 
Q 1800 2600 2037 2825 
Q 2275 3050 2250 3412 
Q 2225 3775 1925 3937 
Q 1625 4100 1287 3975 
Q 950 3850 750 3275 
L 300 3350 
Q 450 3800 712 4100 
Q 975 4400 1425 4450 
Q 1875 4500 2212 4337 
Q 2550 4175 2687 3837 
Q 2825 3500 2725 3100 
Q 2625 2700 2150 2400 
Q 2500 2250 2687 1950 
Q 2875 1650 2812 1162 
Q 2750 675 2375 375 
Q 2000 75 1525 87 
Q 1050 100 700 387 
Q 350 675 250 1225 
z
" transform="scale(0.015625)"/>
     </defs>
     <use xlink:href="#SimHei-38"/>
     <use xlink:href="#SimHei-39" transform="translate(50 0)"/>
     <use xlink:href="#SimHei-2e" transform="translate(100 0)"/>
     <use xlink:href="#SimHei-38" transform="translate(150 0)"/>
     <use xlink:href="#SimHei-33" transform="translate(200 0)"/>
     <use xlink:href="#SimHei-25" transform="translate(250 0)"/>
    </g>
   </g>
   <g id="text_14">
    <!-- 79.33% -->
    <g transform="translate(234.974981 213.623656) scale(0.09 -0.09)">
     <use xlink:href="#SimHei-37"/>
     <use xlink:href="#SimHei-39" transform="translate(50 0)"/>
     <use xlink:href="#SimHei-2e" transform="translate(100 0)"/>
     <use xlink:href="#SimHei-33" transform="translate(150 0)"/>
     <use xlink:href="#SimHei-33" transform="translate(200 0)"/>
     <use xlink:href="#SimHei-25" transform="translate(250 0)"/>
    </g>
   </g>
   <g id="text_15">
    <!-- 95.79% -->
    <g transform="translate(360.52375 65.776511) scale(0.09 -0.09)">
     <use xlink:href="#SimHei-39"/>
     <use xlink:href="#SimHei-35" transform="translate(50 0)"/>
     <use xlink:href="#SimHei-2e" transform="translate(100 0)"/>
     <use xlink:href="#SimHei-37" transform="translate(150 0)"/>
     <use xlink:href="#SimHei-39" transform="translate(200 0)"/>
     <use xlink:href="#SimHei-25" transform="translate(250 0)"/>
    </g>
   </g>
   <g id="text_16">
    <!-- 95.67% -->
    <g transform="translate(486.072519 66.899401) scale(0.09 -0.09)">
     <defs>
      <path id="SimHei-36" d="M 250 1612 
Q 275 1975 387 2225 
Q 500 2475 725 2850 
L 1750 4450 
L 2325 4450 
L 1275 2800 
Q 1950 2975 2350 2750 
Q 2750 2525 2887 2237 
Q 3025 1950 3037 1612 
Q 3050 1275 2937 950 
Q 2825 625 2537 362 
Q 2250 100 1737 75 
Q 1225 50 862 262 
Q 500 475 362 862 
Q 225 1250 250 1612 
z
M 1025 787 
Q 1250 550 1625 525 
Q 2000 500 2250 775 
Q 2500 1050 2500 1575 
Q 2500 2100 2187 2300 
Q 1875 2500 1487 2450 
Q 1100 2400 925 2075 
Q 750 1750 775 1387 
Q 800 1025 1025 787 
z
" transform="scale(0.015625)"/>
     </defs>
     <use xlink:href="#SimHei-39"/>
     <use xlink:href="#SimHei-35" transform="translate(50 0)"/>
     <use xlink:href="#SimHei-2e" transform="translate(100 0)"/>
     <use xlink:href="#SimHei-36" transform="translate(150 0)"/>
     <use xlink:href="#SimHei-37" transform="translate(200 0)"/>
     <use xlink:href="#SimHei-25" transform="translate(250 0)"/>
    </g>
   </g>
   <g id="text_17">
    <!-- 96.21% -->
    <g transform="translate(611.621288 62.033545) scale(0.09 -0.09)">
     <defs>
      <path id="SimHei-32" d="M 300 250 
Q 325 625 650 925 
Q 975 1225 1475 1862 
Q 1975 2500 2125 2850 
Q 2275 3200 2237 3450 
Q 2200 3700 2000 3862 
Q 1800 4025 1537 4000 
Q 1275 3975 1037 3800 
Q 800 3625 675 3275 
L 200 3350 
Q 400 3925 712 4187 
Q 1025 4450 1450 4475 
Q 1700 4500 1900 4462 
Q 2100 4425 2312 4287 
Q 2525 4150 2662 3875 
Q 2800 3600 2762 3212 
Q 2725 2825 2375 2287 
Q 2025 1750 1025 600 
L 2825 600 
L 2825 150 
L 300 150 
L 300 250 
z
" transform="scale(0.015625)"/>
     </defs>
     <use xlink:href="#SimHei-39"/>
     <use xlink:href="#SimHei-36" transform="translate(50 0)"/>
     <use xlink:href="#SimHei-2e" transform="translate(100 0)"/>
     <use xlink:href="#SimHei-32" transform="translate(150 0)"/>
     <use xlink:href="#SimHei-31" transform="translate(200 0)"/>
     <use xlink:href="#SimHei-25" transform="translate(250 0)"/>
    </g>
   </g>
   <g id="text_18">
    <!-- PINN-RF 各模块消融实验 -->
    <g transform="translate(308.02375 16.809375) scale(0.12 -0.12)">
     <defs>
      <path id="SimHei-5404" d="M 5100 4425 
Q 4850 4000 4525 3600 
Q 4200 3200 3675 2750 
Q 4050 2500 4750 2325 
Q 5450 2150 6050 2125 
Q 5825 1825 5775 1600 
Q 5050 1750 4412 1962 
Q 3775 2175 3300 2475 
Q 2750 2150 2000 1875 
Q 1250 1600 550 1425 
Q 475 1625 275 1850 
Q 900 1950 1662 2200 
Q 2425 2450 2950 2750 
Q 2525 3150 2100 3900 
Q 1900 3575 1675 3300 
Q 1450 3025 1250 2800 
Q 1050 3000 850 3100 
Q 1200 3400 1587 3950 
Q 1975 4500 2175 5225 
Q 2450 5075 2725 5000 
Q 2600 4850 2375 4425 
L 5100 4425 
z
M 4975 1675 
Q 4950 1125 4950 400 
Q 4950 -325 4975 -575 
L 4475 -575 
L 4475 -225 
L 2050 -225 
L 2050 -625 
L 1550 -625 
Q 1575 -275 1575 400 
Q 1575 1075 1550 1675 
L 4975 1675 
z
M 4475 200 
L 4475 1250 
L 2050 1250 
L 2050 200 
L 4475 200 
z
M 3325 3000 
Q 3875 3450 4300 4025 
L 2500 4025 
Q 2975 3275 3325 3000 
z
" transform="scale(0.015625)"/>
      <path id="SimHei-6a21" d="M 5700 3675 
Q 5675 3400 5675 2725 
Q 5675 2050 5700 1725 
L 4375 1725 
Q 4350 1450 4325 1200 
L 5225 1200 
Q 5750 1200 6025 1225 
L 6025 825 
Q 5725 850 5225 850 
L 4700 850 
Q 5075 375 5437 137 
Q 5800 -100 6200 -200 
Q 5975 -375 5850 -625 
Q 5275 -400 4862 25 
Q 4450 450 4300 775 
L 4225 775 
Q 4000 275 3537 -62 
Q 3075 -400 2475 -625 
Q 2350 -375 2125 -200 
Q 2775 -75 3200 200 
Q 3625 475 3775 850 
L 3325 850 
Q 2800 850 2400 825 
L 2400 1225 
Q 2800 1200 3350 1200 
L 3875 1200 
Q 3925 1475 3925 1725 
L 2750 1725 
Q 2775 2075 2775 2700 
Q 2775 3350 2750 3675 
L 5700 3675 
z
M 2175 1650 
Q 2025 1975 1675 2525 
L 1675 300 
Q 1675 -300 1700 -550 
L 1175 -550 
Q 1200 -275 1200 250 
L 1200 2225 
Q 1125 2000 962 1712 
Q 800 1425 600 1050 
Q 450 1275 200 1425 
Q 600 1825 850 2425 
Q 1100 3025 1175 3425 
L 950 3425 
Q 700 3425 400 3400 
L 400 3825 
Q 675 3800 825 3800 
L 1200 3800 
L 1200 4350 
Q 1200 4775 1175 5150 
L 1700 5150 
Q 1675 4825 1675 4425 
L 1675 3800 
Q 2075 3800 2375 3825 
L 2375 3400 
Q 2050 3425 1675 3425 
L 1675 2575 
Q 1850 2675 2000 2775 
Q 2150 2525 2287 2325 
Q 2425 2125 2550 1925 
Q 2325 1775 2175 1650 
z
M 3375 4300 
L 3175 4300 
Q 2700 4300 2425 4275 
L 2425 4675 
Q 2700 4650 3150 4650 
L 3375 4650 
Q 3375 5000 3350 5225 
L 3825 5225 
Q 3800 5000 3800 4650 
L 4550 4650 
Q 4550 4975 4525 5200 
L 5025 5200 
Q 5000 4925 5000 4650 
L 5375 4650 
Q 5650 4650 5950 4675 
L 5950 4275 
Q 5650 4300 5375 4300 
L 5000 4300 
L 5000 3850 
L 4550 3850 
L 4550 4300 
L 3800 4300 
L 3800 3875 
L 3375 3875 
L 3375 4300 
z
M 5275 2075 
L 5275 2525 
L 3200 2525 
L 3200 2075 
L 5275 2075 
z
M 5275 2875 
L 5275 3325 
L 3200 3325 
L 3200 2875 
L 5275 2875 
z
" transform="scale(0.015625)"/>
      <path id="SimHei-5757" d="M 3550 4050 
Q 3550 4800 3525 5175 
Q 3700 5125 4075 5075 
Q 4050 4900 4037 4650 
Q 4025 4400 4025 4050 
L 5425 4050 
Q 5400 3675 5400 3225 
L 5400 2200 
Q 5825 2200 6100 2225 
L 6100 1800 
Q 5725 1825 5425 1825 
L 4250 1825 
Q 4425 1425 4662 1062 
Q 4900 700 5275 350 
Q 5650 0 6175 -225 
Q 5975 -375 5775 -650 
Q 5550 -525 5187 -225 
Q 4825 75 4500 512 
Q 4175 950 3925 1500 
Q 3700 850 3400 462 
Q 3100 75 2837 -162 
Q 2575 -400 2175 -675 
Q 1975 -450 1800 -300 
Q 2100 -125 2425 125 
Q 2750 375 2987 662 
Q 3225 950 3350 1262 
Q 3475 1575 3500 1825 
L 2900 1825 
Q 2500 1825 2100 1800 
L 2100 2225 
Q 2500 2200 2900 2200 
L 3550 2200 
L 3550 3675 
L 3275 3675 
Q 2900 3675 2500 3625 
L 2500 4075 
Q 2875 4050 3275 4050 
L 3550 4050 
z
M 1125 3500 
L 1125 4250 
Q 1125 4650 1100 5050 
L 1600 5050 
Q 1575 4675 1575 4250 
L 1575 3500 
L 1775 3500 
Q 1950 3500 2350 3525 
L 2350 3100 
Q 1950 3125 1775 3125 
L 1575 3125 
L 1575 1225 
L 2475 1525 
L 2475 1100 
Q 2025 950 1437 725 
Q 850 500 450 325 
Q 300 700 200 875 
Q 475 925 712 987 
Q 950 1050 1125 1100 
L 1125 3125 
L 1025 3125 
Q 650 3125 325 3100 
L 325 3525 
Q 650 3500 1000 3500 
L 1125 3500 
z
M 4925 2200 
L 4925 3675 
L 4025 3675 
L 4025 2200 
L 4925 2200 
z
" transform="scale(0.015625)"/>
      <path id="SimHei-6d88" d="M 3850 3350 
Q 3850 4825 3825 5225 
L 4425 5225 
Q 4400 4825 4400 3350 
L 5875 3350 
Q 5850 2700 5850 2325 
L 5850 -100 
Q 5850 -275 5687 -412 
Q 5525 -550 4975 -650 
Q 4950 -400 4675 -75 
Q 5050 -100 5187 -75 
Q 5325 -50 5325 125 
L 5325 700 
L 2950 700 
L 2950 -600 
L 2425 -600 
Q 2450 100 2450 625 
L 2450 2350 
Q 2450 2950 2425 3350 
L 3850 3350 
z
M 5325 2250 
L 5325 2925 
L 2950 2925 
L 2950 2250 
L 5325 2250 
z
M 5325 1125 
L 5325 1800 
L 2950 1800 
L 2950 1125 
L 5325 1125 
z
M 1750 1500 
Q 1600 1275 1387 662 
Q 1175 50 1000 -600 
Q 700 -350 300 -250 
Q 550 25 800 550 
Q 1050 1075 1250 1875 
Q 1500 1650 1750 1500 
z
M 950 5025 
Q 1400 4700 1900 4200 
Q 1625 4000 1475 3800 
Q 1050 4300 550 4700 
Q 725 4775 950 5025 
z
M 525 3400 
Q 1125 3100 1650 2750 
Q 1475 2550 1300 2300 
Q 825 2675 250 3000 
Q 375 3150 525 3400 
z
M 6175 4675 
Q 6025 4575 5775 4262 
Q 5525 3950 5350 3650 
L 4900 3900 
Q 5250 4300 5600 5000 
Q 5900 4800 6175 4675 
z
M 2625 4975 
Q 2950 4575 3300 3950 
Q 3025 3825 2825 3675 
Q 2575 4200 2150 4700 
Q 2375 4800 2625 4975 
z
" transform="scale(0.015625)"/>
      <path id="SimHei-878d" d="M 5200 975 
Q 5400 1025 5650 1125 
Q 5775 775 5887 475 
Q 6000 175 6150 -350 
Q 5925 -425 5675 -500 
Q 5575 -175 5500 50 
Q 4825 -100 4362 -212 
Q 3900 -325 3400 -500 
Q 3325 -225 3200 0 
Q 3575 25 4350 175 
L 4350 1750 
L 3850 1750 
L 3850 1225 
L 3375 1225 
Q 3400 1975 3400 2675 
Q 3400 3400 3375 3925 
L 4350 3925 
Q 4350 4925 4325 5200 
L 4825 5200 
Q 4800 4875 4800 3925 
L 5775 3925 
Q 5750 3325 5750 2700 
Q 5750 2100 5775 1550 
L 5300 1550 
L 5300 1750 
L 4800 1750 
L 4800 250 
Q 5075 325 5400 400 
Q 5325 650 5200 975 
z
M 2025 -50 
Q 2425 -50 2475 -12 
Q 2525 25 2550 150 
L 2550 1975 
L 825 1975 
L 825 -500 
L 350 -500 
Q 375 100 375 475 
L 375 1400 
Q 375 1850 350 2350 
L 3000 2350 
Q 2975 1950 2975 1450 
L 2975 -25 
Q 2975 -325 2787 -387 
Q 2600 -450 2225 -525 
Q 2125 -225 2025 -50 
z
M 625 2725 
Q 650 3050 650 3350 
Q 650 3675 625 3975 
L 2850 3975 
Q 2825 3675 2825 3350 
Q 2825 3050 2850 2725 
L 625 2725 
z
M 3000 4450 
Q 2650 4475 2175 4475 
L 1200 4475 
Q 625 4475 250 4450 
L 250 4875 
Q 550 4850 1125 4850 
L 2175 4850 
Q 2700 4850 3000 4875 
L 3000 4450 
z
M 2325 1675 
Q 2175 1475 2000 1025 
L 2325 1025 
L 2325 675 
L 1850 675 
L 1850 -125 
L 1425 -125 
L 1425 675 
L 1025 675 
L 1025 1025 
L 1700 1025 
Q 1875 1500 1925 1825 
Q 2100 1700 2325 1675 
z
M 5300 2125 
L 5300 3550 
L 4800 3550 
L 4800 2125 
L 5300 2125 
z
M 4350 2125 
L 4350 3550 
L 3850 3550 
L 3850 2125 
L 4350 2125 
z
M 2350 3100 
L 2350 3600 
L 1100 3600 
L 1100 3100 
L 2350 3100 
z
M 1575 1275 
Q 1400 1225 1225 1150 
Q 1150 1425 1025 1675 
L 1325 1825 
Q 1425 1550 1575 1275 
z
" transform="scale(0.015625)"/>
      <path id="SimHei-5b9e" d="M 4125 3500 
Q 4050 3200 4000 2675 
Q 3950 2150 3850 1550 
L 5025 1550 
Q 5475 1550 5975 1575 
L 5975 1100 
Q 5450 1125 5000 1125 
L 3725 1125 
Q 3500 625 3050 250 
Q 2600 -125 2000 -337 
Q 1400 -550 925 -675 
Q 825 -375 500 -200 
Q 1225 -125 2050 212 
Q 2875 550 3200 1125 
L 1425 1125 
Q 975 1125 425 1100 
L 425 1575 
Q 1000 1550 1425 1550 
L 3375 1550 
Q 3450 1975 3487 2462 
Q 3525 2950 3500 3650 
Q 3800 3550 4125 3500 
z
M 3250 5250 
Q 3450 4850 3600 4375 
L 5775 4375 
Q 5750 4100 5750 3825 
Q 5750 3575 5775 3275 
L 5200 3275 
L 5200 3975 
L 1225 3975 
L 1225 3225 
L 675 3225 
Q 700 3525 700 3800 
Q 700 4100 675 4375 
L 2975 4375 
Q 2900 4675 2700 5075 
Q 2900 5150 3250 5250 
z
M 4000 825 
Q 4550 525 5050 262 
Q 5550 0 5925 -225 
Q 5750 -425 5550 -650 
Q 5100 -325 4575 -37 
Q 4050 250 3675 400 
Q 3875 650 4000 825 
z
M 1175 2750 
Q 1600 2550 2350 2050 
Q 2250 1900 2050 1650 
Q 1350 2175 925 2350 
Q 1075 2500 1175 2750 
z
M 3150 2825 
Q 2975 2625 2850 2425 
Q 2050 3000 1675 3125 
Q 1800 3300 1950 3525 
L 3150 2825 
z
" transform="scale(0.015625)"/>
      <path id="SimHei-9a8c" d="M 2300 4725 
Q 2250 4500 2225 4075 
L 2050 2125 
L 2525 2125 
Q 2500 1925 2475 1450 
L 2375 75 
Q 2375 -450 2075 -525 
Q 1775 -600 1250 -675 
Q 1175 -325 1050 -100 
Q 1575 -100 1737 -87 
Q 1900 -75 1950 150 
L 2025 1700 
L 550 1700 
Q 575 2175 587 2737 
Q 600 3300 600 3800 
L 1100 3800 
Q 1050 3525 1025 3087 
Q 1000 2650 1000 2125 
L 1625 2125 
L 1800 4325 
L 1125 4325 
Q 725 4325 350 4300 
L 350 4750 
Q 725 4725 1125 4725 
L 2300 4725 
z
M 4325 4875 
Q 4725 4125 5150 3775 
Q 5575 3425 6150 3225 
Q 5925 3025 5800 2725 
Q 5450 2925 5125 3200 
L 5125 2775 
Q 4800 2800 4200 2800 
Q 3600 2800 3225 2775 
L 3225 3175 
Q 3075 2975 2800 2650 
Q 2575 2875 2325 3000 
Q 2725 3275 2937 3550 
Q 3150 3825 3312 4125 
Q 3475 4425 3587 4675 
Q 3700 4925 3775 5225 
Q 4100 5150 4450 5075 
L 4325 4875 
z
M 5600 2150 
Q 5475 2000 5400 1737 
Q 5325 1475 5162 912 
Q 5000 350 4900 25 
L 5250 25 
Q 5425 25 5800 50 
L 5800 -400 
Q 5475 -375 5250 -375 
L 3325 -375 
Q 2875 -375 2675 -400 
L 2675 50 
Q 2975 25 3350 25 
L 4475 25 
Q 4675 575 4800 1150 
L 5050 2300 
Q 5250 2225 5600 2150 
z
M 5100 3225 
Q 4800 3450 4550 3775 
Q 4300 4100 4050 4600 
Q 3850 4200 3687 3912 
Q 3525 3625 3250 3225 
L 5100 3225 
z
M 3250 2175 
Q 3350 1825 3462 1375 
Q 3575 925 3675 550 
Q 3450 525 3250 425 
Q 3175 900 3087 1225 
Q 3000 1550 2850 2050 
Q 3050 2125 3250 2175 
z
M 1775 1125 
Q 1750 950 1725 700 
Q 1350 625 1112 575 
Q 875 525 375 375 
Q 300 650 200 925 
Q 550 950 925 1000 
Q 1300 1050 1775 1125 
z
M 4300 1650 
Q 4350 1325 4425 825 
L 4025 725 
Q 3925 1275 3875 1562 
Q 3825 1850 3750 2225 
Q 3975 2275 4200 2300 
L 4300 1650 
z
" transform="scale(0.015625)"/>
     </defs>
     <use xlink:href="#SimHei-50"/>
     <use xlink:href="#SimHei-49" transform="translate(50 0)"/>
     <use xlink:href="#SimHei-4e" transform="translate(100 0)"/>
     <use xlink:href="#SimHei-4e" transform="translate(150 0)"/>
     <use xlink:href="#SimHei-2d" transform="translate(200 0)"/>
     <use xlink:href="#SimHei-52" transform="translate(250 0)"/>
     <use xlink:href="#SimHei-46" transform="translate(300 0)"/>
     <use xlink:href="#SimHei-20" transform="translate(350 0)"/>
     <use xlink:href="#SimHei-5404" transform="translate(400 0)"/>
     <use xlink:href="#SimHei-6a21" transform="translate(500 0)"/>
     <use xlink:href="#SimHei-5757" transform="translate(600 0)"/>
     <use xlink:href="#SimHei-6d88" transform="translate(700 0)"/>
     <use xlink:href="#SimHei-878d" transform="translate(800 0)"/>
     <use xlink:href="#SimHei-5b9e" transform="translate(900 0)"/>
     <use xlink:href="#SimHei-9a8c" transform="translate(1000 0)"/>
    </g>
   </g>
  </g>
 </g>
 <defs>
  <clipPath id="p9a0574e71e">
   <rect x="42.575" y="22.809375" width="662.8975" height="239.549805"/>
  </clipPath>
 </defs>
</svg>
