<?xml version="1.0" encoding="utf-8" standalone="no"?>
<!DOCTYPE svg PUBLIC "-//W3C//DTD SVG 1.1//EN"
  "http://www.w3.org/Graphics/SVG/1.1/DTD/svg11.dtd">
<svg xmlns:xlink="http://www.w3.org/1999/xlink" width="484.155648pt" height="405.965991pt" viewBox="0 0 484.155648 405.965991" xmlns="http://www.w3.org/2000/svg" version="1.1">
 <metadata>
  <rdf:RDF xmlns:dc="http://purl.org/dc/elements/1.1/" xmlns:cc="http://creativecommons.org/ns#" xmlns:rdf="http://www.w3.org/1999/02/22-rdf-syntax-ns#">
   <cc:Work>
    <dc:type rdf:resource="http://purl.org/dc/dcmitype/StillImage"/>
    <dc:date>2026-05-23T14:46:08.811291</dc:date>
    <dc:format>image/svg+xml</dc:format>
    <dc:creator>
     <cc:Agent>
      <dc:title>Matplotlib v3.10.9, https://matplotlib.org/</dc:title>
     </cc:Agent>
    </dc:creator>
   </cc:Work>
  </rdf:RDF>
 </metadata>
 <defs>
  <style type="text/css">*{stroke-linejoin: round; stroke-linecap: butt}</style>
 </defs>
 <g id="figure_1">
  <g id="patch_1">
   <path d="M -0 405.965991 
L 484.155648 405.965991 
L 484.155648 0 
L -0 0 
z
" style="fill: #ffffff"/>
  </g>
  <g id="axes_1">
   <g id="patch_2">
    <path d="M 374.776736 230.51769 
C 374.776736 208.423525 370.424667 186.544199 361.969596 166.131852 
C 353.514526 145.719506 341.120883 127.171108 325.497949 111.548175 
C 309.875016 95.925241 291.326618 83.531598 270.914272 75.076528 
C 250.501925 66.621457 228.622599 62.269388 206.528434 62.269388 
C 184.43427 62.269388 162.554943 66.621457 142.142597 75.076528 
C 121.730251 83.531598 103.181853 95.925241 87.55892 111.548175 
C 71.935986 127.171108 59.542343 145.719506 51.087273 166.131852 
C 42.632202 186.544199 38.280133 208.423525 38.280133 230.51769 
C 38.280133 252.611854 42.632202 274.491181 51.087273 294.903527 
C 59.542343 315.315873 71.935986 333.864271 87.55892 349.487204 
C 103.181853 365.110138 121.730251 377.503781 142.142597 385.958851 
C 162.554943 394.413922 184.43427 398.765991 206.528434 398.765991 
C 228.622599 398.765991 250.501925 394.413922 270.914272 385.958851 
C 291.326618 377.503781 309.875016 365.110138 325.497949 349.487204 
C 341.120883 333.864271 353.514526 315.315873 361.969596 294.903527 
C 370.424667 274.491181 374.776736 252.611854 374.776736 230.51769 
M 206.528434 230.51769 
C 206.528434 230.51769 206.528434 230.51769 206.528434 230.51769 
C 206.528434 230.51769 206.528434 230.51769 206.528434 230.51769 
C 206.528434 230.51769 206.528434 230.51769 206.528434 230.51769 
C 206.528434 230.51769 206.528434 230.51769 206.528434 230.51769 
C 206.528434 230.51769 206.528434 230.51769 206.528434 230.51769 
C 206.528434 230.51769 206.528434 230.51769 206.528434 230.51769 
C 206.528434 230.51769 206.528434 230.51769 206.528434 230.51769 
C 206.528434 230.51769 206.528434 230.51769 206.528434 230.51769 
C 206.528434 230.51769 206.528434 230.51769 206.528434 230.51769 
C 206.528434 230.51769 206.528434 230.51769 206.528434 230.51769 
C 206.528434 230.51769 206.528434 230.51769 206.528434 230.51769 
C 206.528434 230.51769 206.528434 230.51769 206.528434 230.51769 
C 206.528434 230.51769 206.528434 230.51769 206.528434 230.51769 
C 206.528434 230.51769 206.528434 230.51769 206.528434 230.51769 
C 206.528434 230.51769 206.528434 230.51769 206.528434 230.51769 
C 206.528434 230.51769 206.528434 230.51769 206.528434 230.51769 
z
" style="fill: #ffffff"/>
   </g>
   <g id="patch_3">
    <path d="M 206.528434 98.933497 
L 322.471653 192.845454 
L 264.216525 309.918535 
L 152.136806 305.381344 
L 46.571042 178.544382 
z
" clip-path="url(#p371017c023)" style="fill: #5b8dbe; opacity: 0.08; stroke: #5b8dbe; stroke-linejoin: miter"/>
   </g>
   <g id="patch_4">
    <path d="M 206.528434 71.733355 
L 338.806379 187.53798 
L 266.963577 313.699528 
L 171.91558 278.158197 
L 66.63368 185.063129 
z
" clip-path="url(#p371017c023)" style="fill: #4caf8a; opacity: 0.08; stroke: #4caf8a; stroke-linejoin: miter"/>
   </g>
   <g id="patch_5">
    <path d="M 206.528434 79.374632 
L 332.0058 189.747622 
L 272.457681 321.261513 
L 147.192112 312.187131 
L 53.808592 180.896005 
z
" clip-path="url(#p371017c023)" style="fill: #e0a830; opacity: 0.08; stroke: #e0a830; stroke-linejoin: miter"/>
   </g>
   <g id="patch_6">
    <path d="M 206.528434 74.327183 
L 335.1394 188.729454 
L 261.469473 306.137542 
L 181.804967 264.546623 
L 126.521594 204.521891 
z
" clip-path="url(#p371017c023)" style="fill: #9b6bb5; opacity: 0.08; stroke: #9b6bb5; stroke-linejoin: miter"/>
   </g>
   <g id="patch_7">
    <path d="M 206.528434 69.490045 
L 337.672949 187.906254 
L 294.434097 351.509454 
L 109.612442 363.91111 
L 52.233581 180.384253 
z
" clip-path="url(#p371017c023)" style="fill: #e24b4a; opacity: 0.18; stroke: #e24b4a; stroke-linejoin: miter"/>
   </g>
   <g id="matplotlib.axis_1">
    <g id="xtick_1">
     <g id="line2d_1">
      <path d="M 206.528434 230.51769 
L 206.528434 62.269388 
" clip-path="url(#p371017c023)" style="fill: none; stroke-dasharray: 2.22,0.96; stroke-dashoffset: 0; stroke: #808080; stroke-opacity: 0.5; stroke-width: 0.6"/>
     </g>
     <g id="text_1">
      <!-- 理想准确率 -->
      <g transform="translate(174.028434 52.712748) scale(0.13 -0.13)">
       <defs>
        <path id="SimHei-7406" d="M 5825 4850 
Q 5800 4525 5800 3425 
Q 5800 2350 5825 1875 
L 4450 1875 
L 4450 1125 
L 5200 1125 
Q 5650 1125 5900 1150 
L 5900 700 
Q 5625 725 5200 725 
L 4450 725 
L 4450 -125 
L 5350 -125 
Q 5825 -125 6150 -100 
L 6150 -550 
Q 5825 -525 5375 -525 
L 2950 -525 
Q 2550 -525 2250 -550 
L 2250 -100 
Q 2575 -125 2950 -125 
L 3975 -125 
L 3975 725 
L 3150 725 
Q 2825 725 2575 700 
L 2575 1150 
Q 2825 1125 3150 1125 
L 3975 1125 
L 3975 1875 
L 2625 1875 
Q 2650 2250 2650 3400 
Q 2650 4550 2625 4850 
L 5825 4850 
z
M 1750 4525 
Q 2025 4525 2350 4550 
L 2350 4075 
Q 2000 4100 1750 4100 
L 1525 4100 
L 1525 2750 
Q 1875 2750 2225 2775 
L 2225 2300 
Q 1875 2325 1525 2325 
L 1525 725 
Q 2000 900 2325 1050 
Q 2375 800 2425 625 
Q 1950 475 1362 237 
Q 775 0 450 -200 
Q 350 50 225 325 
Q 550 375 1075 600 
L 1075 2325 
Q 625 2325 300 2300 
L 300 2775 
Q 650 2750 1075 2750 
L 1075 4100 
L 775 4100 
Q 550 4100 225 4075 
L 225 4550 
Q 550 4525 775 4525 
L 1750 4525 
z
M 5325 2275 
L 5325 3175 
L 4450 3175 
L 4450 2275 
L 5325 2275 
z
M 5325 3550 
L 5325 4450 
L 4450 4450 
L 4450 3550 
L 5325 3550 
z
M 3975 2275 
L 3975 3175 
L 3125 3175 
L 3125 2275 
L 3975 2275 
z
M 3975 3550 
L 3975 4450 
L 3125 4450 
L 3125 3550 
L 3975 3550 
z
" transform="scale(0.015625)"/>
        <path id="SimHei-60f3" d="M 5650 4975 
Q 5625 4175 5625 3275 
Q 5625 2375 5650 1750 
L 3025 1750 
Q 3050 2275 3050 3275 
Q 3050 4275 3025 4975 
L 5650 4975 
z
M 1425 4325 
Q 1425 4750 1400 5225 
L 1925 5225 
Q 1900 4975 1900 4325 
Q 2225 4325 2650 4350 
L 2650 3950 
Q 2250 3975 1900 3975 
Q 1900 2100 1925 1725 
L 1400 1725 
Q 1425 2350 1425 3050 
Q 975 2300 650 1925 
Q 475 2125 225 2250 
Q 775 2675 1350 3975 
Q 850 3975 450 3950 
L 450 4350 
Q 850 4325 1425 4325 
z
M 2600 1225 
Q 2575 850 2575 525 
Q 2575 225 2587 75 
Q 2600 -75 2925 -100 
L 4150 -100 
Q 4300 -100 4375 -25 
Q 4450 50 4475 500 
Q 4675 350 5025 275 
Q 4850 -250 4737 -362 
Q 4625 -475 4175 -475 
L 2575 -475 
Q 2175 -450 2137 -200 
Q 2100 50 2100 450 
Q 2100 850 2075 1225 
L 2600 1225 
z
M 5150 3975 
L 5150 4575 
L 3525 4575 
L 3525 3975 
L 5150 3975 
z
M 5150 2100 
L 5150 2675 
L 3525 2675 
L 3525 2100 
L 5150 2100 
z
M 5150 3050 
L 5150 3600 
L 3525 3600 
L 3525 3050 
L 5150 3050 
z
M 1575 1075 
Q 1275 50 1075 -475 
Q 850 -400 525 -300 
Q 825 200 1050 1200 
Q 1350 1125 1575 1075 
z
M 5150 1350 
Q 5800 600 6125 150 
Q 5875 -25 5675 -200 
Q 5475 175 4750 1025 
Q 5025 1175 5150 1350 
z
M 3525 1425 
Q 3850 850 4000 625 
Q 3775 550 3550 375 
Q 3475 550 3100 1175 
Q 3250 1300 3525 1425 
z
M 2400 3500 
Q 2725 3025 2900 2725 
Q 2725 2600 2525 2425 
Q 2375 2750 2025 3225 
Q 2200 3350 2400 3500 
z
" transform="scale(0.015625)"/>
        <path id="SimHei-51c6" d="M 1600 2775 
Q 1900 3050 2275 3787 
Q 2650 4525 2800 5175 
Q 3075 5050 3400 4950 
Q 3250 4775 3000 4100 
L 4825 4100 
Q 5400 4100 5875 4125 
L 5875 3675 
Q 5375 3700 4825 3700 
L 4525 3700 
L 4525 2850 
Q 5250 2850 5700 2875 
L 5700 2425 
Q 5250 2450 4525 2450 
L 4525 1600 
Q 5275 1600 5700 1625 
L 5700 1200 
Q 5275 1225 4525 1225 
L 4525 375 
Q 5575 375 6050 400 
L 6050 -100 
Q 5575 -75 4975 -75 
L 2950 -75 
L 2950 -600 
L 2425 -600 
Q 2450 -150 2450 675 
L 2450 3050 
Q 2300 2775 2075 2400 
Q 1875 2650 1600 2775 
z
M 1675 2050 
Q 1425 1425 1200 850 
Q 975 275 775 -125 
Q 550 50 275 200 
Q 550 650 775 1112 
Q 1000 1575 1225 2300 
Q 1400 2125 1675 2050 
z
M 4025 1600 
L 4025 2450 
L 2950 2450 
L 2950 1600 
L 4025 1600 
z
M 4025 2850 
L 4025 3700 
L 2950 3700 
L 2950 2850 
L 4025 2850 
z
M 4025 375 
L 4025 1225 
L 2950 1225 
L 2950 375 
L 4025 375 
z
M 725 4775 
Q 850 4625 1162 4312 
Q 1475 4000 1750 3700 
Q 1525 3475 1375 3300 
Q 1100 3700 350 4450 
Q 550 4600 725 4775 
z
M 4150 5225 
Q 4600 4800 4800 4500 
Q 4625 4400 4400 4200 
Q 4225 4500 3775 4925 
Q 3925 5000 4150 5225 
z
" transform="scale(0.015625)"/>
        <path id="SimHei-786e" d="M 4975 -200 
Q 5250 -175 5362 -125 
Q 5475 -75 5475 125 
L 5475 975 
L 4625 975 
L 4625 -400 
L 4200 -400 
L 4200 975 
L 3500 975 
Q 3475 625 3325 237 
Q 3175 -150 2800 -600 
Q 2625 -350 2325 -325 
Q 2650 -50 2812 262 
Q 2975 575 3025 1000 
Q 3075 1425 3087 2187 
Q 3100 2950 3075 3425 
L 4250 3425 
Q 4475 3825 4650 4225 
L 3625 4225 
Q 3325 3875 2850 3250 
Q 2650 3425 2425 3500 
Q 2875 3975 3175 4425 
Q 3475 4875 3625 5300 
Q 3900 5175 4200 5100 
Q 4075 5025 3825 4575 
L 5350 4575 
Q 4900 3775 4750 3425 
L 5950 3425 
Q 5925 2975 5925 2450 
L 5925 -50 
Q 5950 -350 5775 -462 
Q 5600 -575 5175 -675 
Q 5150 -425 4975 -200 
z
M 200 1975 
Q 550 2300 850 2837 
Q 1150 3375 1300 4225 
Q 825 4225 525 4200 
L 525 4650 
Q 875 4625 1200 4625 
L 1900 4625 
Q 2325 4625 2625 4650 
L 2625 4200 
Q 2325 4225 1800 4225 
Q 1650 3525 1400 2925 
L 2525 2925 
Q 2500 2500 2500 2125 
L 2500 1075 
Q 2500 650 2525 125 
L 2075 125 
L 2075 600 
L 1350 600 
L 1350 -300 
L 900 -300 
Q 925 225 925 600 
L 925 2100 
Q 800 1900 625 1625 
Q 475 1825 200 1975 
z
M 2075 975 
L 2075 2575 
L 1350 2575 
L 1350 975 
L 2075 975 
z
M 5475 2350 
L 5475 3075 
L 4625 3075 
L 4625 2350 
L 5475 2350 
z
M 5475 1325 
L 5475 2000 
L 4625 2000 
L 4625 1325 
L 5475 1325 
z
M 4200 2350 
L 4200 3075 
L 3500 3075 
L 3500 2350 
L 4200 2350 
z
M 4200 1325 
L 4200 2000 
L 3500 2000 
L 3500 1325 
L 4200 1325 
z
" transform="scale(0.015625)"/>
        <path id="SimHei-7387" d="M 3325 5150 
Q 3425 4900 3550 4525 
L 4800 4525 
Q 5250 4525 5800 4550 
L 5800 4125 
Q 5250 4175 4775 4175 
L 2800 4175 
Q 2975 4050 3300 3900 
Q 3075 3750 2875 3537 
Q 2675 3325 2475 3125 
L 3275 3125 
Q 3575 3425 3775 3775 
Q 4000 3600 4275 3425 
Q 3950 3250 3600 2875 
Q 3250 2500 2625 2000 
L 3850 2100 
Q 3725 2250 3600 2425 
Q 3750 2475 4000 2650 
Q 4250 2350 4700 1700 
Q 4475 1625 4225 1450 
Q 4175 1600 4025 1775 
Q 3700 1750 3425 1750 
L 3425 1050 
L 5150 1050 
Q 5675 1050 6100 1075 
L 6100 650 
Q 5700 675 5125 675 
L 3425 675 
L 3425 175 
Q 3425 -300 3450 -625 
L 2900 -625 
Q 2925 -300 2925 175 
L 2925 675 
L 1325 675 
Q 825 675 325 650 
L 325 1075 
Q 825 1050 1350 1050 
L 2925 1050 
L 2925 1700 
Q 2700 1675 2475 1637 
Q 2250 1600 2025 1525 
Q 1950 1775 1850 2000 
Q 2075 2025 2325 2200 
Q 2575 2375 2975 2800 
Q 2300 2725 2025 2625 
Q 1975 2875 1850 3175 
Q 2075 3175 2325 3487 
Q 2575 3800 2750 4175 
L 1700 4175 
Q 1150 4175 650 4125 
L 650 4550 
Q 1150 4525 1550 4525 
L 2975 4525 
Q 2900 4825 2800 5025 
Q 3025 5075 3325 5150 
z
M 1625 2575 
Q 1725 2400 1825 2200 
Q 1575 2050 1325 1862 
Q 1075 1675 800 1425 
Q 625 1675 475 1875 
Q 800 2025 1100 2212 
Q 1400 2400 1625 2575 
z
M 4850 2650 
Q 5125 2475 5337 2337 
Q 5550 2200 5875 1950 
Q 5675 1800 5500 1600 
Q 5300 1775 5062 1975 
Q 4825 2175 4575 2325 
Q 4725 2475 4850 2650 
z
M 5725 3525 
Q 5550 3450 5300 3262 
Q 5050 3075 4800 2825 
Q 4625 3050 4475 3175 
Q 4700 3325 4875 3487 
Q 5050 3650 5300 3925 
Q 5525 3700 5725 3525 
z
M 1050 3850 
Q 1425 3600 1775 3275 
Q 1575 3100 1425 2925 
Q 1075 3300 675 3525 
Q 875 3700 1050 3850 
z
" transform="scale(0.015625)"/>
       </defs>
       <use xlink:href="#SimHei-7406"/>
       <use xlink:href="#SimHei-60f3" transform="translate(100 0)"/>
       <use xlink:href="#SimHei-51c6" transform="translate(200 0)"/>
       <use xlink:href="#SimHei-786e" transform="translate(300 0)"/>
       <use xlink:href="#SimHei-7387" transform="translate(400 0)"/>
      </g>
     </g>
    </g>
    <g id="xtick_2">
     <g id="line2d_2">
      <path d="M 206.528434 230.51769 
L 366.542078 178.526105 
" clip-path="url(#p371017c023)" style="fill: none; stroke-dasharray: 2.22,0.96; stroke-dashoffset: 0; stroke: #808080; stroke-opacity: 0.5; stroke-width: 0.6"/>
     </g>
     <g id="text_2">
      <!-- 噪声鲁棒性 -->
      <g transform="translate(347.356869 178.592445) scale(0.13 -0.13)">
       <defs>
        <path id="SimHei-566a" d="M 1800 4800 
Q 1775 4250 1775 3675 
L 1775 1950 
Q 1775 1475 1800 875 
L 1350 875 
L 1350 1425 
L 825 1425 
L 825 350 
L 375 350 
Q 400 900 400 1450 
L 400 3675 
Q 400 4250 375 4800 
L 1800 4800 
z
M 5800 -475 
Q 5100 -125 4750 225 
Q 4400 575 4175 1000 
L 4175 225 
Q 4175 -250 4200 -650 
L 3725 -650 
Q 3750 -250 3750 225 
L 3750 1050 
Q 3375 425 2950 75 
Q 2525 -275 2150 -525 
Q 2075 -325 1700 -100 
Q 2100 0 2562 300 
Q 3025 600 3250 1050 
L 2950 1050 
Q 2500 1050 2100 1025 
L 2100 1425 
Q 2500 1400 2950 1400 
L 3750 1400 
Q 3750 1675 3725 1950 
L 4200 1950 
Q 4175 1575 4175 1400 
L 5225 1400 
Q 5575 1400 6025 1425 
L 6025 1025 
Q 5575 1050 5250 1050 
L 4575 1050 
Q 4775 700 5125 450 
Q 5475 200 6175 25 
Q 5900 -200 5800 -475 
z
M 5225 5050 
Q 5175 4725 5175 4375 
Q 5175 4050 5225 3700 
L 2725 3700 
Q 2750 4050 2750 4375 
Q 2750 4725 2725 5050 
L 5225 5050 
z
M 5825 3350 
Q 5800 3025 5800 2675 
Q 5800 2350 5825 2075 
L 4175 2075 
Q 4200 2375 4200 2700 
Q 4200 3050 4175 3350 
L 5825 3350 
z
M 3675 3350 
Q 3650 3050 3650 2700 
Q 3650 2375 3675 2075 
L 2075 2075 
Q 2100 2375 2100 2700 
Q 2100 3050 2075 3350 
L 3675 3350 
z
M 1350 1775 
L 1350 4375 
L 825 4375 
L 825 1775 
L 1350 1775 
z
M 4725 4100 
L 4725 4675 
L 3175 4675 
L 3175 4100 
L 4725 4100 
z
M 5375 2425 
L 5375 3000 
L 4650 3000 
L 4650 2425 
L 5375 2425 
z
M 3200 2450 
L 3200 2975 
L 2525 2975 
L 2525 2450 
L 3200 2450 
z
" transform="scale(0.015625)"/>
        <path id="SimHei-58f0" d="M 5500 2800 
Q 5475 2500 5475 1800 
Q 5475 1100 5500 700 
L 4975 700 
L 4975 1050 
L 1575 1050 
Q 1525 650 1350 262 
Q 1175 -125 750 -650 
Q 550 -400 250 -300 
Q 575 0 762 300 
Q 950 600 1037 962 
Q 1125 1325 1125 1775 
Q 1125 2225 1100 2800 
L 5500 2800 
z
M 3050 4700 
Q 3050 5075 3025 5225 
L 3575 5225 
Q 3550 5075 3550 4700 
L 4900 4700 
Q 5450 4700 5925 4725 
L 5925 4275 
Q 5450 4300 4900 4300 
L 3550 4300 
L 3550 3650 
L 4525 3650 
Q 5075 3650 5575 3675 
L 5575 3225 
Q 5075 3250 4525 3250 
L 1950 3250 
Q 1400 3250 1025 3225 
L 1025 3675 
Q 1425 3650 1925 3650 
L 3050 3650 
L 3050 4300 
L 1675 4300 
Q 1050 4300 625 4275 
L 625 4725 
Q 1075 4700 1675 4700 
L 3050 4700 
z
M 4975 1450 
L 4975 2375 
L 3550 2375 
L 3550 1450 
L 4975 1450 
z
M 3050 1450 
L 3050 2375 
L 1675 2375 
L 1675 1450 
L 3050 1450 
z
" transform="scale(0.015625)"/>
        <path id="SimHei-9c81" d="M 2800 4950 
Q 2625 4850 2475 4775 
L 4500 4775 
L 4000 3975 
L 5350 3975 
Q 5325 3600 5325 3125 
Q 5325 2675 5350 2350 
L 1175 2350 
Q 1200 2800 1200 3100 
L 1200 3675 
Q 825 3400 550 3250 
Q 475 3400 250 3575 
Q 800 3850 1375 4325 
Q 1950 4800 2325 5275 
Q 2475 5100 2800 4950 
z
M 5275 1400 
Q 5250 1075 5250 750 
L 5250 175 
Q 5250 -125 5275 -625 
L 4800 -625 
L 4800 -400 
L 1750 -400 
L 1750 -650 
L 1250 -650 
Q 1300 -175 1300 175 
L 1300 750 
Q 1300 1100 1275 1400 
L 5275 1400 
z
M 5325 2025 
Q 5675 2025 6150 2075 
L 6150 1650 
Q 5675 1675 5350 1675 
L 1275 1675 
Q 850 1675 375 1650 
L 375 2075 
Q 850 2025 1275 2025 
L 5325 2025 
z
M 4800 -50 
L 4800 325 
L 1750 325 
L 1750 -50 
L 4800 -50 
z
M 4800 675 
L 4800 1050 
L 1750 1050 
L 1750 675 
L 4800 675 
z
M 2150 4425 
Q 1925 4225 1600 3975 
L 3500 3975 
Q 3675 4225 3800 4425 
L 2150 4425 
z
M 4850 3300 
L 4850 3625 
L 3450 3625 
L 3450 3300 
L 4850 3300 
z
M 3000 3300 
L 3000 3625 
L 1675 3625 
L 1675 3300 
L 3000 3300 
z
M 4850 2675 
L 4850 2975 
L 3450 2975 
L 3450 2675 
L 4850 2675 
z
M 3000 2675 
L 3000 2975 
L 1675 2975 
L 1675 2675 
L 3000 2675 
z
" transform="scale(0.015625)"/>
        <path id="SimHei-68d2" d="M 3775 4425 
Q 3875 5050 3850 5200 
L 4400 5125 
Q 4375 5050 4350 5000 
Q 4325 4950 4200 4425 
L 5100 4425 
Q 5325 4425 5750 4450 
L 5750 4050 
Q 5425 4075 5050 4075 
L 4150 4075 
Q 4100 3900 4025 3575 
L 4850 3575 
Q 5275 3575 5500 3600 
L 5500 3200 
Q 5225 3225 4800 3225 
L 3950 3225 
Q 3900 3075 3775 2775 
L 5100 2775 
Q 5675 2775 6000 2800 
L 6000 2425 
Q 5600 2450 5100 2450 
L 4925 2450 
Q 5125 2125 5550 1862 
Q 5975 1600 6200 1550 
Q 5950 1300 5875 1175 
Q 5375 1425 5012 1787 
Q 4650 2150 4500 2450 
L 3675 2450 
Q 3550 2250 3387 2037 
Q 3225 1825 3000 1600 
Q 3350 1575 3575 1575 
L 3825 1575 
Q 3825 1850 3800 2150 
L 4275 2150 
Q 4250 1825 4250 1575 
L 4475 1575 
Q 4700 1575 5175 1600 
L 5175 1200 
Q 4650 1225 4450 1225 
L 4250 1225 
L 4250 700 
L 5025 700 
Q 5500 700 5850 725 
L 5850 325 
Q 5425 350 5025 350 
L 4250 350 
L 4250 175 
Q 4250 -275 4275 -650 
L 3800 -650 
Q 3825 -275 3825 175 
L 3825 350 
L 3225 350 
Q 2750 350 2325 325 
L 2325 725 
Q 2625 700 3200 700 
L 3825 700 
L 3825 1225 
L 3600 1225 
Q 3400 1225 2975 1200 
L 2975 1575 
Q 2775 1400 2250 1050 
Q 2125 1200 1900 1400 
Q 2250 1525 2600 1800 
Q 2950 2075 3200 2450 
L 3025 2450 
Q 2750 2450 2375 2425 
L 2375 2800 
Q 2650 2775 3125 2775 
L 3350 2775 
Q 3475 3050 3525 3225 
L 3275 3225 
Q 3050 3225 2700 3200 
L 2700 3600 
Q 3000 3575 3250 3575 
L 3600 3575 
Q 3675 3875 3700 4075 
L 3275 4075 
Q 2825 4075 2500 4050 
L 2500 4450 
Q 2725 4425 3200 4425 
L 3775 4425 
z
M 1575 375 
Q 1575 -25 1600 -625 
L 1125 -625 
Q 1150 -125 1150 375 
L 1150 2325 
Q 950 1775 500 950 
Q 375 1150 175 1275 
Q 500 1825 725 2387 
Q 950 2950 1050 3425 
Q 625 3425 275 3400 
L 275 3800 
Q 625 3775 1150 3775 
L 1150 4500 
Q 1150 4850 1125 5100 
L 1600 5100 
Q 1575 4825 1575 4500 
L 1575 3775 
Q 1925 3775 2325 3800 
L 2325 3400 
Q 1900 3425 1575 3425 
L 1575 2600 
Q 1700 2675 1875 2850 
Q 2150 2475 2375 2075 
Q 2250 2000 2000 1800 
Q 1825 2175 1575 2525 
L 1575 375 
z
" transform="scale(0.015625)"/>
        <path id="SimHei-6027" d="M 3450 4525 
Q 3325 4075 3275 3750 
L 4050 3750 
L 4050 4275 
Q 4050 4700 4025 5100 
L 4550 5100 
Q 4525 4700 4525 4275 
L 4525 3750 
L 5025 3750 
Q 5350 3750 5800 3775 
L 5800 3300 
Q 5350 3325 5025 3325 
L 4525 3325 
L 4525 2000 
L 4975 2000 
Q 5350 2000 5725 2025 
L 5725 1550 
Q 5350 1575 4975 1575 
L 4525 1575 
L 4525 25 
L 5200 25 
Q 5625 25 6025 50 
L 6025 -400 
Q 5625 -375 5200 -375 
L 3275 -375 
Q 2825 -375 2400 -400 
L 2400 50 
Q 2825 25 3250 25 
L 4050 25 
L 4050 1575 
L 3625 1575 
Q 3300 1575 2875 1550 
L 2875 2025 
Q 3200 2000 3625 2000 
L 4050 2000 
L 4050 3325 
L 3175 3325 
Q 3100 2950 2775 2225 
Q 2500 2375 2325 2400 
Q 2675 3125 2775 3650 
Q 2875 4175 2950 4650 
Q 3200 4575 3450 4525 
z
M 1700 5150 
Q 1675 4650 1675 4175 
L 1675 425 
Q 1675 -100 1700 -625 
L 1175 -625 
Q 1200 -100 1200 425 
L 1200 4175 
Q 1200 4700 1175 5150 
L 1700 5150 
z
M 975 3725 
Q 825 2675 700 2150 
Q 450 2200 250 2250 
Q 425 2900 525 3800 
Q 725 3775 975 3725 
z
M 2125 4025 
Q 2325 3625 2525 3000 
Q 2300 2925 2125 2825 
Q 1950 3375 1750 3850 
Q 1950 3950 2125 4025 
z
" transform="scale(0.015625)"/>
       </defs>
       <use xlink:href="#SimHei-566a"/>
       <use xlink:href="#SimHei-58f0" transform="translate(100 0)"/>
       <use xlink:href="#SimHei-9c81" transform="translate(200 0)"/>
       <use xlink:href="#SimHei-68d2" transform="translate(300 0)"/>
       <use xlink:href="#SimHei-6027" transform="translate(400 0)"/>
      </g>
     </g>
    </g>
    <g id="xtick_3">
     <g id="line2d_3">
      <path d="M 206.528434 230.51769 
L 305.422305 366.633425 
" clip-path="url(#p371017c023)" style="fill: none; stroke-dasharray: 2.22,0.96; stroke-dashoffset: 0; stroke: #808080; stroke-opacity: 0.5; stroke-width: 0.6"/>
     </g>
     <g id="text_3">
      <!-- 小样本性能 -->
      <g transform="translate(281.151298 382.301459) scale(0.13 -0.13)">
       <defs>
        <path id="SimHei-5c0f" d="M 3500 5150 
Q 3475 4800 3475 4200 
L 3475 175 
Q 3475 -300 3225 -425 
Q 2975 -550 2375 -600 
Q 2325 -300 2150 -25 
Q 2700 -25 2837 0 
Q 2975 25 2975 300 
L 2975 4200 
Q 2975 4650 2950 5150 
L 3500 5150 
z
M 2075 3400 
Q 1850 2775 1550 1962 
Q 1250 1150 1025 750 
Q 775 950 500 1000 
Q 925 1750 1175 2487 
Q 1425 3225 1500 3575 
Q 1800 3425 2075 3400 
z
M 4675 3600 
Q 5675 1800 5875 1150 
Q 5625 1100 5375 925 
Q 5000 2000 4225 3325 
Q 4425 3425 4675 3600 
z
" transform="scale(0.015625)"/>
        <path id="SimHei-6837" d="M 4350 4025 
Q 4600 4575 4850 5225 
Q 5250 5075 5375 5000 
Q 5150 4725 4850 4025 
L 4950 4025 
Q 5650 4050 5950 4050 
L 5950 3600 
Q 5675 3625 5175 3625 
L 4550 3625 
L 4550 2650 
L 4950 2650 
Q 5525 2675 5800 2675 
L 5800 2225 
Q 5475 2250 5025 2250 
L 4550 2250 
L 4550 1225 
L 5325 1225 
Q 5800 1250 6100 1250 
L 6100 800 
Q 5825 825 5325 825 
L 4550 825 
L 4550 275 
Q 4550 -250 4575 -600 
L 4075 -600 
L 4075 825 
L 3475 825 
Q 3000 825 2550 800 
L 2550 1275 
Q 3000 1250 3500 1225 
L 4075 1225 
L 4075 2250 
L 3650 2250 
Q 3225 2250 2900 2225 
L 2900 2700 
Q 3200 2675 3675 2650 
L 4075 2650 
L 4075 3625 
L 3475 3625 
Q 3050 3625 2750 3600 
L 2750 4075 
Q 3050 4050 3475 4025 
L 4350 4025 
z
M 1325 4350 
Q 1325 4775 1300 5125 
L 1825 5125 
Q 1800 4725 1800 4350 
L 1800 3750 
Q 2125 3750 2475 3775 
L 2475 3325 
Q 2125 3350 1800 3350 
L 1800 2425 
Q 2000 2600 2100 2675 
Q 2375 2325 2725 1775 
Q 2575 1700 2300 1475 
Q 2025 1975 1800 2350 
L 1800 475 
Q 1800 -50 1825 -575 
L 1300 -575 
Q 1325 -25 1325 475 
L 1325 2250 
Q 925 1300 525 725 
Q 425 950 225 1175 
Q 950 2150 1225 3350 
Q 825 3350 350 3325 
L 350 3775 
Q 825 3750 1325 3750 
L 1325 4350 
z
M 3575 5200 
Q 3800 4775 3950 4350 
Q 3650 4250 3525 4175 
Q 3350 4600 3150 5000 
Q 3425 5125 3575 5200 
z
" transform="scale(0.015625)"/>
        <path id="SimHei-672c" d="M 2950 3925 
L 2950 4425 
Q 2950 4825 2925 5175 
L 3475 5175 
Q 3450 4900 3450 4450 
L 3450 3925 
L 4850 3925 
Q 5275 3925 5850 3950 
L 5850 3475 
Q 5300 3500 4875 3500 
L 3850 3500 
Q 4200 2350 4862 1687 
Q 5525 1025 6075 800 
Q 5850 625 5650 325 
Q 4800 900 4262 1637 
Q 3725 2375 3450 3350 
L 3450 1000 
L 3775 1000 
Q 4175 1000 4600 1025 
L 4600 550 
Q 4175 575 3750 575 
L 3450 575 
Q 3450 0 3475 -600 
L 2925 -600 
Q 2950 0 2950 575 
L 2625 575 
Q 2225 575 1825 550 
L 1825 1025 
Q 2225 1000 2625 1000 
L 2950 1000 
L 2950 3300 
Q 2550 2275 2062 1575 
Q 1575 875 750 175 
Q 550 450 275 575 
Q 1100 1075 1650 1825 
Q 2200 2575 2525 3500 
L 1425 3500 
Q 1025 3500 575 3475 
L 575 3950 
Q 1025 3925 1400 3925 
L 2950 3925 
z
" transform="scale(0.015625)"/>
        <path id="SimHei-80fd" d="M 2025 -150 
Q 2475 -150 2525 -62 
Q 2575 25 2575 200 
L 2575 550 
L 1225 550 
L 1225 -625 
L 750 -625 
Q 775 -125 775 275 
L 775 1950 
Q 775 2400 750 2750 
L 3050 2750 
Q 3025 2375 3025 1925 
L 3025 -175 
Q 3000 -450 2800 -525 
Q 2600 -600 2225 -650 
Q 2175 -425 2025 -150 
z
M 5800 1625 
Q 5700 1600 5212 1375 
Q 4725 1150 4100 950 
L 4100 250 
Q 4100 -50 4375 -50 
L 5275 -50 
Q 5475 0 5550 575 
Q 5750 475 6050 375 
Q 5875 -425 5475 -425 
L 4125 -425 
Q 3650 -425 3650 50 
L 3650 1675 
Q 3650 2050 3625 2350 
L 4125 2350 
Q 4100 2050 4100 1700 
L 4100 1375 
Q 4350 1450 4762 1650 
Q 5175 1850 5425 2075 
Q 5650 1775 5800 1625 
z
M 4100 4100 
Q 4450 4250 4775 4412 
Q 5100 4575 5425 4825 
Q 5625 4575 5775 4400 
Q 5625 4350 5137 4112 
Q 4650 3875 4100 3700 
L 4100 3325 
Q 4100 3025 4450 3025 
L 5175 3025 
Q 5425 3025 5500 3675 
Q 5750 3550 6000 3450 
Q 5825 2650 5375 2650 
L 4250 2650 
Q 3650 2650 3650 3200 
L 3650 4475 
Q 3650 4775 3625 5125 
L 4125 5125 
Q 4100 4950 4100 4400 
L 4100 4100 
z
M 3025 3075 
Q 2950 3200 2825 3350 
Q 2000 3300 1450 3250 
Q 900 3200 625 3125 
Q 550 3425 450 3650 
Q 625 3725 987 4187 
Q 1350 4650 1575 5175 
Q 1700 5075 1850 5025 
Q 2000 4975 2175 4900 
Q 1975 4750 1762 4450 
Q 1550 4150 1075 3600 
Q 2125 3650 2625 3675 
Q 2325 4075 2200 4200 
Q 2375 4300 2600 4475 
Q 2800 4200 2987 3975 
Q 3175 3750 3475 3400 
Q 3200 3200 3025 3075 
z
M 2575 950 
L 2575 1475 
L 1225 1475 
L 1225 950 
L 2575 950 
z
M 2575 1875 
L 2575 2350 
L 1225 2350 
L 1225 1875 
L 2575 1875 
z
" transform="scale(0.015625)"/>
       </defs>
       <use xlink:href="#SimHei-5c0f"/>
       <use xlink:href="#SimHei-6837" transform="translate(100 0)"/>
       <use xlink:href="#SimHei-672c" transform="translate(200 0)"/>
       <use xlink:href="#SimHei-6027" transform="translate(300 0)"/>
       <use xlink:href="#SimHei-80fd" transform="translate(400 0)"/>
      </g>
     </g>
    </g>
    <g id="xtick_4">
     <g id="line2d_4">
      <path d="M 206.528434 230.51769 
L 107.634564 366.633425 
" clip-path="url(#p371017c023)" style="fill: none; stroke-dasharray: 2.22,0.96; stroke-dashoffset: 0; stroke: #808080; stroke-opacity: 0.5; stroke-width: 0.6"/>
     </g>
     <g id="text_4">
      <!-- 可解释性 -->
      <g transform="translate(73.405571 382.403022) scale(0.13 -0.13)">
       <defs>
        <path id="SimHei-53ef" d="M 3600 3500 
Q 3575 3175 3575 2775 
L 3575 1550 
Q 3575 1125 3600 825 
L 3075 825 
L 3075 1275 
L 1650 1275 
L 1650 600 
L 1150 600 
Q 1175 775 1175 1175 
L 1175 2775 
Q 1175 3175 1150 3500 
L 3600 3500 
z
M 5200 4675 
Q 5600 4675 6050 4700 
L 6050 4225 
Q 5650 4250 5225 4250 
L 5075 4250 
L 5075 125 
Q 5075 -325 4812 -462 
Q 4550 -600 3750 -675 
Q 3700 -350 3550 -75 
Q 4075 -100 4300 -50 
Q 4525 0 4525 225 
L 4525 4250 
L 1525 4250 
Q 875 4250 350 4225 
L 350 4700 
Q 875 4675 1500 4675 
L 5200 4675 
z
M 3075 1700 
L 3075 3075 
L 1650 3075 
L 1650 1700 
L 3075 1700 
z
" transform="scale(0.015625)"/>
        <path id="SimHei-89e3" d="M 1925 5025 
Q 1725 4925 1625 4575 
L 2925 4575 
Q 2800 4400 2600 4100 
Q 2400 3800 2325 3650 
L 3225 3650 
Q 3175 3150 3175 2650 
L 3175 75 
Q 3175 -225 3012 -312 
Q 2850 -400 2500 -450 
Q 2450 -175 2350 75 
Q 2550 75 2650 87 
Q 2750 100 2750 325 
L 2750 1150 
L 2225 1150 
L 2225 -25 
L 1800 -25 
L 1800 1150 
L 1275 1150 
Q 1250 775 1150 375 
Q 1050 -25 825 -500 
Q 600 -375 350 -250 
Q 600 100 725 612 
Q 850 1125 875 1925 
Q 900 2725 875 3525 
Q 675 3300 550 3175 
Q 400 3375 200 3525 
Q 575 3825 887 4262 
Q 1200 4700 1400 5300 
Q 1600 5175 1925 5025 
z
M 4325 2425 
Q 4200 2325 4150 2125 
L 4575 2125 
Q 4575 2650 4550 2825 
L 5050 2825 
Q 5000 2600 5000 2125 
L 5350 2125 
Q 5725 2125 5950 2150 
L 5950 1700 
Q 5625 1750 5300 1750 
L 5000 1750 
L 5000 1025 
L 5175 1025 
Q 5650 1025 6150 1050 
L 6150 625 
Q 5675 650 5175 650 
L 5000 650 
L 5000 225 
Q 5000 -125 5025 -650 
L 4550 -650 
Q 4575 -125 4575 225 
L 4575 650 
L 4025 650 
Q 3750 650 3325 625 
L 3325 1050 
Q 3700 1025 4025 1025 
L 4575 1025 
L 4575 1750 
L 3950 1750 
Q 3875 1550 3725 1250 
Q 3550 1350 3325 1525 
Q 3500 1725 3625 2050 
Q 3750 2375 3825 2675 
L 4325 2425 
z
M 4900 2975 
Q 4850 3250 4725 3500 
Q 5000 3500 5162 3525 
Q 5325 3550 5350 3675 
Q 5375 3800 5425 4550 
L 4525 4550 
Q 4375 3850 4225 3537 
Q 4075 3225 3750 2850 
Q 3600 3050 3350 3225 
Q 3625 3425 3800 3737 
Q 3975 4050 4050 4550 
Q 3750 4550 3325 4525 
L 3325 4950 
Q 3725 4925 4050 4925 
L 5925 4925 
Q 5850 3700 5787 3450 
Q 5725 3200 5475 3100 
Q 5225 3000 4900 2975 
z
M 1825 3650 
Q 2025 3900 2175 4200 
L 1375 4200 
Q 1150 3900 975 3650 
L 1825 3650 
z
M 2750 1550 
L 2750 2225 
L 2225 2225 
L 2225 1550 
L 2750 1550 
z
M 2750 2600 
L 2750 3275 
L 2225 3275 
L 2225 2600 
L 2750 2600 
z
M 1800 1550 
L 1800 2225 
L 1325 2225 
L 1300 1550 
L 1800 1550 
z
M 1800 2600 
L 1800 3275 
L 1325 3275 
L 1325 2600 
L 1800 2600 
z
" transform="scale(0.015625)"/>
        <path id="SimHei-91ca" d="M 2850 4750 
Q 2500 4700 1925 4575 
L 1925 2975 
Q 2300 2975 2700 3000 
L 2700 2525 
Q 2300 2550 1925 2550 
L 1925 450 
Q 1925 25 1950 -550 
L 1450 -550 
Q 1475 50 1475 450 
L 1475 1925 
Q 1300 1500 1087 1137 
Q 875 775 575 375 
Q 400 625 200 750 
Q 525 1125 850 1650 
Q 1175 2175 1275 2550 
Q 875 2550 400 2525 
L 400 3000 
Q 875 2975 1475 2975 
L 1475 4500 
Q 800 4400 550 4325 
Q 475 4575 325 4800 
Q 1200 4850 1712 4962 
Q 2225 5075 2550 5275 
Q 2650 5025 2850 4750 
z
M 5700 4950 
Q 5425 4075 4775 3325 
Q 5250 3025 6150 2900 
Q 5900 2675 5850 2400 
Q 4975 2600 4425 3050 
Q 3875 2625 3150 2325 
Q 3050 2575 2800 2800 
Q 3450 2925 4050 3300 
Q 3525 3800 3325 4550 
L 3025 4550 
L 3025 4975 
Q 3450 4950 3825 4950 
L 5700 4950 
z
M 4200 2025 
Q 4200 2300 4175 2575 
L 4700 2575 
Q 4650 2275 4650 2025 
Q 5325 2025 5725 2050 
L 5725 1575 
Q 5325 1600 4650 1600 
L 4650 950 
Q 5675 950 6050 975 
L 6050 525 
Q 5675 550 4650 550 
Q 4650 -175 4675 -625 
L 4175 -625 
Q 4200 -250 4200 550 
Q 3225 550 2900 525 
L 2900 975 
Q 3225 950 4200 950 
L 4200 1600 
Q 3475 1600 3175 1575 
L 3175 2050 
Q 3475 2025 4200 2025 
z
M 3775 4550 
Q 3975 3925 4400 3600 
Q 4875 4125 5025 4550 
L 3775 4550 
z
M 2250 2225 
Q 2775 1675 2950 1500 
Q 2750 1350 2650 1175 
Q 2450 1375 1975 1875 
Q 2100 2050 2250 2225 
z
M 2925 4150 
Q 2775 3950 2625 3250 
Q 2425 3325 2175 3350 
Q 2350 3950 2425 4275 
Q 2650 4200 2925 4150 
z
M 950 4075 
Q 1150 3450 1200 3250 
Q 950 3225 725 3125 
Q 700 3350 500 3950 
Q 675 4000 950 4075 
z
" transform="scale(0.015625)"/>
       </defs>
       <use xlink:href="#SimHei-53ef"/>
       <use xlink:href="#SimHei-89e3" transform="translate(100 0)"/>
       <use xlink:href="#SimHei-91ca" transform="translate(200 0)"/>
       <use xlink:href="#SimHei-6027" transform="translate(300 0)"/>
      </g>
     </g>
    </g>
    <g id="xtick_5">
     <g id="line2d_5">
      <path d="M 206.528434 230.51769 
L 46.514791 178.526105 
" clip-path="url(#p371017c023)" style="fill: none; stroke-dasharray: 2.22,0.96; stroke-dashoffset: 0; stroke: #808080; stroke-opacity: 0.5; stroke-width: 0.6"/>
     </g>
     <g id="text_5">
      <!-- 训练效率 -->
      <g transform="translate(7.2 178.668617) scale(0.13 -0.13)">
       <defs>
        <path id="SimHei-8bad" d="M 1650 3300 
Q 1625 2725 1625 2225 
L 1625 675 
Q 1950 1125 2050 1275 
Q 2175 1125 2350 900 
Q 2025 500 1800 212 
Q 1575 -75 1325 -425 
Q 1150 -200 950 -50 
Q 1150 225 1150 625 
L 1150 2875 
L 975 2875 
Q 600 2875 300 2850 
L 300 3325 
Q 600 3300 975 3300 
L 1650 3300 
z
M 3425 4600 
Q 3375 4350 3387 3362 
Q 3400 2375 3337 1887 
Q 3275 1400 3087 837 
Q 2900 275 2450 -375 
Q 2225 -200 1975 -125 
Q 2550 500 2762 1362 
Q 2975 2225 2950 3337 
Q 2925 4450 2900 4675 
Q 3150 4625 3425 4600 
z
M 5875 4700 
Q 5850 4500 5850 3975 
L 5850 625 
Q 5850 125 5875 -400 
L 5400 -400 
Q 5425 125 5425 600 
L 5425 3975 
Q 5425 4500 5400 4700 
L 5875 4700 
z
M 4600 175 
L 4125 175 
Q 4150 725 4150 1150 
L 4150 3600 
Q 4150 4050 4125 4350 
L 4600 4350 
L 4600 175 
z
M 1000 5150 
Q 1650 4600 2100 4100 
Q 1875 3925 1750 3750 
Q 1050 4550 700 4800 
Q 850 4950 1000 5150 
z
" transform="scale(0.015625)"/>
        <path id="SimHei-7ec3" d="M 3300 3825 
Q 2950 3825 2400 3800 
L 2400 4250 
Q 2950 4225 3325 4225 
L 3625 4225 
Q 3875 4950 3900 5175 
Q 4200 5025 4450 4925 
Q 4350 4825 4262 4612 
Q 4175 4400 4100 4225 
L 5025 4225 
Q 5425 4225 5900 4250 
L 5900 3800 
Q 5550 3825 5025 3825 
L 3975 3825 
Q 3850 3525 3700 3150 
L 4675 3150 
Q 4650 2875 4650 2475 
L 4650 1975 
L 4975 1975 
Q 5350 1975 5800 2000 
L 5800 1550 
Q 5350 1575 4975 1575 
L 4650 1575 
L 4650 125 
Q 4650 -300 4462 -425 
Q 4275 -550 3650 -625 
Q 3625 -375 3450 -100 
Q 4075 -125 4137 -25 
Q 4200 75 4200 325 
L 4200 1575 
L 3425 1575 
Q 3250 1575 3100 1562 
Q 2950 1550 2750 1475 
Q 2650 1725 2550 1950 
Q 2800 2025 3125 2775 
Q 2950 2775 2450 2750 
L 2450 3175 
Q 3025 3150 3250 3150 
Q 3400 3525 3500 3825 
L 3300 3825 
z
M 1650 2950 
Q 1875 3300 2100 3900 
Q 2325 3725 2575 3600 
Q 2325 3275 2025 2750 
Q 1725 2225 1075 1350 
Q 1300 1400 2400 1575 
Q 2350 1300 2375 1150 
Q 1825 1100 650 825 
Q 525 1075 400 1275 
Q 625 1400 887 1737 
Q 1150 2075 1450 2575 
Q 1300 2600 1012 2562 
Q 725 2525 450 2450 
Q 350 2675 250 2925 
Q 500 3075 812 3725 
Q 1125 4375 1325 5000 
Q 1600 4825 1850 4750 
Q 1600 4375 1387 3962 
Q 1175 3550 800 2925 
Q 1375 2925 1650 2950 
z
M 2425 700 
Q 2400 425 2425 250 
Q 2000 150 1462 -25 
Q 925 -200 475 -425 
Q 400 -150 300 125 
Q 950 275 1187 337 
Q 1425 400 2425 700 
z
M 3725 875 
Q 3650 800 3287 400 
Q 2925 0 2475 -475 
Q 2300 -250 2150 -125 
Q 2425 100 2750 462 
Q 3075 825 3325 1225 
Q 3475 1050 3725 875 
z
M 5275 1225 
Q 5925 375 6200 -100 
Q 5950 -200 5750 -375 
Q 5475 175 4900 950 
Q 5075 1050 5275 1225 
z
M 4200 1975 
L 4200 2775 
L 3575 2775 
Q 3325 2250 3175 1975 
L 4200 1975 
z
" transform="scale(0.015625)"/>
        <path id="SimHei-6548" d="M 3500 2400 
Q 3400 2675 3200 2900 
Q 3500 3350 3750 4025 
Q 4000 4700 4100 5300 
Q 4400 5150 4750 5075 
Q 4625 4950 4500 4687 
Q 4375 4425 4225 4025 
Q 5800 4025 6150 4050 
L 6150 3625 
Q 5850 3650 5475 3650 
Q 5450 2925 5300 2137 
Q 5150 1350 4825 800 
Q 4900 575 5312 275 
Q 5725 -25 6175 -175 
Q 5875 -350 5775 -650 
Q 5350 -425 5050 -162 
Q 4750 100 4500 425 
Q 4175 125 3837 -112 
Q 3500 -350 2850 -700 
Q 2725 -425 2425 -250 
Q 2750 -200 3325 137 
Q 3900 475 4200 800 
Q 4000 1225 3887 1675 
Q 3775 2125 3675 2700 
L 3500 2400 
z
M 1100 2225 
Q 1525 1875 1925 1575 
Q 2125 1900 2200 2400 
Q 2450 2275 2700 2200 
Q 2475 1625 2300 1250 
L 3000 550 
Q 2775 375 2575 175 
Q 2400 450 2025 825 
Q 1825 600 1550 312 
Q 1275 25 700 -425 
Q 500 -175 250 -25 
Q 575 125 950 400 
Q 1325 675 1675 1175 
Q 1325 1475 850 1875 
L 1100 2225 
z
M 4075 2950 
Q 4100 2700 4212 2187 
Q 4325 1675 4525 1225 
Q 4775 1700 4887 2475 
Q 5000 3250 4975 3650 
L 4100 3650 
Q 3900 3125 3725 2850 
Q 3900 2850 4075 2950 
z
M 2500 4200 
Q 2875 4200 3175 4225 
L 3175 3800 
Q 2875 3825 2525 3825 
L 1000 3825 
Q 600 3825 275 3800 
L 275 4225 
Q 600 4200 1000 4200 
L 2500 4200 
z
M 1125 3650 
Q 1400 3500 1625 3325 
Q 1525 3250 1300 2900 
Q 1050 2525 675 2000 
Q 450 2150 225 2275 
Q 550 2575 787 2975 
Q 1025 3375 1125 3650 
z
M 2475 3625 
Q 2625 3400 2850 3100 
Q 3075 2800 3250 2575 
Q 3025 2450 2825 2275 
Q 2325 3000 2075 3325 
Q 2275 3425 2475 3625 
z
M 1825 5250 
Q 2025 4875 2175 4475 
Q 1950 4375 1700 4275 
Q 1550 4650 1350 5075 
Q 1575 5150 1825 5250 
z
" transform="scale(0.015625)"/>
       </defs>
       <use xlink:href="#SimHei-8bad"/>
       <use xlink:href="#SimHei-7ec3" transform="translate(100 0)"/>
       <use xlink:href="#SimHei-6548" transform="translate(200 0)"/>
       <use xlink:href="#SimHei-7387" transform="translate(300 0)"/>
      </g>
     </g>
    </g>
   </g>
   <g id="matplotlib.axis_2">
    <g id="ytick_1">
     <g id="line2d_6">
      <path d="M 206.528434 188.455614 
C 212.051976 188.455614 217.521807 189.543631 222.624894 191.657399 
C 227.72798 193.771167 232.36508 196.869578 236.270813 200.775311 
C 240.176546 204.681044 243.274957 209.318144 245.388725 214.42123 
C 247.502493 219.524317 248.59051 224.994148 248.59051 230.51769 
C 248.59051 236.041231 247.502493 241.511062 245.388725 246.614149 
C 243.274957 251.717236 240.176546 256.354335 236.270813 260.260068 
C 232.36508 264.165802 227.72798 267.264212 222.624894 269.37798 
C 217.521807 271.491748 212.051976 272.579765 206.528434 272.579765 
C 201.004893 272.579765 195.535062 271.491748 190.431975 269.37798 
C 185.328888 267.264212 180.691789 264.165802 176.786056 260.260068 
C 172.880322 256.354335 169.781912 251.717236 167.668144 246.614149 
C 165.554376 241.511062 164.466359 236.041231 164.466359 230.51769 
C 164.466359 224.994148 165.554376 219.524317 167.668144 214.42123 
C 169.781912 209.318144 172.880322 204.681044 176.786056 200.775311 
C 180.691789 196.869578 185.328888 193.771167 190.431975 191.657399 
C 195.535062 189.543631 201.004893 188.455614 206.528434 188.455614 
" clip-path="url(#p371017c023)" style="fill: none; stroke-dasharray: 2.22,0.96; stroke-dashoffset: 0; stroke: #808080; stroke-opacity: 0.5; stroke-width: 0.6"/>
     </g>
     <g id="text_6">
      <!-- 25% -->
      <g transform="translate(222.624894 190.532399) scale(0.09 -0.09)">
       <defs>
        <path id="SimHei-32" d="M 300 250 
Q 325 625 650 925 
Q 975 1225 1475 1862 
Q 1975 2500 2125 2850 
Q 2275 3200 2237 3450 
Q 2200 3700 2000 3862 
Q 1800 4025 1537 4000 
Q 1275 3975 1037 3800 
Q 800 3625 675 3275 
L 200 3350 
Q 400 3925 712 4187 
Q 1025 4450 1450 4475 
Q 1700 4500 1900 4462 
Q 2100 4425 2312 4287 
Q 2525 4150 2662 3875 
Q 2800 3600 2762 3212 
Q 2725 2825 2375 2287 
Q 2025 1750 1025 600 
L 2825 600 
L 2825 150 
L 300 150 
L 300 250 
z
" transform="scale(0.015625)"/>
        <path id="SimHei-35" d="M 550 1325 
Q 725 650 1150 575 
Q 1575 500 1837 662 
Q 2100 825 2212 1087 
Q 2325 1350 2312 1675 
Q 2300 2000 2137 2225 
Q 1975 2450 1725 2525 
Q 1475 2600 1162 2525 
Q 850 2450 650 2175 
L 225 2225 
Q 275 2375 700 4375 
L 2675 4375 
L 2675 3925 
L 1075 3925 
Q 950 3250 825 2850 
Q 1200 3025 1525 3012 
Q 1850 3000 2150 2862 
Q 2450 2725 2587 2487 
Q 2725 2250 2787 2012 
Q 2850 1775 2837 1500 
Q 2825 1225 2725 937 
Q 2625 650 2425 462 
Q 2225 275 1937 162 
Q 1650 50 1275 75 
Q 900 100 562 350 
Q 225 600 100 1200 
L 550 1325 
z
" transform="scale(0.015625)"/>
        <path id="SimHei-25" d="M 1400 3325 
Q 1400 2600 1187 2400 
Q 975 2200 775 2200 
Q 575 2200 362 2400 
Q 150 2600 150 3325 
Q 150 4050 362 4250 
Q 575 4450 775 4450 
Q 975 4450 1187 4250 
Q 1400 4050 1400 3325 
z
M 2625 4375 
L 700 75 
L 500 150 
L 2425 4450 
L 2625 4375 
z
M 2975 1200 
Q 2975 475 2762 275 
Q 2550 75 2350 75 
Q 2150 75 1937 275 
Q 1725 475 1725 1200 
Q 1725 1925 1937 2125 
Q 2150 2325 2350 2325 
Q 2550 2325 2762 2125 
Q 2975 1925 2975 1200 
z
M 1000 3325 
Q 1000 3775 950 3925 
Q 900 4075 775 4075 
Q 650 4075 600 3925 
Q 550 3775 550 3325 
Q 550 2875 600 2725 
Q 650 2575 775 2575 
Q 900 2575 950 2725 
Q 1000 2875 1000 3325 
z
M 2575 1200 
Q 2575 1650 2525 1800 
Q 2475 1950 2350 1950 
Q 2225 1950 2175 1800 
Q 2125 1650 2125 1200 
Q 2125 750 2175 600 
Q 2225 450 2350 450 
Q 2475 450 2525 600 
Q 2575 750 2575 1200 
z
" transform="scale(0.015625)"/>
       </defs>
       <use xlink:href="#SimHei-32"/>
       <use xlink:href="#SimHei-35" transform="translate(50 0)"/>
       <use xlink:href="#SimHei-25" transform="translate(100 0)"/>
      </g>
     </g>
    </g>
    <g id="ytick_2">
     <g id="line2d_7">
      <path d="M 206.528434 146.393539 
C 217.575517 146.393539 228.51518 148.569573 238.721353 152.797109 
C 248.927526 157.024644 258.201725 163.221465 266.013192 171.032932 
C 273.824659 178.844399 280.02148 188.118598 284.249015 198.324771 
C 288.476551 208.530944 290.652585 219.470607 290.652585 230.51769 
C 290.652585 241.564772 288.476551 252.504435 284.249015 262.710608 
C 280.02148 272.916781 273.824659 282.19098 266.013192 290.002447 
C 258.201725 297.813914 248.927526 304.010735 238.721353 308.238271 
C 228.51518 312.465806 217.575517 314.64184 206.528434 314.64184 
C 195.481352 314.64184 184.541689 312.465806 174.335516 308.238271 
C 164.129343 304.010735 154.855144 297.813914 147.043677 290.002447 
C 139.23221 282.19098 133.035389 272.916781 128.807853 262.710608 
C 124.580318 252.504435 122.404284 241.564772 122.404284 230.51769 
C 122.404284 219.470607 124.580318 208.530944 128.807853 198.324771 
C 133.035389 188.118598 139.23221 178.844399 147.043677 171.032932 
C 154.855144 163.221465 164.129343 157.024644 174.335516 152.797109 
C 184.541689 148.569573 195.481352 146.393539 206.528434 146.393539 
" clip-path="url(#p371017c023)" style="fill: none; stroke-dasharray: 2.22,0.96; stroke-dashoffset: 0; stroke: #808080; stroke-opacity: 0.5; stroke-width: 0.6"/>
     </g>
     <g id="text_7">
      <!-- 50% -->
      <g transform="translate(238.721353 151.672109) scale(0.09 -0.09)">
       <defs>
        <path id="SimHei-30" d="M 225 2537 
Q 250 3200 412 3587 
Q 575 3975 875 4225 
Q 1175 4475 1612 4475 
Q 2050 4475 2375 4112 
Q 2700 3750 2800 3200 
Q 2900 2650 2862 1937 
Q 2825 1225 2612 775 
Q 2400 325 1975 150 
Q 1550 -25 1125 187 
Q 700 400 525 750 
Q 350 1100 275 1487 
Q 200 1875 225 2537 
z
M 750 2687 
Q 675 2000 800 1462 
Q 925 925 1212 700 
Q 1500 475 1800 612 
Q 2100 750 2237 1162 
Q 2375 1575 2375 2062 
Q 2375 2550 2337 2950 
Q 2300 3350 2112 3675 
Q 1925 4000 1612 4012 
Q 1300 4025 1062 3700 
Q 825 3375 750 2687 
z
" transform="scale(0.015625)"/>
       </defs>
       <use xlink:href="#SimHei-35"/>
       <use xlink:href="#SimHei-30" transform="translate(50 0)"/>
       <use xlink:href="#SimHei-25" transform="translate(100 0)"/>
      </g>
     </g>
    </g>
    <g id="ytick_3">
     <g id="line2d_8">
      <path d="M 206.528434 104.331464 
C 223.099058 104.331464 239.508553 107.595515 254.817812 113.936818 
C 270.127072 120.278121 284.03837 129.573353 295.75557 141.290554 
C 307.472771 153.007754 316.768003 166.919052 323.109306 182.228312 
C 329.450609 197.537571 332.71466 213.947066 332.71466 230.51769 
C 332.71466 247.088313 329.450609 263.497808 323.109306 278.807068 
C 316.768003 294.116327 307.472771 308.027625 295.75557 319.744826 
C 284.03837 331.462026 270.127072 340.757258 254.817812 347.098561 
C 239.508553 353.439864 223.099058 356.703915 206.528434 356.703915 
C 189.957811 356.703915 173.548316 353.439864 158.239056 347.098561 
C 142.929797 340.757258 129.018499 331.462026 117.301298 319.744826 
C 105.584098 308.027625 96.288866 294.116327 89.947563 278.807068 
C 83.60626 263.497808 80.342209 247.088313 80.342209 230.51769 
C 80.342209 213.947066 83.60626 197.537571 89.947563 182.228312 
C 96.288866 166.919052 105.584098 153.007754 117.301298 141.290554 
C 129.018499 129.573353 142.929797 120.278121 158.239056 113.936818 
C 173.548316 107.595515 189.957811 104.331464 206.528434 104.331464 
" clip-path="url(#p371017c023)" style="fill: none; stroke-dasharray: 2.22,0.96; stroke-dashoffset: 0; stroke: #808080; stroke-opacity: 0.5; stroke-width: 0.6"/>
     </g>
     <g id="text_8">
      <!-- 75% -->
      <g transform="translate(254.817812 112.811818) scale(0.09 -0.09)">
       <defs>
        <path id="SimHei-37" d="M 850 150 
Q 1300 2050 2425 3925 
L 275 3925 
L 275 4375 
L 2950 4375 
L 2950 3950 
Q 1775 2050 1400 150 
L 850 150 
z
" transform="scale(0.015625)"/>
       </defs>
       <use xlink:href="#SimHei-37"/>
       <use xlink:href="#SimHei-35" transform="translate(50 0)"/>
       <use xlink:href="#SimHei-25" transform="translate(100 0)"/>
      </g>
     </g>
    </g>
    <g id="ytick_4">
     <g id="line2d_9">
      <path d="M 206.528434 62.269388 
C 228.622599 62.269388 250.501925 66.621457 270.914272 75.076528 
C 291.326618 83.531598 309.875016 95.925241 325.497949 111.548175 
C 341.120883 127.171108 353.514526 145.719506 361.969596 166.131852 
C 370.424667 186.544199 374.776736 208.423525 374.776736 230.51769 
C 374.776736 252.611854 370.424667 274.491181 361.969596 294.903527 
C 353.514526 315.315873 341.120883 333.864271 325.497949 349.487204 
C 309.875016 365.110138 291.326618 377.503781 270.914272 385.958851 
C 250.501925 394.413922 228.622599 398.765991 206.528434 398.765991 
C 184.43427 398.765991 162.554943 394.413922 142.142597 385.958851 
C 121.730251 377.503781 103.181853 365.110138 87.55892 349.487204 
C 71.935986 333.864271 59.542343 315.315873 51.087273 294.903527 
C 42.632202 274.491181 38.280133 252.611854 38.280133 230.51769 
C 38.280133 208.423525 42.632202 186.544199 51.087273 166.131852 
C 59.542343 145.719506 71.935986 127.171108 87.55892 111.548175 
C 103.181853 95.925241 121.730251 83.531598 142.142597 75.076528 
C 162.554943 66.621457 184.43427 62.269388 206.528434 62.269388 
" clip-path="url(#p371017c023)" style="fill: none; stroke-dasharray: 2.22,0.96; stroke-dashoffset: 0; stroke: #808080; stroke-opacity: 0.5; stroke-width: 0.6"/>
     </g>
     <g id="text_9">
      <!-- 100% -->
      <g transform="translate(270.914272 73.951528) scale(0.09 -0.09)">
       <defs>
        <path id="SimHei-31" d="M 1400 3600 
Q 1075 3275 575 2975 
L 575 3450 
Q 1200 3875 1600 4450 
L 1900 4450 
L 1900 150 
L 1400 150 
L 1400 3600 
z
" transform="scale(0.015625)"/>
       </defs>
       <use xlink:href="#SimHei-31"/>
       <use xlink:href="#SimHei-30" transform="translate(50 0)"/>
       <use xlink:href="#SimHei-30" transform="translate(100 0)"/>
       <use xlink:href="#SimHei-25" transform="translate(150 0)"/>
      </g>
     </g>
    </g>
   </g>
   <g id="patch_8">
    <path d="M 206.528434 62.269388 
C 184.43427 62.269388 162.554943 66.621457 142.142597 75.076528 
C 121.730251 83.531598 103.181853 95.925241 87.55892 111.548175 
C 71.935986 127.171108 59.542343 145.719506 51.087273 166.131852 
C 42.632202 186.544199 38.280133 208.423525 38.280133 230.51769 
C 38.280133 252.611854 42.632202 274.491181 51.087273 294.903527 
C 59.542343 315.315873 71.935986 333.864271 87.55892 349.487204 
C 103.181853 365.110138 121.730251 377.503781 142.142597 385.958851 
C 162.554943 394.413922 184.43427 398.765991 206.528434 398.765991 
C 228.622599 398.765991 250.501925 394.413922 270.914272 385.958851 
C 291.326618 377.503781 309.875016 365.110138 325.497949 349.487204 
C 341.120883 333.864271 353.514526 315.315873 361.969596 294.903527 
C 370.424667 274.491181 374.776736 252.611854 374.776736 230.51769 
C 374.776736 208.423525 370.424667 186.544199 361.969596 166.131852 
C 353.514526 145.719506 341.120883 127.171108 325.497949 111.548175 
C 309.875016 95.925241 291.326618 83.531598 270.914272 75.076528 
C 250.501925 66.621457 228.622599 62.269388 206.528434 62.269388 
" style="fill: none; stroke: #000000; stroke-width: 0.8; stroke-linejoin: miter; stroke-linecap: square"/>
   </g>
   <g id="line2d_10">
    <path d="M 206.528434 98.933497 
L 322.471653 192.845454 
L 264.216525 309.918535 
L 152.136806 305.381344 
L 46.571042 178.544382 
L 206.528434 98.933497 
" clip-path="url(#p371017c023)" style="fill: none; stroke: #5b8dbe; stroke-width: 1.5; stroke-linecap: square"/>
   </g>
   <g id="line2d_11">
    <path d="M 206.528434 71.733355 
L 338.806379 187.53798 
L 266.963577 313.699528 
L 171.91558 278.158197 
L 66.63368 185.063129 
L 206.528434 71.733355 
" clip-path="url(#p371017c023)" style="fill: none; stroke: #4caf8a; stroke-width: 1.5; stroke-linecap: square"/>
   </g>
   <g id="line2d_12">
    <path d="M 206.528434 79.374632 
L 332.0058 189.747622 
L 272.457681 321.261513 
L 147.192112 312.187131 
L 53.808592 180.896005 
L 206.528434 79.374632 
" clip-path="url(#p371017c023)" style="fill: none; stroke: #e0a830; stroke-width: 1.5; stroke-linecap: square"/>
   </g>
   <g id="line2d_13">
    <path d="M 206.528434 74.327183 
L 335.1394 188.729454 
L 261.469473 306.137542 
L 181.804967 264.546623 
L 126.521594 204.521891 
L 206.528434 74.327183 
" clip-path="url(#p371017c023)" style="fill: none; stroke: #9b6bb5; stroke-width: 1.5; stroke-linecap: square"/>
   </g>
   <g id="line2d_14">
    <path d="M 206.528434 69.490045 
L 337.672949 187.906254 
L 294.434097 351.509454 
L 109.612442 363.91111 
L 52.233581 180.384253 
L 206.528434 69.490045 
" clip-path="url(#p371017c023)" style="fill: none; stroke: #e24b4a; stroke-width: 2.8; stroke-linecap: square"/>
   </g>
   <g id="text_10">
    <!-- 各方法综合能力对比雷达图 -->
    <g transform="translate(122.528434 22.201029) scale(0.14 -0.14)">
     <defs>
      <path id="SimHei-5404" d="M 5100 4425 
Q 4850 4000 4525 3600 
Q 4200 3200 3675 2750 
Q 4050 2500 4750 2325 
Q 5450 2150 6050 2125 
Q 5825 1825 5775 1600 
Q 5050 1750 4412 1962 
Q 3775 2175 3300 2475 
Q 2750 2150 2000 1875 
Q 1250 1600 550 1425 
Q 475 1625 275 1850 
Q 900 1950 1662 2200 
Q 2425 2450 2950 2750 
Q 2525 3150 2100 3900 
Q 1900 3575 1675 3300 
Q 1450 3025 1250 2800 
Q 1050 3000 850 3100 
Q 1200 3400 1587 3950 
Q 1975 4500 2175 5225 
Q 2450 5075 2725 5000 
Q 2600 4850 2375 4425 
L 5100 4425 
z
M 4975 1675 
Q 4950 1125 4950 400 
Q 4950 -325 4975 -575 
L 4475 -575 
L 4475 -225 
L 2050 -225 
L 2050 -625 
L 1550 -625 
Q 1575 -275 1575 400 
Q 1575 1075 1550 1675 
L 4975 1675 
z
M 4475 200 
L 4475 1250 
L 2050 1250 
L 2050 200 
L 4475 200 
z
M 3325 3000 
Q 3875 3450 4300 4025 
L 2500 4025 
Q 2975 3275 3325 3000 
z
" transform="scale(0.015625)"/>
      <path id="SimHei-65b9" d="M 425 3975 
Q 825 3950 1300 3950 
L 5025 3950 
Q 5625 3950 6000 3975 
L 6000 3475 
Q 5675 3500 5100 3500 
L 2525 3500 
Q 2525 3225 2500 2500 
L 5300 2500 
Q 5250 2175 5200 1550 
L 5050 175 
Q 5000 -275 4625 -412 
Q 4250 -550 3525 -625 
Q 3500 -300 3325 -50 
Q 3900 -75 4200 0 
Q 4500 75 4575 425 
L 4725 2050 
L 2475 2050 
Q 2375 1350 2162 875 
Q 1950 400 1575 0 
Q 1200 -400 825 -700 
Q 725 -550 375 -350 
Q 700 -175 1062 200 
Q 1425 575 1662 1050 
Q 1900 1525 1962 2100 
Q 2025 2675 2025 3500 
L 1325 3500 
Q 775 3500 425 3475 
L 425 3975 
z
M 3075 4075 
Q 2850 4575 2575 5000 
Q 2800 5125 3025 5275 
Q 3300 4850 3575 4350 
Q 3325 4250 3075 4075 
z
" transform="scale(0.015625)"/>
      <path id="SimHei-6cd5" d="M 6075 -300 
Q 5850 -425 5625 -625 
Q 5450 -300 5325 -125 
Q 4525 -175 3587 -262 
Q 2650 -350 2325 -450 
Q 2250 -150 2125 75 
Q 2450 175 2825 725 
Q 3200 1275 3500 2100 
L 2800 2100 
Q 2350 2100 1950 2075 
L 1950 2525 
Q 2350 2500 2825 2500 
L 3725 2500 
L 3725 3600 
L 3150 3600 
Q 2675 3600 2325 3575 
L 2325 4025 
Q 2725 4000 3125 4000 
L 3725 4000 
Q 3725 4700 3700 5150 
L 4250 5150 
Q 4225 4775 4225 4000 
L 4975 4000 
Q 5350 4000 5750 4025 
L 5750 3575 
Q 5350 3600 5025 3600 
L 4225 3600 
L 4225 2500 
L 5125 2500 
Q 5575 2500 6025 2525 
L 6025 2075 
Q 5575 2100 5125 2100 
L 3850 2100 
L 4100 1950 
Q 3950 1775 3625 1200 
Q 3300 625 2900 100 
Q 4000 150 5075 225 
Q 4775 675 4450 1025 
Q 4650 1175 4825 1350 
Q 5275 800 6075 -300 
z
M 300 -250 
Q 650 100 1012 625 
Q 1375 1150 1725 1725 
Q 1850 1500 2075 1375 
Q 1850 1075 1500 487 
Q 1150 -100 850 -625 
Q 650 -425 300 -250 
z
M 675 3425 
Q 1200 3100 1800 2650 
Q 1575 2500 1400 2250 
Q 925 2675 350 3050 
Q 525 3200 675 3425 
z
M 1050 4900 
Q 1550 4575 2100 4125 
Q 1900 3975 1725 3725 
Q 1250 4175 725 4525 
Q 900 4700 1050 4900 
z
" transform="scale(0.015625)"/>
      <path id="SimHei-7efc" d="M 1775 4775 
Q 1600 4525 1350 4062 
Q 1100 3600 825 3050 
L 1525 3050 
Q 1825 3600 1900 3925 
Q 2150 3725 2425 3575 
Q 2250 3425 1950 2887 
Q 1650 2350 1125 1525 
Q 1350 1550 2225 1700 
Q 2150 1450 2125 1225 
Q 1825 1225 1425 1150 
Q 1025 1075 575 950 
Q 500 1225 425 1475 
Q 675 1550 887 1900 
Q 1100 2250 1325 2700 
Q 725 2675 350 2525 
L 200 3025 
Q 500 3200 775 3812 
Q 1050 4425 1200 5025 
Q 1400 4925 1775 4775 
z
M 5250 2025 
Q 5725 2025 6125 2050 
L 6125 1575 
Q 5725 1600 5325 1600 
L 4525 1600 
L 4525 -50 
Q 4525 -475 4287 -562 
Q 4050 -650 3600 -675 
Q 3600 -450 3500 -150 
Q 3800 -175 3925 -150 
Q 4050 -125 4050 100 
L 4050 1600 
L 3350 1600 
Q 2950 1600 2550 1575 
L 2550 2050 
Q 2950 2025 3350 2025 
L 5250 2025 
z
M 4400 5200 
Q 4450 5000 4600 4375 
L 6025 4375 
Q 6000 4150 6000 3850 
Q 6000 3575 6025 3325 
L 5475 3325 
L 5475 3975 
L 3050 3975 
L 3050 3275 
L 2550 3275 
Q 2575 3600 2575 3875 
Q 2575 4150 2550 4375 
L 4025 4375 
Q 3975 4725 3850 5100 
L 4400 5200 
z
M 4750 3050 
Q 5100 3050 5500 3075 
L 5500 2600 
Q 5100 2650 4750 2650 
L 3875 2650 
Q 3475 2650 3075 2600 
L 3075 3075 
Q 3450 3050 3850 3050 
L 4750 3050 
z
M 2200 -275 
Q 2425 -75 2712 325 
Q 3000 725 3175 1100 
Q 3350 950 3625 800 
Q 3425 500 3237 212 
Q 3050 -75 2575 -600 
Q 2375 -425 2200 -275 
z
M 300 125 
Q 875 250 1300 325 
Q 1725 400 2175 525 
Q 2200 300 2225 100 
Q 1975 50 1437 -87 
Q 900 -225 525 -400 
Q 375 -125 300 125 
z
M 5225 1100 
Q 5450 850 6200 25 
Q 5975 -175 5800 -350 
Q 5600 -100 5362 200 
Q 5125 500 4875 775 
Q 5025 950 5225 1100 
z
" transform="scale(0.015625)"/>
      <path id="SimHei-5408" d="M 5050 1800 
Q 5025 1550 5025 650 
Q 5025 -250 5050 -525 
L 4525 -525 
L 4525 -50 
L 1750 -50 
L 1750 -600 
L 1250 -600 
Q 1275 -300 1275 550 
Q 1275 1425 1250 1800 
L 5050 1800 
z
M 3375 4800 
Q 4100 3925 4550 3600 
Q 5000 3275 5375 3100 
Q 5750 2925 6100 2825 
Q 5850 2550 5775 2300 
Q 5275 2525 4875 2775 
Q 4475 3025 4062 3412 
Q 3650 3800 3125 4475 
Q 2650 3800 2187 3362 
Q 1725 2925 1400 2675 
Q 1075 2425 675 2175 
Q 625 2275 275 2575 
Q 800 2825 1275 3175 
Q 1750 3525 2225 4062 
Q 2700 4600 3000 5225 
Q 3275 5050 3500 4950 
L 3375 4800 
z
M 4525 350 
L 4525 1400 
L 1750 1400 
L 1750 350 
L 4525 350 
z
M 3925 2825 
Q 4325 2825 4625 2850 
L 4625 2375 
Q 4300 2400 3950 2400 
L 2550 2400 
Q 2025 2400 1700 2375 
L 1700 2850 
Q 2175 2825 2550 2825 
L 3925 2825 
z
" transform="scale(0.015625)"/>
      <path id="SimHei-529b" d="M 3275 3275 
Q 3200 2400 3050 1875 
Q 2900 1350 2637 912 
Q 2375 475 1950 87 
Q 1525 -300 925 -675 
Q 800 -475 425 -250 
Q 1025 50 1425 375 
Q 1825 700 2112 1112 
Q 2400 1525 2537 2050 
Q 2675 2575 2725 3275 
L 2000 3275 
Q 1275 3275 675 3250 
L 675 3750 
Q 1275 3725 2000 3725 
L 2750 3725 
L 2750 4475 
Q 2750 4825 2725 5200 
Q 3000 5150 3350 5125 
Q 3300 4900 3287 4475 
Q 3275 4050 3275 3725 
L 5825 3725 
Q 5725 2375 5700 1862 
Q 5675 1350 5600 612 
Q 5525 -125 5187 -300 
Q 4850 -475 4025 -550 
Q 4000 -250 3775 100 
Q 4500 75 4750 175 
Q 5000 275 5037 550 
Q 5075 825 5112 1262 
Q 5150 1700 5225 3275 
L 3275 3275 
z
" transform="scale(0.015625)"/>
      <path id="SimHei-5bf9" d="M 525 4250 
Q 900 4225 1400 4225 
L 2825 4225 
Q 2575 2625 2200 1750 
Q 2825 875 3125 400 
Q 2950 275 2725 75 
Q 2200 975 1950 1300 
Q 1650 775 1350 425 
Q 1050 75 600 -350 
Q 425 -125 200 -25 
Q 625 275 975 675 
Q 1325 1075 1650 1700 
Q 1050 2425 550 2900 
Q 700 3025 900 3225 
Q 1625 2425 1875 2150 
Q 2200 3050 2300 3825 
L 1400 3825 
Q 900 3825 525 3800 
L 525 4250 
z
M 2925 3700 
Q 3525 3675 3750 3675 
L 4825 3675 
L 4825 4425 
Q 4825 4750 4775 5125 
L 5350 5125 
Q 5325 4825 5325 4375 
L 5325 3675 
Q 5575 3675 6150 3700 
L 6150 3250 
Q 5575 3275 5325 3275 
L 5325 125 
Q 5350 -350 5012 -475 
Q 4675 -600 4250 -650 
Q 4175 -350 4025 -100 
Q 4575 -100 4712 -37 
Q 4850 25 4825 325 
L 4825 3275 
L 3775 3275 
Q 3550 3275 2925 3225 
L 2925 3700 
z
M 3450 2725 
Q 3875 1975 4175 1325 
Q 3850 1200 3700 1075 
Q 3475 1750 3050 2475 
Q 3225 2550 3450 2725 
z
" transform="scale(0.015625)"/>
      <path id="SimHei-6bd4" d="M 3775 5100 
Q 3750 4575 3750 4100 
L 3750 3050 
Q 4925 3600 5475 4175 
Q 5675 3900 5900 3675 
Q 5600 3500 5037 3187 
Q 4475 2875 3750 2550 
L 3750 450 
Q 3750 100 4050 100 
L 5000 100 
Q 5175 100 5262 250 
Q 5350 400 5450 900 
Q 5650 775 6025 675 
Q 5850 0 5650 -175 
Q 5450 -350 5225 -350 
L 3900 -350 
Q 3250 -350 3250 275 
L 3250 4000 
Q 3250 4550 3225 5100 
L 3775 5100 
z
M 1275 4975 
Q 1250 4575 1250 4000 
L 1250 3150 
L 1850 3150 
Q 2325 3150 2875 3175 
L 2875 2650 
Q 2325 2675 1850 2675 
L 1250 2675 
L 1250 475 
Q 1650 650 1962 812 
Q 2275 975 2850 1275 
Q 2900 950 2950 750 
Q 2375 475 1762 175 
Q 1150 -125 925 -325 
Q 750 -100 575 200 
Q 700 300 750 600 
L 750 3950 
Q 750 4550 725 4975 
L 1275 4975 
z
" transform="scale(0.015625)"/>
      <path id="SimHei-96f7" d="M 5375 2125 
Q 5325 1525 5325 1125 
L 5325 275 
Q 5325 -200 5375 -625 
L 4850 -625 
L 4850 -250 
L 1525 -250 
L 1525 -650 
L 1000 -650 
Q 1025 -250 1025 325 
L 1025 1125 
Q 1025 1700 1000 2125 
L 5375 2125 
z
M 5500 3100 
L 5500 3850 
L 3450 3850 
L 3450 3200 
Q 3450 2700 3475 2250 
L 2950 2250 
L 2950 3850 
L 925 3850 
L 925 3100 
L 375 3100 
Q 400 3375 400 3650 
Q 400 3950 375 4225 
L 2950 4225 
L 2950 4675 
L 1750 4675 
Q 1375 4675 900 4650 
L 900 5050 
Q 1300 5025 1700 5025 
L 4650 5025 
Q 5050 5025 5525 5050 
L 5525 4650 
Q 5075 4675 4650 4675 
L 3450 4675 
L 3450 4225 
L 6025 4225 
Q 6000 4050 6000 3650 
Q 6000 3275 6025 3100 
L 5500 3100 
z
M 2950 125 
L 2950 750 
L 1525 750 
L 1525 125 
L 2950 125 
z
M 4850 125 
L 4850 750 
L 3450 750 
L 3450 125 
L 4850 125 
z
M 2950 1125 
L 2950 1725 
L 1525 1725 
L 1525 1125 
L 2950 1125 
z
M 4850 1125 
L 4850 1725 
L 3450 1725 
L 3450 1125 
L 4850 1125 
z
M 2525 2450 
L 1275 2450 
L 1275 2800 
L 2525 2800 
L 2525 2450 
z
M 5100 2450 
L 3875 2450 
L 3875 2800 
L 5100 2800 
L 5100 2450 
z
M 2525 3175 
L 1300 3175 
L 1300 3525 
L 2525 3525 
L 2525 3175 
z
M 5075 3175 
L 3850 3175 
L 3850 3525 
L 5075 3525 
L 5075 3175 
z
" transform="scale(0.015625)"/>
      <path id="SimHei-8fbe" d="M 1700 2975 
Q 1675 2500 1675 2225 
L 1675 775 
Q 2025 350 2600 150 
Q 3175 -50 4375 -50 
Q 5600 -50 6150 75 
Q 5975 -325 5975 -550 
Q 4925 -575 4212 -550 
Q 3500 -525 3025 -437 
Q 2550 -350 2287 -225 
Q 2025 -100 1737 137 
Q 1450 375 1212 125 
Q 975 -125 700 -475 
Q 525 -300 275 -100 
Q 625 200 1175 700 
L 1175 2550 
Q 825 2550 375 2525 
L 375 3000 
Q 900 2975 1700 2975 
z
M 3700 3700 
Q 3700 4800 3675 5225 
Q 4100 5175 4275 5150 
Q 4200 4825 4175 3700 
Q 5475 3700 5875 3725 
L 5875 3225 
Q 5475 3250 4150 3250 
Q 4075 2400 3687 1700 
Q 3300 1000 2500 375 
Q 2400 575 2125 775 
Q 2775 1225 3162 1812 
Q 3550 2400 3650 3250 
Q 2625 3250 2150 3225 
L 2150 3725 
Q 2625 3700 3700 3700 
z
M 4475 2450 
Q 5600 1225 5925 800 
Q 5675 650 5450 425 
Q 5075 1000 4100 2100 
Q 4275 2225 4475 2450 
z
M 1100 5125 
Q 1575 4575 1950 4075 
Q 1725 3900 1525 3700 
Q 1125 4325 700 4800 
Q 900 4925 1100 5125 
z
" transform="scale(0.015625)"/>
      <path id="SimHei-56fe" d="M 5800 4975 
Q 5775 4350 5775 3600 
L 5775 925 
Q 5775 150 5800 -600 
L 5300 -600 
L 5300 -275 
L 1125 -275 
L 1125 -650 
L 625 -650 
Q 650 125 650 950 
L 650 3600 
Q 650 4325 625 4975 
L 5800 4975 
z
M 5300 150 
L 5300 4575 
L 1125 4575 
L 1125 150 
L 5300 150 
z
M 3225 4250 
Q 3075 4100 2950 3925 
L 4625 3925 
Q 4525 3700 4300 3375 
Q 4075 3050 3600 2600 
Q 4350 2225 5075 2150 
Q 4900 1925 4775 1675 
Q 3850 1950 3225 2350 
Q 2500 1875 1675 1650 
Q 1600 1875 1400 2075 
Q 2200 2200 2875 2600 
Q 2525 2925 2375 3150 
Q 2150 2900 1900 2650 
Q 1725 2850 1525 2950 
Q 1950 3300 2250 3737 
Q 2550 4175 2675 4475 
Q 2925 4350 3225 4250 
z
M 2450 1275 
Q 3550 950 4100 725 
Q 3975 525 3850 300 
Q 2825 725 2275 850 
Q 2375 1050 2450 1275 
z
M 2925 2050 
Q 3775 1700 4075 1600 
Q 3950 1400 3850 1150 
Q 3000 1550 2700 1650 
Q 2825 1825 2925 2050 
z
M 2625 3450 
Q 3000 3025 3275 2850 
Q 3600 3100 3875 3525 
L 2675 3525 
L 2625 3450 
z
" transform="scale(0.015625)"/>
     </defs>
     <use xlink:href="#SimHei-5404"/>
     <use xlink:href="#SimHei-65b9" transform="translate(100 0)"/>
     <use xlink:href="#SimHei-6cd5" transform="translate(200 0)"/>
     <use xlink:href="#SimHei-7efc" transform="translate(300 0)"/>
     <use xlink:href="#SimHei-5408" transform="translate(400 0)"/>
     <use xlink:href="#SimHei-80fd" transform="translate(500 0)"/>
     <use xlink:href="#SimHei-529b" transform="translate(600 0)"/>
     <use xlink:href="#SimHei-5bf9" transform="translate(700 0)"/>
     <use xlink:href="#SimHei-6bd4" transform="translate(800 0)"/>
     <use xlink:href="#SimHei-96f7" transform="translate(900 0)"/>
     <use xlink:href="#SimHei-8fbe" transform="translate(1000 0)"/>
     <use xlink:href="#SimHei-56fe" transform="translate(1100 0)"/>
    </g>
   </g>
   <g id="legend_1">
    <g id="patch_9">
     <path d="M 368.055648 84.904687 
L 474.755648 84.904687 
Q 476.955648 84.904687 476.955648 82.704687 
L 476.955648 9.4 
Q 476.955648 7.2 474.755648 7.2 
L 368.055648 7.2 
Q 365.855648 7.2 365.855648 9.4 
L 365.855648 82.704687 
Q 365.855648 84.904687 368.055648 84.904687 
z
" style="fill: #ffffff; opacity: 0.8; stroke: #cccccc; stroke-linejoin: miter"/>
    </g>
    <g id="line2d_15">
     <path d="M 370.255648 15.45 
L 381.255648 15.45 
L 392.255648 15.45 
" style="fill: none; stroke: #5b8dbe; stroke-width: 1.5; stroke-linecap: square"/>
    </g>
    <g id="text_11">
     <!-- KNN -->
     <g transform="translate(401.055648 19.3) scale(0.11 -0.11)">
      <defs>
       <path id="SimHei-4b" d="M 3050 125 
L 2400 125 
L 1250 2250 
L 850 1725 
L 850 125 
L 275 125 
L 275 4400 
L 850 4400 
L 850 2550 
L 2275 4400 
L 2950 4400 
L 1625 2725 
L 3050 125 
z
" transform="scale(0.015625)"/>
       <path id="SimHei-4e" d="M 2850 125 
L 2225 125 
L 850 3225 
L 825 3225 
L 825 125 
L 250 125 
L 250 4400 
L 875 4400 
L 2250 1300 
L 2275 1300 
L 2275 4400 
L 2850 4400 
L 2850 125 
z
" transform="scale(0.015625)"/>
      </defs>
      <use xlink:href="#SimHei-4b"/>
      <use xlink:href="#SimHei-4e" transform="translate(50 0)"/>
      <use xlink:href="#SimHei-4e" transform="translate(100 0)"/>
     </g>
    </g>
    <g id="line2d_16">
     <path d="M 370.255648 30.025 
L 381.255648 30.025 
L 392.255648 30.025 
" style="fill: none; stroke: #4caf8a; stroke-width: 1.5; stroke-linecap: square"/>
    </g>
    <g id="text_12">
     <!-- SVM -->
     <g transform="translate(401.055648 33.875) scale(0.11 -0.11)">
      <defs>
       <path id="SimHei-53" d="M 2900 1325 
Q 2900 750 2537 412 
Q 2175 75 1550 75 
Q 925 75 575 425 
Q 225 775 225 1300 
L 225 1475 
L 800 1475 
L 800 1325 
Q 800 950 1025 750 
Q 1250 550 1550 550 
Q 1950 550 2137 762 
Q 2325 975 2325 1275 
Q 2325 1525 2100 1737 
Q 1875 1950 1450 2125 
Q 850 2350 587 2625 
Q 325 2900 325 3275 
Q 325 3800 687 4125 
Q 1050 4450 1550 4450 
Q 2200 4450 2487 4062 
Q 2775 3675 2775 3225 
L 2200 3225 
Q 2225 3500 2050 3725 
Q 1875 3950 1550 3950 
Q 1250 3950 1075 3787 
Q 900 3625 900 3350 
Q 900 3125 1037 2962 
Q 1175 2800 1750 2575 
Q 2300 2350 2600 2037 
Q 2900 1725 2900 1325 
z
" transform="scale(0.015625)"/>
       <path id="SimHei-56" d="M 3050 4400 
L 1800 75 
L 1300 75 
L 50 4400 
L 650 4400 
L 1525 1125 
L 1575 1125 
L 2450 4400 
L 3050 4400 
z
" transform="scale(0.015625)"/>
       <path id="SimHei-4d" d="M 2925 125 
L 2425 125 
L 2425 3175 
L 2375 3175 
L 1775 125 
L 1375 125 
L 775 3175 
L 725 3175 
L 725 125 
L 225 125 
L 225 4400 
L 1000 4400 
L 1550 1575 
L 1600 1575 
L 2150 4400 
L 2925 4400 
L 2925 125 
z
" transform="scale(0.015625)"/>
      </defs>
      <use xlink:href="#SimHei-53"/>
      <use xlink:href="#SimHei-56" transform="translate(50 0)"/>
      <use xlink:href="#SimHei-4d" transform="translate(100 0)"/>
     </g>
    </g>
    <g id="line2d_17">
     <path d="M 370.255648 45.021094 
L 381.255648 45.021094 
L 392.255648 45.021094 
" style="fill: none; stroke: #e0a830; stroke-width: 1.5; stroke-linecap: square"/>
    </g>
    <g id="text_13">
     <!-- 纯RF -->
     <g transform="translate(401.055648 48.871094) scale(0.11 -0.11)">
      <defs>
       <path id="SimHei-7eaf" d="M 3900 4125 
Q 3900 4575 3875 5100 
L 4375 5100 
Q 4350 4650 4350 4125 
L 5025 4125 
Q 5425 4125 5850 4150 
L 5850 3725 
Q 5450 3750 5050 3750 
L 4350 3750 
L 4350 1725 
L 5175 1725 
L 5175 2425 
Q 5175 2800 5150 3100 
L 5675 3100 
Q 5625 2825 5625 2050 
Q 5625 1300 5650 1025 
L 5175 1025 
L 5175 1325 
L 4350 1325 
L 4350 250 
Q 4350 -50 4650 -50 
L 5200 -50 
Q 5350 -50 5425 25 
Q 5500 100 5575 650 
Q 5800 525 6100 450 
Q 5975 -50 5862 -237 
Q 5750 -425 5325 -425 
L 4550 -425 
Q 3900 -425 3900 0 
L 3900 1325 
L 2625 1325 
Q 2650 1625 2650 2200 
Q 2650 2775 2625 3100 
L 3150 3100 
Q 3125 2750 3125 2500 
L 3125 1725 
L 3900 1725 
L 3900 3750 
L 3350 3750 
Q 2825 3750 2425 3725 
L 2425 4150 
Q 2825 4125 3350 4125 
L 3900 4125 
z
M 2300 1300 
Q 2200 1300 1662 1250 
Q 1125 1200 575 1075 
Q 500 1300 400 1575 
Q 600 1625 887 1962 
Q 1175 2300 1525 2800 
Q 1275 2800 962 2762 
Q 650 2725 425 2625 
Q 375 2800 225 3100 
Q 450 3150 775 3737 
Q 1100 4325 1300 5050 
Q 1550 4900 1875 4775 
Q 1650 4550 1412 4125 
Q 1175 3700 825 3125 
L 1725 3150 
Q 1900 3400 2025 3725 
Q 2250 3550 2575 3425 
Q 2325 3275 2025 2837 
Q 1725 2400 1075 1625 
Q 1975 1675 2300 1725 
L 2300 1300 
z
M 2475 250 
Q 2025 175 1450 12 
Q 875 -150 450 -300 
Q 325 25 225 200 
Q 925 325 1212 387 
Q 1500 450 2475 700 
L 2475 250 
z
" transform="scale(0.015625)"/>
       <path id="SimHei-52" d="M 3000 125 
L 2400 125 
L 1500 1975 
L 850 1975 
L 850 125 
L 275 125 
L 275 4400 
L 1525 4400 
Q 2125 4400 2500 4112 
Q 2875 3825 2875 3175 
Q 2875 2675 2625 2400 
Q 2375 2125 2050 2050 
L 3000 125 
z
M 2300 3175 
Q 2300 3525 2087 3725 
Q 1875 3925 1400 3925 
L 850 3925 
L 850 2450 
L 1550 2450 
Q 1850 2450 2075 2612 
Q 2300 2775 2300 3175 
z
" transform="scale(0.015625)"/>
       <path id="SimHei-46" d="M 2925 3925 
L 875 3925 
L 875 2525 
L 2425 2525 
L 2425 2050 
L 875 2050 
L 875 125 
L 300 125 
L 300 4400 
L 2925 4400 
L 2925 3925 
z
" transform="scale(0.015625)"/>
      </defs>
      <use xlink:href="#SimHei-7eaf"/>
      <use xlink:href="#SimHei-52" transform="translate(100 0)"/>
      <use xlink:href="#SimHei-46" transform="translate(150 0)"/>
     </g>
    </g>
    <g id="line2d_18">
     <path d="M 370.255648 59.596094 
L 381.255648 59.596094 
L 392.255648 59.596094 
" style="fill: none; stroke: #9b6bb5; stroke-width: 1.5; stroke-linecap: square"/>
    </g>
    <g id="text_14">
     <!-- MLP -->
     <g transform="translate(401.055648 63.446094) scale(0.11 -0.11)">
      <defs>
       <path id="SimHei-4c" d="M 2900 125 
L 300 125 
L 300 4400 
L 875 4400 
L 875 600 
L 2900 600 
L 2900 125 
z
" transform="scale(0.015625)"/>
       <path id="SimHei-50" d="M 2950 3100 
Q 2950 2500 2600 2150 
Q 2250 1800 1625 1800 
L 900 1800 
L 900 125 
L 325 125 
L 325 4400 
L 1625 4400 
Q 2250 4400 2600 4050 
Q 2950 3700 2950 3100 
z
M 2375 3100 
Q 2375 3575 2150 3750 
Q 1925 3925 1475 3925 
L 900 3925 
L 900 2275 
L 1475 2275 
Q 1925 2275 2150 2450 
Q 2375 2625 2375 3100 
z
" transform="scale(0.015625)"/>
      </defs>
      <use xlink:href="#SimHei-4d"/>
      <use xlink:href="#SimHei-4c" transform="translate(50 0)"/>
      <use xlink:href="#SimHei-50" transform="translate(100 0)"/>
     </g>
    </g>
    <g id="line2d_19">
     <path d="M 370.255648 75.279687 
L 381.255648 75.279687 
L 392.255648 75.279687 
" style="fill: none; stroke: #e24b4a; stroke-width: 2.8; stroke-linecap: square"/>
    </g>
    <g id="text_15">
     <!-- PINN-RF(本文) -->
     <g transform="translate(401.055648 79.129687) scale(0.11 -0.11)">
      <defs>
       <path id="SimHei-49" d="M 1850 125 
L 1275 125 
L 1275 4400 
L 1850 4400 
L 1850 125 
z
" transform="scale(0.015625)"/>
       <path id="SimHei-2d" d="M 2975 2125 
L 125 2125 
L 125 2525 
L 2975 2525 
L 2975 2125 
z
" transform="scale(0.015625)"/>
       <path id="SimHei-28" d="M 2975 -200 
L 2700 -475 
Q 2075 125 1762 775 
Q 1450 1425 1450 2250 
Q 1450 3075 1762 3725 
Q 2075 4375 2700 5000 
L 2975 4725 
Q 2400 4175 2112 3587 
Q 1825 3000 1825 2250 
Q 1825 1500 2112 912 
Q 2400 325 2975 -200 
z
" transform="scale(0.015625)"/>
       <path id="SimHei-6587" d="M 1250 3450 
Q 725 3450 350 3400 
L 350 3925 
Q 925 3900 1400 3900 
L 4950 3900 
Q 5400 3900 6025 3925 
L 6025 3400 
Q 5400 3425 4625 3425 
Q 4500 2650 4175 1987 
Q 3850 1325 3475 900 
Q 3950 475 4725 212 
Q 5500 -50 6075 -100 
Q 5850 -275 5675 -625 
Q 5250 -525 4575 -275 
Q 3900 -25 3125 575 
Q 2100 -275 675 -675 
Q 625 -450 325 -175 
Q 750 -125 1487 137 
Q 2225 400 2750 875 
Q 1875 1775 1500 3450 
L 1250 3450 
z
M 2025 3425 
Q 2225 2075 3100 1200 
Q 3900 2175 4100 3425 
L 2025 3425 
z
M 2850 5250 
Q 3125 4825 3500 4175 
Q 3300 4125 3050 3925 
Q 2700 4575 2425 5000 
Q 2600 5050 2850 5250 
z
" transform="scale(0.015625)"/>
       <path id="SimHei-29" d="M 1675 2250 
Q 1675 1425 1362 775 
Q 1050 125 425 -475 
L 150 -200 
Q 725 325 1012 912 
Q 1300 1500 1300 2250 
Q 1300 3000 1012 3587 
Q 725 4175 150 4725 
L 425 5000 
Q 1050 4375 1362 3725 
Q 1675 3075 1675 2250 
z
" transform="scale(0.015625)"/>
      </defs>
      <use xlink:href="#SimHei-50"/>
      <use xlink:href="#SimHei-49" transform="translate(50 0)"/>
      <use xlink:href="#SimHei-4e" transform="translate(100 0)"/>
      <use xlink:href="#SimHei-4e" transform="translate(150 0)"/>
      <use xlink:href="#SimHei-2d" transform="translate(200 0)"/>
      <use xlink:href="#SimHei-52" transform="translate(250 0)"/>
      <use xlink:href="#SimHei-46" transform="translate(300 0)"/>
      <use xlink:href="#SimHei-28" transform="translate(350 0)"/>
      <use xlink:href="#SimHei-672c" transform="translate(400 0)"/>
      <use xlink:href="#SimHei-6587" transform="translate(500 0)"/>
      <use xlink:href="#SimHei-29" transform="translate(600 0)"/>
     </g>
    </g>
   </g>
  </g>
 </g>
 <defs>
  <clipPath id="p371017c023">
   <path d="M 374.776736 230.51769 
C 374.776736 208.423525 370.424667 186.544199 361.969596 166.131852 
C 353.514526 145.719506 341.120883 127.171108 325.497949 111.548175 
C 309.875016 95.925241 291.326618 83.531598 270.914272 75.076528 
C 250.501925 66.621457 228.622599 62.269388 206.528434 62.269388 
C 184.43427 62.269388 162.554943 66.621457 142.142597 75.076528 
C 121.730251 83.531598 103.181853 95.925241 87.55892 111.548175 
C 71.935986 127.171108 59.542343 145.719506 51.087273 166.131852 
C 42.632202 186.544199 38.280133 208.423525 38.280133 230.51769 
C 38.280133 252.611854 42.632202 274.491181 51.087273 294.903527 
C 59.542343 315.315873 71.935986 333.864271 87.55892 349.487204 
C 103.181853 365.110138 121.730251 377.503781 142.142597 385.958851 
C 162.554943 394.413922 184.43427 398.765991 206.528434 398.765991 
C 228.622599 398.765991 250.501925 394.413922 270.914272 385.958851 
C 291.326618 377.503781 309.875016 365.110138 325.497949 349.487204 
C 341.120883 333.864271 353.514526 315.315873 361.969596 294.903527 
C 370.424667 274.491181 374.776736 252.611854 374.776736 230.51769 
M 206.528434 230.51769 
C 206.528434 230.51769 206.528434 230.51769 206.528434 230.51769 
C 206.528434 230.51769 206.528434 230.51769 206.528434 230.51769 
C 206.528434 230.51769 206.528434 230.51769 206.528434 230.51769 
C 206.528434 230.51769 206.528434 230.51769 206.528434 230.51769 
C 206.528434 230.51769 206.528434 230.51769 206.528434 230.51769 
C 206.528434 230.51769 206.528434 230.51769 206.528434 230.51769 
C 206.528434 230.51769 206.528434 230.51769 206.528434 230.51769 
C 206.528434 230.51769 206.528434 230.51769 206.528434 230.51769 
C 206.528434 230.51769 206.528434 230.51769 206.528434 230.51769 
C 206.528434 230.51769 206.528434 230.51769 206.528434 230.51769 
C 206.528434 230.51769 206.528434 230.51769 206.528434 230.51769 
C 206.528434 230.51769 206.528434 230.51769 206.528434 230.51769 
C 206.528434 230.51769 206.528434 230.51769 206.528434 230.51769 
C 206.528434 230.51769 206.528434 230.51769 206.528434 230.51769 
C 206.528434 230.51769 206.528434 230.51769 206.528434 230.51769 
C 206.528434 230.51769 206.528434 230.51769 206.528434 230.51769 
z
"/>
  </clipPath>
 </defs>
</svg>
