<?xml version="1.0" encoding="utf-8" standalone="no"?>
<!DOCTYPE svg PUBLIC "-//W3C//DTD SVG 1.1//EN"
  "http://www.w3.org/Graphics/SVG/1.1/DTD/svg11.dtd">
<svg xmlns:xlink="http://www.w3.org/1999/xlink" width="568.5325pt" height="351.271875pt" viewBox="0 0 568.5325 351.271875" xmlns="http://www.w3.org/2000/svg" version="1.1">
 <metadata>
  <rdf:RDF xmlns:dc="http://purl.org/dc/elements/1.1/" xmlns:cc="http://creativecommons.org/ns#" xmlns:rdf="http://www.w3.org/1999/02/22-rdf-syntax-ns#">
   <cc:Work>
    <dc:type rdf:resource="http://purl.org/dc/dcmitype/StillImage"/>
    <dc:date>2026-05-23T14:47:35.955207</dc:date>
    <dc:format>image/svg+xml</dc:format>
    <dc:creator>
     <cc:Agent>
      <dc:title>Matplotlib v3.10.9, https://matplotlib.org/</dc:title>
     </cc:Agent>
    </dc:creator>
   </cc:Work>
  </rdf:RDF>
 </metadata>
 <defs>
  <style type="text/css">*{stroke-linejoin: round; stroke-linecap: butt}</style>
 </defs>
 <g id="figure_1">
  <g id="patch_1">
   <path d="M 0 351.271875 
L 568.5325 351.271875 
L 568.5325 0 
L 0 0 
z
" style="fill: #ffffff"/>
  </g>
  <g id="axes_1">
   <g id="patch_2">
    <path d="M 37.575 315.728125 
L 561.3325 315.728125 
L 561.3325 22.903125 
L 37.575 22.903125 
z
" style="fill: #ffffff"/>
   </g>
   <g id="matplotlib.axis_1">
    <g id="xtick_1">
     <g id="line2d_1">
      <path d="M 61.382159 315.728125 
L 61.382159 22.903125 
" clip-path="url(#p3bc1f0aa91)" style="fill: none; stroke-dasharray: 2.96,1.28; stroke-dashoffset: 0; stroke: #b0b0b0; stroke-opacity: 0.5; stroke-width: 0.8"/>
     </g>
     <g id="line2d_2">
      <defs>
       <path id="md7b2985795" d="M 0 0 
L 0 3.5 
" style="stroke: #000000; stroke-width: 0.8"/>
      </defs>
      <g>
       <use xlink:href="#md7b2985795" x="61.382159" y="315.728125" style="stroke: #000000; stroke-width: 0.8"/>
      </g>
     </g>
     <g id="text_1">
      <!-- 0 -->
      <g transform="translate(58.882159 329.603125) scale(0.1 -0.1)">
       <defs>
        <path id="SimHei-30" d="M 225 2537 
Q 250 3200 412 3587 
Q 575 3975 875 4225 
Q 1175 4475 1612 4475 
Q 2050 4475 2375 4112 
Q 2700 3750 2800 3200 
Q 2900 2650 2862 1937 
Q 2825 1225 2612 775 
Q 2400 325 1975 150 
Q 1550 -25 1125 187 
Q 700 400 525 750 
Q 350 1100 275 1487 
Q 200 1875 225 2537 
z
M 750 2687 
Q 675 2000 800 1462 
Q 925 925 1212 700 
Q 1500 475 1800 612 
Q 2100 750 2237 1162 
Q 2375 1575 2375 2062 
Q 2375 2550 2337 2950 
Q 2300 3350 2112 3675 
Q 1925 4000 1612 4012 
Q 1300 4025 1062 3700 
Q 825 3375 750 2687 
z
" transform="scale(0.015625)"/>
       </defs>
       <use xlink:href="#SimHei-30"/>
      </g>
     </g>
    </g>
    <g id="xtick_2">
     <g id="line2d_3">
      <path d="M 156.610795 315.728125 
L 156.610795 22.903125 
" clip-path="url(#p3bc1f0aa91)" style="fill: none; stroke-dasharray: 2.96,1.28; stroke-dashoffset: 0; stroke: #b0b0b0; stroke-opacity: 0.5; stroke-width: 0.8"/>
     </g>
     <g id="line2d_4">
      <g>
       <use xlink:href="#md7b2985795" x="156.610795" y="315.728125" style="stroke: #000000; stroke-width: 0.8"/>
      </g>
     </g>
     <g id="text_2">
      <!-- 2 -->
      <g transform="translate(154.110795 329.603125) scale(0.1 -0.1)">
       <defs>
        <path id="SimHei-32" d="M 300 250 
Q 325 625 650 925 
Q 975 1225 1475 1862 
Q 1975 2500 2125 2850 
Q 2275 3200 2237 3450 
Q 2200 3700 2000 3862 
Q 1800 4025 1537 4000 
Q 1275 3975 1037 3800 
Q 800 3625 675 3275 
L 200 3350 
Q 400 3925 712 4187 
Q 1025 4450 1450 4475 
Q 1700 4500 1900 4462 
Q 2100 4425 2312 4287 
Q 2525 4150 2662 3875 
Q 2800 3600 2762 3212 
Q 2725 2825 2375 2287 
Q 2025 1750 1025 600 
L 2825 600 
L 2825 150 
L 300 150 
L 300 250 
z
" transform="scale(0.015625)"/>
       </defs>
       <use xlink:href="#SimHei-32"/>
      </g>
     </g>
    </g>
    <g id="xtick_3">
     <g id="line2d_5">
      <path d="M 251.839432 315.728125 
L 251.839432 22.903125 
" clip-path="url(#p3bc1f0aa91)" style="fill: none; stroke-dasharray: 2.96,1.28; stroke-dashoffset: 0; stroke: #b0b0b0; stroke-opacity: 0.5; stroke-width: 0.8"/>
     </g>
     <g id="line2d_6">
      <g>
       <use xlink:href="#md7b2985795" x="251.839432" y="315.728125" style="stroke: #000000; stroke-width: 0.8"/>
      </g>
     </g>
     <g id="text_3">
      <!-- 4 -->
      <g transform="translate(249.339432 329.603125) scale(0.1 -0.1)">
       <defs>
        <path id="SimHei-34" d="M 2000 1100 
L 75 1100 
L 75 1525 
L 2100 4450 
L 2475 4450 
L 2475 1525 
L 3075 1525 
L 3075 1100 
L 2475 1100 
L 2475 150 
L 2000 150 
L 2000 1100 
z
M 2000 1525 
L 2000 3500 
L 600 1525 
L 2000 1525 
z
" transform="scale(0.015625)"/>
       </defs>
       <use xlink:href="#SimHei-34"/>
      </g>
     </g>
    </g>
    <g id="xtick_4">
     <g id="line2d_7">
      <path d="M 347.068068 315.728125 
L 347.068068 22.903125 
" clip-path="url(#p3bc1f0aa91)" style="fill: none; stroke-dasharray: 2.96,1.28; stroke-dashoffset: 0; stroke: #b0b0b0; stroke-opacity: 0.5; stroke-width: 0.8"/>
     </g>
     <g id="line2d_8">
      <g>
       <use xlink:href="#md7b2985795" x="347.068068" y="315.728125" style="stroke: #000000; stroke-width: 0.8"/>
      </g>
     </g>
     <g id="text_4">
      <!-- 6 -->
      <g transform="translate(344.568068 329.603125) scale(0.1 -0.1)">
       <defs>
        <path id="SimHei-36" d="M 250 1612 
Q 275 1975 387 2225 
Q 500 2475 725 2850 
L 1750 4450 
L 2325 4450 
L 1275 2800 
Q 1950 2975 2350 2750 
Q 2750 2525 2887 2237 
Q 3025 1950 3037 1612 
Q 3050 1275 2937 950 
Q 2825 625 2537 362 
Q 2250 100 1737 75 
Q 1225 50 862 262 
Q 500 475 362 862 
Q 225 1250 250 1612 
z
M 1025 787 
Q 1250 550 1625 525 
Q 2000 500 2250 775 
Q 2500 1050 2500 1575 
Q 2500 2100 2187 2300 
Q 1875 2500 1487 2450 
Q 1100 2400 925 2075 
Q 750 1750 775 1387 
Q 800 1025 1025 787 
z
" transform="scale(0.015625)"/>
       </defs>
       <use xlink:href="#SimHei-36"/>
      </g>
     </g>
    </g>
    <g id="xtick_5">
     <g id="line2d_9">
      <path d="M 442.296705 315.728125 
L 442.296705 22.903125 
" clip-path="url(#p3bc1f0aa91)" style="fill: none; stroke-dasharray: 2.96,1.28; stroke-dashoffset: 0; stroke: #b0b0b0; stroke-opacity: 0.5; stroke-width: 0.8"/>
     </g>
     <g id="line2d_10">
      <g>
       <use xlink:href="#md7b2985795" x="442.296705" y="315.728125" style="stroke: #000000; stroke-width: 0.8"/>
      </g>
     </g>
     <g id="text_5">
      <!-- 8 -->
      <g transform="translate(439.796705 329.603125) scale(0.1 -0.1)">
       <defs>
        <path id="SimHei-38" d="M 175 1375 
Q 175 1675 325 1962 
Q 475 2250 825 2425 
Q 525 2600 425 2812 
Q 325 3025 312 3300 
Q 300 3575 387 3775 
Q 475 3975 650 4150 
Q 825 4325 1037 4387 
Q 1250 4450 1500 4450 
Q 1750 4450 1950 4400 
Q 2150 4350 2375 4187 
Q 2600 4025 2700 3725 
Q 2800 3425 2687 3025 
Q 2575 2625 2100 2400 
Q 2525 2275 2700 2012 
Q 2875 1750 2875 1375 
Q 2875 1000 2762 775 
Q 2650 550 2512 400 
Q 2375 250 2137 162 
Q 1900 75 1537 75 
Q 1175 75 912 162 
Q 650 250 475 425 
Q 300 600 237 837 
Q 175 1075 175 1375 
z
M 687 1400 
Q 675 1100 787 875 
Q 900 650 1200 587 
Q 1500 525 1825 600 
Q 2150 675 2275 950 
Q 2400 1225 2362 1500 
Q 2325 1775 2050 1962 
Q 1775 2150 1450 2125 
Q 1125 2100 912 1900 
Q 700 1700 687 1400 
z
M 775 3350 
Q 775 3100 950 2875 
Q 1125 2650 1500 2650 
Q 1875 2650 2062 2875 
Q 2250 3100 2237 3412 
Q 2225 3725 2012 3875 
Q 1800 4025 1437 4000 
Q 1075 3975 925 3787 
Q 775 3600 775 3350 
z
" transform="scale(0.015625)"/>
       </defs>
       <use xlink:href="#SimHei-38"/>
      </g>
     </g>
    </g>
    <g id="xtick_6">
     <g id="line2d_11">
      <path d="M 537.525341 315.728125 
L 537.525341 22.903125 
" clip-path="url(#p3bc1f0aa91)" style="fill: none; stroke-dasharray: 2.96,1.28; stroke-dashoffset: 0; stroke: #b0b0b0; stroke-opacity: 0.5; stroke-width: 0.8"/>
     </g>
     <g id="line2d_12">
      <g>
       <use xlink:href="#md7b2985795" x="537.525341" y="315.728125" style="stroke: #000000; stroke-width: 0.8"/>
      </g>
     </g>
     <g id="text_6">
      <!-- 10 -->
      <g transform="translate(532.525341 329.603125) scale(0.1 -0.1)">
       <defs>
        <path id="SimHei-31" d="M 1400 3600 
Q 1075 3275 575 2975 
L 575 3450 
Q 1200 3875 1600 4450 
L 1900 4450 
L 1900 150 
L 1400 150 
L 1400 3600 
z
" transform="scale(0.015625)"/>
       </defs>
       <use xlink:href="#SimHei-31"/>
       <use xlink:href="#SimHei-30" transform="translate(50 0)"/>
      </g>
     </g>
    </g>
    <g id="text_7">
     <!-- 噪声水平 (%) -->
     <g transform="translate(269.45375 342.821875) scale(0.1 -0.1)">
      <defs>
       <path id="SimHei-566a" d="M 1800 4800 
Q 1775 4250 1775 3675 
L 1775 1950 
Q 1775 1475 1800 875 
L 1350 875 
L 1350 1425 
L 825 1425 
L 825 350 
L 375 350 
Q 400 900 400 1450 
L 400 3675 
Q 400 4250 375 4800 
L 1800 4800 
z
M 5800 -475 
Q 5100 -125 4750 225 
Q 4400 575 4175 1000 
L 4175 225 
Q 4175 -250 4200 -650 
L 3725 -650 
Q 3750 -250 3750 225 
L 3750 1050 
Q 3375 425 2950 75 
Q 2525 -275 2150 -525 
Q 2075 -325 1700 -100 
Q 2100 0 2562 300 
Q 3025 600 3250 1050 
L 2950 1050 
Q 2500 1050 2100 1025 
L 2100 1425 
Q 2500 1400 2950 1400 
L 3750 1400 
Q 3750 1675 3725 1950 
L 4200 1950 
Q 4175 1575 4175 1400 
L 5225 1400 
Q 5575 1400 6025 1425 
L 6025 1025 
Q 5575 1050 5250 1050 
L 4575 1050 
Q 4775 700 5125 450 
Q 5475 200 6175 25 
Q 5900 -200 5800 -475 
z
M 5225 5050 
Q 5175 4725 5175 4375 
Q 5175 4050 5225 3700 
L 2725 3700 
Q 2750 4050 2750 4375 
Q 2750 4725 2725 5050 
L 5225 5050 
z
M 5825 3350 
Q 5800 3025 5800 2675 
Q 5800 2350 5825 2075 
L 4175 2075 
Q 4200 2375 4200 2700 
Q 4200 3050 4175 3350 
L 5825 3350 
z
M 3675 3350 
Q 3650 3050 3650 2700 
Q 3650 2375 3675 2075 
L 2075 2075 
Q 2100 2375 2100 2700 
Q 2100 3050 2075 3350 
L 3675 3350 
z
M 1350 1775 
L 1350 4375 
L 825 4375 
L 825 1775 
L 1350 1775 
z
M 4725 4100 
L 4725 4675 
L 3175 4675 
L 3175 4100 
L 4725 4100 
z
M 5375 2425 
L 5375 3000 
L 4650 3000 
L 4650 2425 
L 5375 2425 
z
M 3200 2450 
L 3200 2975 
L 2525 2975 
L 2525 2450 
L 3200 2450 
z
" transform="scale(0.015625)"/>
       <path id="SimHei-58f0" d="M 5500 2800 
Q 5475 2500 5475 1800 
Q 5475 1100 5500 700 
L 4975 700 
L 4975 1050 
L 1575 1050 
Q 1525 650 1350 262 
Q 1175 -125 750 -650 
Q 550 -400 250 -300 
Q 575 0 762 300 
Q 950 600 1037 962 
Q 1125 1325 1125 1775 
Q 1125 2225 1100 2800 
L 5500 2800 
z
M 3050 4700 
Q 3050 5075 3025 5225 
L 3575 5225 
Q 3550 5075 3550 4700 
L 4900 4700 
Q 5450 4700 5925 4725 
L 5925 4275 
Q 5450 4300 4900 4300 
L 3550 4300 
L 3550 3650 
L 4525 3650 
Q 5075 3650 5575 3675 
L 5575 3225 
Q 5075 3250 4525 3250 
L 1950 3250 
Q 1400 3250 1025 3225 
L 1025 3675 
Q 1425 3650 1925 3650 
L 3050 3650 
L 3050 4300 
L 1675 4300 
Q 1050 4300 625 4275 
L 625 4725 
Q 1075 4700 1675 4700 
L 3050 4700 
z
M 4975 1450 
L 4975 2375 
L 3550 2375 
L 3550 1450 
L 4975 1450 
z
M 3050 1450 
L 3050 2375 
L 1675 2375 
L 1675 1450 
L 3050 1450 
z
" transform="scale(0.015625)"/>
       <path id="SimHei-6c34" d="M 3450 5175 
Q 3450 4800 3437 4500 
Q 3425 4200 3487 3762 
Q 3550 3325 3950 2725 
Q 4975 3575 5175 4050 
Q 5450 3800 5675 3575 
Q 5350 3350 5037 3075 
Q 4725 2800 4175 2325 
Q 4375 1900 4900 1375 
Q 5425 850 6175 625 
Q 5750 425 5675 125 
Q 4725 700 4212 1400 
Q 3700 2100 3425 2800 
L 3425 25 
Q 3450 -325 3162 -475 
Q 2875 -625 2400 -675 
Q 2375 -400 2175 -75 
Q 2575 -150 2750 -100 
Q 2925 -50 2925 225 
L 2925 4175 
Q 2925 4800 2875 5175 
L 3450 5175 
z
M 2550 3575 
Q 2425 2900 2237 2362 
Q 2050 1825 1737 1300 
Q 1425 775 750 100 
Q 575 325 225 450 
Q 925 950 1337 1600 
Q 1750 2250 1950 3125 
L 1275 3125 
Q 900 3125 425 3075 
L 425 3600 
Q 875 3575 1250 3575 
L 2550 3575 
z
" transform="scale(0.015625)"/>
       <path id="SimHei-5e73" d="M 4525 4825 
Q 4900 4825 5450 4850 
L 5450 4375 
Q 4925 4400 4525 4400 
L 3475 4400 
L 3475 2025 
L 5000 2025 
Q 5550 2025 6025 2050 
L 6025 1575 
Q 5550 1600 5000 1600 
L 3475 1600 
L 3475 450 
Q 3475 -100 3500 -600 
L 2925 -600 
Q 2950 -100 2950 450 
L 2950 1600 
L 1125 1600 
Q 775 1600 375 1575 
L 375 2050 
Q 775 2025 1175 2025 
L 2950 2025 
L 2950 4400 
L 1775 4400 
Q 1400 4400 875 4375 
L 875 4850 
Q 1400 4825 1750 4825 
L 4525 4825 
z
M 3925 2600 
Q 4500 3300 4900 4125 
Q 5150 3950 5400 3825 
Q 4775 2850 4350 2300 
Q 4150 2475 3925 2600 
z
M 1975 2350 
Q 1600 3100 1050 3725 
Q 1250 3875 1450 4050 
Q 2075 3300 2450 2725 
Q 2150 2500 1975 2350 
z
" transform="scale(0.015625)"/>
       <path id="SimHei-20" transform="scale(0.015625)"/>
       <path id="SimHei-28" d="M 2975 -200 
L 2700 -475 
Q 2075 125 1762 775 
Q 1450 1425 1450 2250 
Q 1450 3075 1762 3725 
Q 2075 4375 2700 5000 
L 2975 4725 
Q 2400 4175 2112 3587 
Q 1825 3000 1825 2250 
Q 1825 1500 2112 912 
Q 2400 325 2975 -200 
z
" transform="scale(0.015625)"/>
       <path id="SimHei-25" d="M 1400 3325 
Q 1400 2600 1187 2400 
Q 975 2200 775 2200 
Q 575 2200 362 2400 
Q 150 2600 150 3325 
Q 150 4050 362 4250 
Q 575 4450 775 4450 
Q 975 4450 1187 4250 
Q 1400 4050 1400 3325 
z
M 2625 4375 
L 700 75 
L 500 150 
L 2425 4450 
L 2625 4375 
z
M 2975 1200 
Q 2975 475 2762 275 
Q 2550 75 2350 75 
Q 2150 75 1937 275 
Q 1725 475 1725 1200 
Q 1725 1925 1937 2125 
Q 2150 2325 2350 2325 
Q 2550 2325 2762 2125 
Q 2975 1925 2975 1200 
z
M 1000 3325 
Q 1000 3775 950 3925 
Q 900 4075 775 4075 
Q 650 4075 600 3925 
Q 550 3775 550 3325 
Q 550 2875 600 2725 
Q 650 2575 775 2575 
Q 900 2575 950 2725 
Q 1000 2875 1000 3325 
z
M 2575 1200 
Q 2575 1650 2525 1800 
Q 2475 1950 2350 1950 
Q 2225 1950 2175 1800 
Q 2125 1650 2125 1200 
Q 2125 750 2175 600 
Q 2225 450 2350 450 
Q 2475 450 2525 600 
Q 2575 750 2575 1200 
z
" transform="scale(0.015625)"/>
       <path id="SimHei-29" d="M 1675 2250 
Q 1675 1425 1362 775 
Q 1050 125 425 -475 
L 150 -200 
Q 725 325 1012 912 
Q 1300 1500 1300 2250 
Q 1300 3000 1012 3587 
Q 725 4175 150 4725 
L 425 5000 
Q 1050 4375 1362 3725 
Q 1675 3075 1675 2250 
z
" transform="scale(0.015625)"/>
      </defs>
      <use xlink:href="#SimHei-566a"/>
      <use xlink:href="#SimHei-58f0" transform="translate(100 0)"/>
      <use xlink:href="#SimHei-6c34" transform="translate(200 0)"/>
      <use xlink:href="#SimHei-5e73" transform="translate(300 0)"/>
      <use xlink:href="#SimHei-20" transform="translate(400 0)"/>
      <use xlink:href="#SimHei-28" transform="translate(450 0)"/>
      <use xlink:href="#SimHei-25" transform="translate(500 0)"/>
      <use xlink:href="#SimHei-29" transform="translate(550 0)"/>
     </g>
    </g>
   </g>
   <g id="matplotlib.axis_2">
    <g id="ytick_1">
     <g id="line2d_13">
      <path d="M 37.575 314.896236 
L 561.3325 314.896236 
" clip-path="url(#p3bc1f0aa91)" style="fill: none; stroke-dasharray: 2.96,1.28; stroke-dashoffset: 0; stroke: #b0b0b0; stroke-opacity: 0.5; stroke-width: 0.8"/>
     </g>
     <g id="line2d_14">
      <defs>
       <path id="m6fd8c3eaeb" d="M 0 0 
L -3.5 0 
" style="stroke: #000000; stroke-width: 0.8"/>
      </defs>
      <g>
       <use xlink:href="#m6fd8c3eaeb" x="37.575" y="314.896236" style="stroke: #000000; stroke-width: 0.8"/>
      </g>
     </g>
     <g id="text_8">
      <!-- 65 -->
      <g transform="translate(20.575 318.333736) scale(0.1 -0.1)">
       <defs>
        <path id="SimHei-35" d="M 550 1325 
Q 725 650 1150 575 
Q 1575 500 1837 662 
Q 2100 825 2212 1087 
Q 2325 1350 2312 1675 
Q 2300 2000 2137 2225 
Q 1975 2450 1725 2525 
Q 1475 2600 1162 2525 
Q 850 2450 650 2175 
L 225 2225 
Q 275 2375 700 4375 
L 2675 4375 
L 2675 3925 
L 1075 3925 
Q 950 3250 825 2850 
Q 1200 3025 1525 3012 
Q 1850 3000 2150 2862 
Q 2450 2725 2587 2487 
Q 2725 2250 2787 2012 
Q 2850 1775 2837 1500 
Q 2825 1225 2725 937 
Q 2625 650 2425 462 
Q 2225 275 1937 162 
Q 1650 50 1275 75 
Q 900 100 562 350 
Q 225 600 100 1200 
L 550 1325 
z
" transform="scale(0.015625)"/>
       </defs>
       <use xlink:href="#SimHei-36"/>
       <use xlink:href="#SimHei-35" transform="translate(50 0)"/>
      </g>
     </g>
    </g>
    <g id="ytick_2">
     <g id="line2d_15">
      <path d="M 37.575 269.520461 
L 561.3325 269.520461 
" clip-path="url(#p3bc1f0aa91)" style="fill: none; stroke-dasharray: 2.96,1.28; stroke-dashoffset: 0; stroke: #b0b0b0; stroke-opacity: 0.5; stroke-width: 0.8"/>
     </g>
     <g id="line2d_16">
      <g>
       <use xlink:href="#m6fd8c3eaeb" x="37.575" y="269.520461" style="stroke: #000000; stroke-width: 0.8"/>
      </g>
     </g>
     <g id="text_9">
      <!-- 70 -->
      <g transform="translate(20.575 272.957961) scale(0.1 -0.1)">
       <defs>
        <path id="SimHei-37" d="M 850 150 
Q 1300 2050 2425 3925 
L 275 3925 
L 275 4375 
L 2950 4375 
L 2950 3950 
Q 1775 2050 1400 150 
L 850 150 
z
" transform="scale(0.015625)"/>
       </defs>
       <use xlink:href="#SimHei-37"/>
       <use xlink:href="#SimHei-30" transform="translate(50 0)"/>
      </g>
     </g>
    </g>
    <g id="ytick_3">
     <g id="line2d_17">
      <path d="M 37.575 224.144686 
L 561.3325 224.144686 
" clip-path="url(#p3bc1f0aa91)" style="fill: none; stroke-dasharray: 2.96,1.28; stroke-dashoffset: 0; stroke: #b0b0b0; stroke-opacity: 0.5; stroke-width: 0.8"/>
     </g>
     <g id="line2d_18">
      <g>
       <use xlink:href="#m6fd8c3eaeb" x="37.575" y="224.144686" style="stroke: #000000; stroke-width: 0.8"/>
      </g>
     </g>
     <g id="text_10">
      <!-- 75 -->
      <g transform="translate(20.575 227.582186) scale(0.1 -0.1)">
       <use xlink:href="#SimHei-37"/>
       <use xlink:href="#SimHei-35" transform="translate(50 0)"/>
      </g>
     </g>
    </g>
    <g id="ytick_4">
     <g id="line2d_19">
      <path d="M 37.575 178.768911 
L 561.3325 178.768911 
" clip-path="url(#p3bc1f0aa91)" style="fill: none; stroke-dasharray: 2.96,1.28; stroke-dashoffset: 0; stroke: #b0b0b0; stroke-opacity: 0.5; stroke-width: 0.8"/>
     </g>
     <g id="line2d_20">
      <g>
       <use xlink:href="#m6fd8c3eaeb" x="37.575" y="178.768911" style="stroke: #000000; stroke-width: 0.8"/>
      </g>
     </g>
     <g id="text_11">
      <!-- 80 -->
      <g transform="translate(20.575 182.206411) scale(0.1 -0.1)">
       <use xlink:href="#SimHei-38"/>
       <use xlink:href="#SimHei-30" transform="translate(50 0)"/>
      </g>
     </g>
    </g>
    <g id="ytick_5">
     <g id="line2d_21">
      <path d="M 37.575 133.393137 
L 561.3325 133.393137 
" clip-path="url(#p3bc1f0aa91)" style="fill: none; stroke-dasharray: 2.96,1.28; stroke-dashoffset: 0; stroke: #b0b0b0; stroke-opacity: 0.5; stroke-width: 0.8"/>
     </g>
     <g id="line2d_22">
      <g>
       <use xlink:href="#m6fd8c3eaeb" x="37.575" y="133.393137" style="stroke: #000000; stroke-width: 0.8"/>
      </g>
     </g>
     <g id="text_12">
      <!-- 85 -->
      <g transform="translate(20.575 136.830637) scale(0.1 -0.1)">
       <use xlink:href="#SimHei-38"/>
       <use xlink:href="#SimHei-35" transform="translate(50 0)"/>
      </g>
     </g>
    </g>
    <g id="ytick_6">
     <g id="line2d_23">
      <path d="M 37.575 88.017362 
L 561.3325 88.017362 
" clip-path="url(#p3bc1f0aa91)" style="fill: none; stroke-dasharray: 2.96,1.28; stroke-dashoffset: 0; stroke: #b0b0b0; stroke-opacity: 0.5; stroke-width: 0.8"/>
     </g>
     <g id="line2d_24">
      <g>
       <use xlink:href="#m6fd8c3eaeb" x="37.575" y="88.017362" style="stroke: #000000; stroke-width: 0.8"/>
      </g>
     </g>
     <g id="text_13">
      <!-- 90 -->
      <g transform="translate(20.575 91.454862) scale(0.1 -0.1)">
       <defs>
        <path id="SimHei-39" d="M 800 75 
Q 1350 1000 1700 1750 
Q 1075 1650 662 1912 
Q 250 2175 162 2625 
Q 75 3075 175 3437 
Q 275 3800 487 4037 
Q 700 4275 1000 4375 
Q 1300 4475 1537 4475 
Q 1775 4475 2025 4375 
Q 2275 4275 2475 4075 
Q 2675 3875 2750 3662 
Q 2825 3450 2825 3112 
Q 2825 2775 2575 2250 
Q 2325 1725 1350 75 
L 800 75 
z
M 662 2875 
Q 700 2550 937 2337 
Q 1175 2125 1450 2150 
Q 1725 2175 1887 2300 
Q 2050 2425 2200 2725 
Q 2300 3100 2250 3362 
Q 2200 3625 1987 3800 
Q 1775 3975 1525 3975 
Q 1375 4000 1137 3900 
Q 900 3800 762 3500 
Q 625 3200 662 2875 
z
" transform="scale(0.015625)"/>
       </defs>
       <use xlink:href="#SimHei-39"/>
       <use xlink:href="#SimHei-30" transform="translate(50 0)"/>
      </g>
     </g>
    </g>
    <g id="ytick_7">
     <g id="line2d_25">
      <path d="M 37.575 42.641587 
L 561.3325 42.641587 
" clip-path="url(#p3bc1f0aa91)" style="fill: none; stroke-dasharray: 2.96,1.28; stroke-dashoffset: 0; stroke: #b0b0b0; stroke-opacity: 0.5; stroke-width: 0.8"/>
     </g>
     <g id="line2d_26">
      <g>
       <use xlink:href="#m6fd8c3eaeb" x="37.575" y="42.641587" style="stroke: #000000; stroke-width: 0.8"/>
      </g>
     </g>
     <g id="text_14">
      <!-- 95 -->
      <g transform="translate(20.575 46.079087) scale(0.1 -0.1)">
       <use xlink:href="#SimHei-39"/>
       <use xlink:href="#SimHei-35" transform="translate(50 0)"/>
      </g>
     </g>
    </g>
    <g id="text_15">
     <!-- 诊断准确率 (%) -->
     <g transform="translate(15.325 204.315625) rotate(-90) scale(0.1 -0.1)">
      <defs>
       <path id="SimHei-8bca" d="M 1875 2875 
Q 2250 3075 2537 3325 
Q 2825 3575 3050 3900 
Q 3275 4225 3425 4562 
Q 3575 4900 3700 5275 
Q 4000 5175 4375 5075 
L 4300 4850 
Q 4550 4175 5037 3787 
Q 5525 3400 6150 3275 
Q 5925 3125 5750 2725 
Q 4975 3100 4525 3650 
Q 4075 4200 3975 4550 
Q 3750 4125 3450 3637 
Q 3150 3150 2425 2525 
Q 2275 2650 1875 2875 
z
M 2100 1275 
Q 2250 1125 2425 875 
Q 2150 525 1887 250 
Q 1625 -25 1350 -425 
Q 1100 -250 875 -75 
Q 1000 25 1075 150 
Q 1150 275 1150 475 
L 1150 2775 
L 950 2775 
Q 625 2775 250 2750 
L 250 3200 
Q 600 3175 950 3175 
L 1700 3175 
Q 1650 2725 1650 2200 
L 1650 775 
Q 1925 1075 2100 1275 
z
M 2475 -200 
Q 2975 -150 3437 25 
Q 3900 200 4287 462 
Q 4675 725 4975 1037 
Q 5275 1350 5550 1675 
Q 5725 1425 6025 1225 
Q 5775 1075 5525 837 
Q 5275 600 4975 337 
Q 4675 75 4087 -200 
Q 3500 -475 2800 -700 
Q 2725 -425 2475 -200 
z
M 2750 975 
Q 3425 1200 4000 1687 
Q 4575 2175 4800 2675 
Q 5050 2450 5275 2250 
Q 5000 1975 4662 1612 
Q 4325 1250 3875 950 
Q 3425 650 3125 500 
Q 2975 725 2750 975 
z
M 4500 3050 
Q 4100 2650 3700 2287 
Q 3300 1925 2875 1625 
Q 2675 1850 2500 2050 
Q 2900 2225 3325 2575 
Q 3750 2925 4075 3425 
Q 4250 3250 4500 3050 
z
M 1075 5125 
Q 1425 4800 1900 4200 
Q 1675 4025 1500 3825 
Q 1050 4450 675 4825 
Q 850 4975 1075 5125 
z
" transform="scale(0.015625)"/>
       <path id="SimHei-65ad" d="M 3800 4600 
Q 4400 4600 4925 4687 
Q 5450 4775 5700 4900 
Q 5775 4700 6000 4375 
Q 5750 4375 5337 4337 
Q 4925 4300 4275 4250 
L 4275 3050 
L 5575 3050 
Q 5775 3050 6075 3075 
L 6075 2625 
Q 5750 2650 5500 2650 
L 5500 225 
Q 5500 -200 5550 -550 
L 5025 -550 
Q 5075 -125 5075 300 
L 5075 2650 
L 4275 2650 
Q 4275 2000 4225 1475 
Q 4175 950 4075 537 
Q 3975 125 3475 -600 
Q 3275 -450 3050 -350 
Q 3500 200 3650 725 
Q 3800 1250 3825 1800 
Q 3850 2350 3850 3250 
Q 3850 4150 3800 4600 
z
M 2600 5150 
Q 2575 4875 2575 4400 
L 2575 3225 
Q 3050 3225 3450 3250 
L 3450 2800 
Q 3075 2850 2575 2850 
L 2575 1450 
Q 2575 1000 2600 675 
L 2100 675 
Q 2125 1400 2125 2225 
Q 1850 1525 1450 1000 
Q 1250 1175 1075 1300 
Q 1700 2075 1925 2850 
Q 1700 2850 1225 2825 
L 1225 3250 
Q 1575 3225 2125 3225 
L 2125 4375 
Q 2125 4875 2100 5150 
L 2600 5150 
z
M 1000 475 
L 2550 475 
Q 2950 475 3300 500 
L 3300 50 
Q 2950 75 2325 75 
L 500 75 
Q 525 450 525 950 
L 525 3850 
Q 525 4300 500 4650 
L 1025 4650 
Q 1000 4300 1000 3950 
L 1000 475 
z
M 2975 2550 
Q 3275 2025 3625 1525 
L 3225 1225 
Q 3000 1725 2625 2325 
Q 2750 2425 2975 2550 
z
M 3625 4550 
Q 3450 4350 3350 4087 
Q 3250 3825 3125 3550 
Q 2925 3650 2700 3725 
Q 3000 4225 3125 4775 
Q 3375 4650 3625 4550 
z
M 1200 4675 
Q 1450 4700 1675 4725 
Q 1800 3950 1850 3675 
Q 1675 3650 1400 3600 
Q 1375 3875 1200 4675 
z
" transform="scale(0.015625)"/>
       <path id="SimHei-51c6" d="M 1600 2775 
Q 1900 3050 2275 3787 
Q 2650 4525 2800 5175 
Q 3075 5050 3400 4950 
Q 3250 4775 3000 4100 
L 4825 4100 
Q 5400 4100 5875 4125 
L 5875 3675 
Q 5375 3700 4825 3700 
L 4525 3700 
L 4525 2850 
Q 5250 2850 5700 2875 
L 5700 2425 
Q 5250 2450 4525 2450 
L 4525 1600 
Q 5275 1600 5700 1625 
L 5700 1200 
Q 5275 1225 4525 1225 
L 4525 375 
Q 5575 375 6050 400 
L 6050 -100 
Q 5575 -75 4975 -75 
L 2950 -75 
L 2950 -600 
L 2425 -600 
Q 2450 -150 2450 675 
L 2450 3050 
Q 2300 2775 2075 2400 
Q 1875 2650 1600 2775 
z
M 1675 2050 
Q 1425 1425 1200 850 
Q 975 275 775 -125 
Q 550 50 275 200 
Q 550 650 775 1112 
Q 1000 1575 1225 2300 
Q 1400 2125 1675 2050 
z
M 4025 1600 
L 4025 2450 
L 2950 2450 
L 2950 1600 
L 4025 1600 
z
M 4025 2850 
L 4025 3700 
L 2950 3700 
L 2950 2850 
L 4025 2850 
z
M 4025 375 
L 4025 1225 
L 2950 1225 
L 2950 375 
L 4025 375 
z
M 725 4775 
Q 850 4625 1162 4312 
Q 1475 4000 1750 3700 
Q 1525 3475 1375 3300 
Q 1100 3700 350 4450 
Q 550 4600 725 4775 
z
M 4150 5225 
Q 4600 4800 4800 4500 
Q 4625 4400 4400 4200 
Q 4225 4500 3775 4925 
Q 3925 5000 4150 5225 
z
" transform="scale(0.015625)"/>
       <path id="SimHei-786e" d="M 4975 -200 
Q 5250 -175 5362 -125 
Q 5475 -75 5475 125 
L 5475 975 
L 4625 975 
L 4625 -400 
L 4200 -400 
L 4200 975 
L 3500 975 
Q 3475 625 3325 237 
Q 3175 -150 2800 -600 
Q 2625 -350 2325 -325 
Q 2650 -50 2812 262 
Q 2975 575 3025 1000 
Q 3075 1425 3087 2187 
Q 3100 2950 3075 3425 
L 4250 3425 
Q 4475 3825 4650 4225 
L 3625 4225 
Q 3325 3875 2850 3250 
Q 2650 3425 2425 3500 
Q 2875 3975 3175 4425 
Q 3475 4875 3625 5300 
Q 3900 5175 4200 5100 
Q 4075 5025 3825 4575 
L 5350 4575 
Q 4900 3775 4750 3425 
L 5950 3425 
Q 5925 2975 5925 2450 
L 5925 -50 
Q 5950 -350 5775 -462 
Q 5600 -575 5175 -675 
Q 5150 -425 4975 -200 
z
M 200 1975 
Q 550 2300 850 2837 
Q 1150 3375 1300 4225 
Q 825 4225 525 4200 
L 525 4650 
Q 875 4625 1200 4625 
L 1900 4625 
Q 2325 4625 2625 4650 
L 2625 4200 
Q 2325 4225 1800 4225 
Q 1650 3525 1400 2925 
L 2525 2925 
Q 2500 2500 2500 2125 
L 2500 1075 
Q 2500 650 2525 125 
L 2075 125 
L 2075 600 
L 1350 600 
L 1350 -300 
L 900 -300 
Q 925 225 925 600 
L 925 2100 
Q 800 1900 625 1625 
Q 475 1825 200 1975 
z
M 2075 975 
L 2075 2575 
L 1350 2575 
L 1350 975 
L 2075 975 
z
M 5475 2350 
L 5475 3075 
L 4625 3075 
L 4625 2350 
L 5475 2350 
z
M 5475 1325 
L 5475 2000 
L 4625 2000 
L 4625 1325 
L 5475 1325 
z
M 4200 2350 
L 4200 3075 
L 3500 3075 
L 3500 2350 
L 4200 2350 
z
M 4200 1325 
L 4200 2000 
L 3500 2000 
L 3500 1325 
L 4200 1325 
z
" transform="scale(0.015625)"/>
       <path id="SimHei-7387" d="M 3325 5150 
Q 3425 4900 3550 4525 
L 4800 4525 
Q 5250 4525 5800 4550 
L 5800 4125 
Q 5250 4175 4775 4175 
L 2800 4175 
Q 2975 4050 3300 3900 
Q 3075 3750 2875 3537 
Q 2675 3325 2475 3125 
L 3275 3125 
Q 3575 3425 3775 3775 
Q 4000 3600 4275 3425 
Q 3950 3250 3600 2875 
Q 3250 2500 2625 2000 
L 3850 2100 
Q 3725 2250 3600 2425 
Q 3750 2475 4000 2650 
Q 4250 2350 4700 1700 
Q 4475 1625 4225 1450 
Q 4175 1600 4025 1775 
Q 3700 1750 3425 1750 
L 3425 1050 
L 5150 1050 
Q 5675 1050 6100 1075 
L 6100 650 
Q 5700 675 5125 675 
L 3425 675 
L 3425 175 
Q 3425 -300 3450 -625 
L 2900 -625 
Q 2925 -300 2925 175 
L 2925 675 
L 1325 675 
Q 825 675 325 650 
L 325 1075 
Q 825 1050 1350 1050 
L 2925 1050 
L 2925 1700 
Q 2700 1675 2475 1637 
Q 2250 1600 2025 1525 
Q 1950 1775 1850 2000 
Q 2075 2025 2325 2200 
Q 2575 2375 2975 2800 
Q 2300 2725 2025 2625 
Q 1975 2875 1850 3175 
Q 2075 3175 2325 3487 
Q 2575 3800 2750 4175 
L 1700 4175 
Q 1150 4175 650 4125 
L 650 4550 
Q 1150 4525 1550 4525 
L 2975 4525 
Q 2900 4825 2800 5025 
Q 3025 5075 3325 5150 
z
M 1625 2575 
Q 1725 2400 1825 2200 
Q 1575 2050 1325 1862 
Q 1075 1675 800 1425 
Q 625 1675 475 1875 
Q 800 2025 1100 2212 
Q 1400 2400 1625 2575 
z
M 4850 2650 
Q 5125 2475 5337 2337 
Q 5550 2200 5875 1950 
Q 5675 1800 5500 1600 
Q 5300 1775 5062 1975 
Q 4825 2175 4575 2325 
Q 4725 2475 4850 2650 
z
M 5725 3525 
Q 5550 3450 5300 3262 
Q 5050 3075 4800 2825 
Q 4625 3050 4475 3175 
Q 4700 3325 4875 3487 
Q 5050 3650 5300 3925 
Q 5525 3700 5725 3525 
z
M 1050 3850 
Q 1425 3600 1775 3275 
Q 1575 3100 1425 2925 
Q 1075 3300 675 3525 
Q 875 3700 1050 3850 
z
" transform="scale(0.015625)"/>
      </defs>
      <use xlink:href="#SimHei-8bca"/>
      <use xlink:href="#SimHei-65ad" transform="translate(100 0)"/>
      <use xlink:href="#SimHei-51c6" transform="translate(200 0)"/>
      <use xlink:href="#SimHei-786e" transform="translate(300 0)"/>
      <use xlink:href="#SimHei-7387" transform="translate(400 0)"/>
      <use xlink:href="#SimHei-20" transform="translate(500 0)"/>
      <use xlink:href="#SimHei-28" transform="translate(550 0)"/>
      <use xlink:href="#SimHei-25" transform="translate(600 0)"/>
      <use xlink:href="#SimHei-29" transform="translate(650 0)"/>
     </g>
    </g>
   </g>
   <g id="line2d_27">
    <path d="M 61.382159 195.028564 
L 108.996477 213.557005 
L 204.225114 243.051259 
L 299.45375 250.99202 
L 394.682386 275.948696 
L 537.525341 302.417898 
" clip-path="url(#p3bc1f0aa91)" style="fill: none; stroke: #1f77b4; stroke-width: 1.5; stroke-linecap: square"/>
    <defs>
     <path id="m646de866c4" d="M 0 3 
C 0.795609 3 1.55874 2.683901 2.12132 2.12132 
C 2.683901 1.55874 3 0.795609 3 0 
C 3 -0.795609 2.683901 -1.55874 2.12132 -2.12132 
C 1.55874 -2.683901 0.795609 -3 0 -3 
C -0.795609 -3 -1.55874 -2.683901 -2.12132 -2.12132 
C -2.683901 -1.55874 -3 -0.795609 -3 0 
C -3 0.795609 -2.683901 1.55874 -2.12132 2.12132 
C -1.55874 2.683901 -0.795609 3 0 3 
z
" style="stroke: #1f77b4"/>
    </defs>
    <g clip-path="url(#p3bc1f0aa91)">
     <use xlink:href="#m646de866c4" x="61.382159" y="195.028564" style="fill: #1f77b4; stroke: #1f77b4"/>
     <use xlink:href="#m646de866c4" x="108.996477" y="213.557005" style="fill: #1f77b4; stroke: #1f77b4"/>
     <use xlink:href="#m646de866c4" x="204.225114" y="243.051259" style="fill: #1f77b4; stroke: #1f77b4"/>
     <use xlink:href="#m646de866c4" x="299.45375" y="250.99202" style="fill: #1f77b4; stroke: #1f77b4"/>
     <use xlink:href="#m646de866c4" x="394.682386" y="275.948696" style="fill: #1f77b4; stroke: #1f77b4"/>
     <use xlink:href="#m646de866c4" x="537.525341" y="302.417898" style="fill: #1f77b4; stroke: #1f77b4"/>
    </g>
   </g>
   <g id="line2d_28">
    <path d="M 61.382159 48.313559 
L 108.996477 91.798676 
L 204.225114 120.914799 
L 299.45375 157.971681 
L 394.682386 193.516038 
L 537.525341 226.791606 
" clip-path="url(#p3bc1f0aa91)" style="fill: none; stroke: #ff7f0e; stroke-width: 1.5; stroke-linecap: square"/>
    <defs>
     <path id="mc479616dc2" d="M 0 3 
C 0.795609 3 1.55874 2.683901 2.12132 2.12132 
C 2.683901 1.55874 3 0.795609 3 0 
C 3 -0.795609 2.683901 -1.55874 2.12132 -2.12132 
C 1.55874 -2.683901 0.795609 -3 0 -3 
C -0.795609 -3 -1.55874 -2.683901 -2.12132 -2.12132 
C -2.683901 -1.55874 -3 -0.795609 -3 0 
C -3 0.795609 -2.683901 1.55874 -2.12132 2.12132 
C -1.55874 2.683901 -0.795609 3 0 3 
z
" style="stroke: #ff7f0e"/>
    </defs>
    <g clip-path="url(#p3bc1f0aa91)">
     <use xlink:href="#mc479616dc2" x="61.382159" y="48.313559" style="fill: #ff7f0e; stroke: #ff7f0e"/>
     <use xlink:href="#mc479616dc2" x="108.996477" y="91.798676" style="fill: #ff7f0e; stroke: #ff7f0e"/>
     <use xlink:href="#mc479616dc2" x="204.225114" y="120.914799" style="fill: #ff7f0e; stroke: #ff7f0e"/>
     <use xlink:href="#mc479616dc2" x="299.45375" y="157.971681" style="fill: #ff7f0e; stroke: #ff7f0e"/>
     <use xlink:href="#mc479616dc2" x="394.682386" y="193.516038" style="fill: #ff7f0e; stroke: #ff7f0e"/>
     <use xlink:href="#mc479616dc2" x="537.525341" y="226.791606" style="fill: #ff7f0e; stroke: #ff7f0e"/>
    </g>
   </g>
   <g id="line2d_29">
    <path d="M 61.382159 89.529888 
L 108.996477 112.217775 
L 204.225114 152.299709 
L 299.45375 185.575278 
L 394.682386 224.900949 
L 537.525341 266.117278 
" clip-path="url(#p3bc1f0aa91)" style="fill: none; stroke: #2ca02c; stroke-width: 1.5; stroke-linecap: square"/>
    <defs>
     <path id="m3b13399a87" d="M 0 3 
C 0.795609 3 1.55874 2.683901 2.12132 2.12132 
C 2.683901 1.55874 3 0.795609 3 0 
C 3 -0.795609 2.683901 -1.55874 2.12132 -2.12132 
C 1.55874 -2.683901 0.795609 -3 0 -3 
C -0.795609 -3 -1.55874 -2.683901 -2.12132 -2.12132 
C -2.683901 -1.55874 -3 -0.795609 -3 0 
C -3 0.795609 -2.683901 1.55874 -2.12132 2.12132 
C -1.55874 2.683901 -0.795609 3 0 3 
z
" style="stroke: #2ca02c"/>
    </defs>
    <g clip-path="url(#p3bc1f0aa91)">
     <use xlink:href="#m3b13399a87" x="61.382159" y="89.529888" style="fill: #2ca02c; stroke: #2ca02c"/>
     <use xlink:href="#m3b13399a87" x="108.996477" y="112.217775" style="fill: #2ca02c; stroke: #2ca02c"/>
     <use xlink:href="#m3b13399a87" x="204.225114" y="152.299709" style="fill: #2ca02c; stroke: #2ca02c"/>
     <use xlink:href="#m3b13399a87" x="299.45375" y="185.575278" style="fill: #2ca02c; stroke: #2ca02c"/>
     <use xlink:href="#m3b13399a87" x="394.682386" y="224.900949" style="fill: #2ca02c; stroke: #2ca02c"/>
     <use xlink:href="#m3b13399a87" x="537.525341" y="266.117278" style="fill: #2ca02c; stroke: #2ca02c"/>
    </g>
   </g>
   <g id="line2d_30">
    <path d="M 61.382159 62.304423 
L 108.996477 107.680198 
L 204.225114 148.140263 
L 299.45375 187.087803 
L 394.682386 201.83493 
L 537.525341 236.623024 
" clip-path="url(#p3bc1f0aa91)" style="fill: none; stroke: #d62728; stroke-width: 1.5; stroke-linecap: square"/>
    <defs>
     <path id="m800839b922" d="M 0 3 
C 0.795609 3 1.55874 2.683901 2.12132 2.12132 
C 2.683901 1.55874 3 0.795609 3 0 
C 3 -0.795609 2.683901 -1.55874 2.12132 -2.12132 
C 1.55874 -2.683901 0.795609 -3 0 -3 
C -0.795609 -3 -1.55874 -2.683901 -2.12132 -2.12132 
C -2.683901 -1.55874 -3 -0.795609 -3 0 
C -3 0.795609 -2.683901 1.55874 -2.12132 2.12132 
C -1.55874 2.683901 -0.795609 3 0 3 
z
" style="stroke: #d62728"/>
    </defs>
    <g clip-path="url(#p3bc1f0aa91)">
     <use xlink:href="#m800839b922" x="61.382159" y="62.304423" style="fill: #d62728; stroke: #d62728"/>
     <use xlink:href="#m800839b922" x="108.996477" y="107.680198" style="fill: #d62728; stroke: #d62728"/>
     <use xlink:href="#m800839b922" x="204.225114" y="148.140263" style="fill: #d62728; stroke: #d62728"/>
     <use xlink:href="#m800839b922" x="299.45375" y="187.087803" style="fill: #d62728; stroke: #d62728"/>
     <use xlink:href="#m800839b922" x="394.682386" y="201.83493" style="fill: #d62728; stroke: #d62728"/>
     <use xlink:href="#m800839b922" x="537.525341" y="236.623024" style="fill: #d62728; stroke: #d62728"/>
    </g>
   </g>
   <g id="line2d_31">
    <path d="M 61.382159 36.213352 
L 108.996477 82.723521 
L 204.225114 126.58677 
L 299.45375 163.643653 
L 394.682386 198.809879 
L 537.525341 252.504545 
" clip-path="url(#p3bc1f0aa91)" style="fill: none; stroke: #9467bd; stroke-width: 1.5; stroke-linecap: square"/>
    <defs>
     <path id="m740357f390" d="M 0 3 
C 0.795609 3 1.55874 2.683901 2.12132 2.12132 
C 2.683901 1.55874 3 0.795609 3 0 
C 3 -0.795609 2.683901 -1.55874 2.12132 -2.12132 
C 1.55874 -2.683901 0.795609 -3 0 -3 
C -0.795609 -3 -1.55874 -2.683901 -2.12132 -2.12132 
C -2.683901 -1.55874 -3 -0.795609 -3 0 
C -3 0.795609 -2.683901 1.55874 -2.12132 2.12132 
C -1.55874 2.683901 -0.795609 3 0 3 
z
" style="stroke: #9467bd"/>
    </defs>
    <g clip-path="url(#p3bc1f0aa91)">
     <use xlink:href="#m740357f390" x="61.382159" y="36.213352" style="fill: #9467bd; stroke: #9467bd"/>
     <use xlink:href="#m740357f390" x="108.996477" y="82.723521" style="fill: #9467bd; stroke: #9467bd"/>
     <use xlink:href="#m740357f390" x="204.225114" y="126.58677" style="fill: #9467bd; stroke: #9467bd"/>
     <use xlink:href="#m740357f390" x="299.45375" y="163.643653" style="fill: #9467bd; stroke: #9467bd"/>
     <use xlink:href="#m740357f390" x="394.682386" y="198.809879" style="fill: #9467bd; stroke: #9467bd"/>
     <use xlink:href="#m740357f390" x="537.525341" y="252.504545" style="fill: #9467bd; stroke: #9467bd"/>
    </g>
   </g>
   <g id="patch_3">
    <path d="M 37.575 315.728125 
L 37.575 22.903125 
" style="fill: none; stroke: #000000; stroke-width: 0.8; stroke-linejoin: miter; stroke-linecap: square"/>
   </g>
   <g id="patch_4">
    <path d="M 561.3325 315.728125 
L 561.3325 22.903125 
" style="fill: none; stroke: #000000; stroke-width: 0.8; stroke-linejoin: miter; stroke-linecap: square"/>
   </g>
   <g id="patch_5">
    <path d="M 37.575 315.728125 
L 561.3325 315.728125 
" style="fill: none; stroke: #000000; stroke-width: 0.8; stroke-linejoin: miter; stroke-linecap: square"/>
   </g>
   <g id="patch_6">
    <path d="M 37.575 22.903125 
L 561.3325 22.903125 
" style="fill: none; stroke: #000000; stroke-width: 0.8; stroke-linejoin: miter; stroke-linecap: square"/>
   </g>
   <g id="text_16">
    <!-- 不同噪声水平下的诊断鲁棒性 -->
    <g transform="translate(221.45375 16.903125) scale(0.12 -0.12)">
     <defs>
      <path id="SimHei-4e0d" d="M 5975 4450 
Q 5525 4475 5200 4475 
L 3725 4475 
Q 3550 4125 3300 3700 
L 3300 575 
Q 3300 75 3325 -550 
L 2775 -550 
Q 2800 50 2800 575 
L 2800 3025 
Q 2025 1950 700 1050 
Q 500 1350 325 1475 
Q 825 1700 1650 2437 
Q 2475 3175 3175 4475 
L 1525 4475 
Q 1050 4475 525 4450 
L 525 4950 
Q 1275 4925 1675 4925 
L 5175 4925 
Q 5500 4925 5975 4950 
L 5975 4450 
z
M 5450 1125 
Q 4975 1725 3750 2975 
Q 3950 3150 4075 3325 
Q 4675 2775 5100 2362 
Q 5525 1950 5900 1550 
Q 5650 1350 5450 1125 
z
" transform="scale(0.015625)"/>
      <path id="SimHei-540c" d="M 5825 4925 
Q 5775 4550 5775 3975 
L 5775 -50 
Q 5775 -400 5525 -487 
Q 5275 -575 4725 -625 
Q 4725 -400 4525 -50 
Q 4925 -50 5100 -12 
Q 5275 25 5275 200 
L 5275 4450 
L 1150 4450 
L 1150 -600 
L 575 -600 
Q 600 -250 625 200 
L 625 3975 
Q 625 4575 600 4925 
L 5825 4925 
z
M 4375 2550 
Q 4325 2275 4325 1700 
Q 4325 1150 4375 725 
L 2025 725 
Q 2050 1175 2050 1750 
Q 2050 2325 2025 2550 
L 4375 2550 
z
M 4100 3750 
Q 4600 3750 4825 3775 
L 4825 3275 
Q 4575 3300 4075 3300 
L 2450 3300 
Q 1850 3300 1600 3275 
L 1600 3775 
Q 1875 3750 2475 3750 
L 4100 3750 
z
M 3875 1150 
L 3875 2150 
L 2525 2150 
L 2525 1150 
L 3875 1150 
z
" transform="scale(0.015625)"/>
      <path id="SimHei-4e0b" d="M 5000 4700 
Q 5475 4700 5975 4725 
L 5975 4200 
Q 5425 4225 5000 4225 
L 3275 4225 
L 3275 375 
Q 3275 50 3300 -450 
L 2725 -450 
Q 2750 0 2750 375 
L 2750 4225 
L 1375 4225 
Q 875 4225 400 4200 
L 400 4725 
Q 875 4700 1375 4700 
L 5000 4700 
z
M 5650 1400 
Q 5400 1225 5200 1000 
Q 4800 1525 3650 2575 
L 4025 2950 
Q 4700 2400 5650 1400 
z
" transform="scale(0.015625)"/>
      <path id="SimHei-7684" d="M 2100 4975 
Q 1975 4750 1750 3950 
L 2875 3950 
Q 2850 3525 2850 2875 
L 2850 675 
Q 2850 300 2875 -400 
L 2375 -400 
L 2375 100 
L 1100 100 
L 1100 -450 
L 600 -450 
Q 625 350 625 550 
L 625 2850 
Q 625 3525 600 3950 
L 1325 3950 
Q 1450 4525 1525 5150 
Q 1875 5025 2100 4975 
z
M 5825 3075 
Q 5800 1550 5700 175 
Q 5650 -275 5225 -425 
Q 4800 -575 4275 -625 
Q 4250 -350 4050 -50 
Q 4550 -75 4837 -25 
Q 5125 25 5200 200 
Q 5275 375 5312 1225 
Q 5350 2075 5375 3600 
L 3925 3600 
Q 3725 3125 3350 2475 
Q 3175 2650 2925 2750 
Q 3150 3050 3350 3475 
Q 3550 3900 3700 4400 
Q 3850 4900 3875 5175 
Q 4225 5025 4475 4950 
Q 4350 4750 4262 4512 
Q 4175 4275 4075 4050 
L 5850 4050 
Q 5825 3525 5825 3075 
z
M 2375 525 
L 2375 1850 
L 1100 1850 
L 1100 525 
L 2375 525 
z
M 2375 2275 
L 2375 3525 
L 1100 3525 
L 1100 2275 
L 2375 2275 
z
M 4350 2050 
Q 4500 1750 4700 1275 
Q 4525 1200 4225 1025 
Q 4050 1500 3900 1837 
Q 3750 2175 3600 2400 
Q 3775 2500 4050 2650 
L 4350 2050 
z
" transform="scale(0.015625)"/>
      <path id="SimHei-9c81" d="M 2800 4950 
Q 2625 4850 2475 4775 
L 4500 4775 
L 4000 3975 
L 5350 3975 
Q 5325 3600 5325 3125 
Q 5325 2675 5350 2350 
L 1175 2350 
Q 1200 2800 1200 3100 
L 1200 3675 
Q 825 3400 550 3250 
Q 475 3400 250 3575 
Q 800 3850 1375 4325 
Q 1950 4800 2325 5275 
Q 2475 5100 2800 4950 
z
M 5275 1400 
Q 5250 1075 5250 750 
L 5250 175 
Q 5250 -125 5275 -625 
L 4800 -625 
L 4800 -400 
L 1750 -400 
L 1750 -650 
L 1250 -650 
Q 1300 -175 1300 175 
L 1300 750 
Q 1300 1100 1275 1400 
L 5275 1400 
z
M 5325 2025 
Q 5675 2025 6150 2075 
L 6150 1650 
Q 5675 1675 5350 1675 
L 1275 1675 
Q 850 1675 375 1650 
L 375 2075 
Q 850 2025 1275 2025 
L 5325 2025 
z
M 4800 -50 
L 4800 325 
L 1750 325 
L 1750 -50 
L 4800 -50 
z
M 4800 675 
L 4800 1050 
L 1750 1050 
L 1750 675 
L 4800 675 
z
M 2150 4425 
Q 1925 4225 1600 3975 
L 3500 3975 
Q 3675 4225 3800 4425 
L 2150 4425 
z
M 4850 3300 
L 4850 3625 
L 3450 3625 
L 3450 3300 
L 4850 3300 
z
M 3000 3300 
L 3000 3625 
L 1675 3625 
L 1675 3300 
L 3000 3300 
z
M 4850 2675 
L 4850 2975 
L 3450 2975 
L 3450 2675 
L 4850 2675 
z
M 3000 2675 
L 3000 2975 
L 1675 2975 
L 1675 2675 
L 3000 2675 
z
" transform="scale(0.015625)"/>
      <path id="SimHei-68d2" d="M 3775 4425 
Q 3875 5050 3850 5200 
L 4400 5125 
Q 4375 5050 4350 5000 
Q 4325 4950 4200 4425 
L 5100 4425 
Q 5325 4425 5750 4450 
L 5750 4050 
Q 5425 4075 5050 4075 
L 4150 4075 
Q 4100 3900 4025 3575 
L 4850 3575 
Q 5275 3575 5500 3600 
L 5500 3200 
Q 5225 3225 4800 3225 
L 3950 3225 
Q 3900 3075 3775 2775 
L 5100 2775 
Q 5675 2775 6000 2800 
L 6000 2425 
Q 5600 2450 5100 2450 
L 4925 2450 
Q 5125 2125 5550 1862 
Q 5975 1600 6200 1550 
Q 5950 1300 5875 1175 
Q 5375 1425 5012 1787 
Q 4650 2150 4500 2450 
L 3675 2450 
Q 3550 2250 3387 2037 
Q 3225 1825 3000 1600 
Q 3350 1575 3575 1575 
L 3825 1575 
Q 3825 1850 3800 2150 
L 4275 2150 
Q 4250 1825 4250 1575 
L 4475 1575 
Q 4700 1575 5175 1600 
L 5175 1200 
Q 4650 1225 4450 1225 
L 4250 1225 
L 4250 700 
L 5025 700 
Q 5500 700 5850 725 
L 5850 325 
Q 5425 350 5025 350 
L 4250 350 
L 4250 175 
Q 4250 -275 4275 -650 
L 3800 -650 
Q 3825 -275 3825 175 
L 3825 350 
L 3225 350 
Q 2750 350 2325 325 
L 2325 725 
Q 2625 700 3200 700 
L 3825 700 
L 3825 1225 
L 3600 1225 
Q 3400 1225 2975 1200 
L 2975 1575 
Q 2775 1400 2250 1050 
Q 2125 1200 1900 1400 
Q 2250 1525 2600 1800 
Q 2950 2075 3200 2450 
L 3025 2450 
Q 2750 2450 2375 2425 
L 2375 2800 
Q 2650 2775 3125 2775 
L 3350 2775 
Q 3475 3050 3525 3225 
L 3275 3225 
Q 3050 3225 2700 3200 
L 2700 3600 
Q 3000 3575 3250 3575 
L 3600 3575 
Q 3675 3875 3700 4075 
L 3275 4075 
Q 2825 4075 2500 4050 
L 2500 4450 
Q 2725 4425 3200 4425 
L 3775 4425 
z
M 1575 375 
Q 1575 -25 1600 -625 
L 1125 -625 
Q 1150 -125 1150 375 
L 1150 2325 
Q 950 1775 500 950 
Q 375 1150 175 1275 
Q 500 1825 725 2387 
Q 950 2950 1050 3425 
Q 625 3425 275 3400 
L 275 3800 
Q 625 3775 1150 3775 
L 1150 4500 
Q 1150 4850 1125 5100 
L 1600 5100 
Q 1575 4825 1575 4500 
L 1575 3775 
Q 1925 3775 2325 3800 
L 2325 3400 
Q 1900 3425 1575 3425 
L 1575 2600 
Q 1700 2675 1875 2850 
Q 2150 2475 2375 2075 
Q 2250 2000 2000 1800 
Q 1825 2175 1575 2525 
L 1575 375 
z
" transform="scale(0.015625)"/>
      <path id="SimHei-6027" d="M 3450 4525 
Q 3325 4075 3275 3750 
L 4050 3750 
L 4050 4275 
Q 4050 4700 4025 5100 
L 4550 5100 
Q 4525 4700 4525 4275 
L 4525 3750 
L 5025 3750 
Q 5350 3750 5800 3775 
L 5800 3300 
Q 5350 3325 5025 3325 
L 4525 3325 
L 4525 2000 
L 4975 2000 
Q 5350 2000 5725 2025 
L 5725 1550 
Q 5350 1575 4975 1575 
L 4525 1575 
L 4525 25 
L 5200 25 
Q 5625 25 6025 50 
L 6025 -400 
Q 5625 -375 5200 -375 
L 3275 -375 
Q 2825 -375 2400 -400 
L 2400 50 
Q 2825 25 3250 25 
L 4050 25 
L 4050 1575 
L 3625 1575 
Q 3300 1575 2875 1550 
L 2875 2025 
Q 3200 2000 3625 2000 
L 4050 2000 
L 4050 3325 
L 3175 3325 
Q 3100 2950 2775 2225 
Q 2500 2375 2325 2400 
Q 2675 3125 2775 3650 
Q 2875 4175 2950 4650 
Q 3200 4575 3450 4525 
z
M 1700 5150 
Q 1675 4650 1675 4175 
L 1675 425 
Q 1675 -100 1700 -625 
L 1175 -625 
Q 1200 -100 1200 425 
L 1200 4175 
Q 1200 4700 1175 5150 
L 1700 5150 
z
M 975 3725 
Q 825 2675 700 2150 
Q 450 2200 250 2250 
Q 425 2900 525 3800 
Q 725 3775 975 3725 
z
M 2125 4025 
Q 2325 3625 2525 3000 
Q 2300 2925 2125 2825 
Q 1950 3375 1750 3850 
Q 1950 3950 2125 4025 
z
" transform="scale(0.015625)"/>
     </defs>
     <use xlink:href="#SimHei-4e0d"/>
     <use xlink:href="#SimHei-540c" transform="translate(100 0)"/>
     <use xlink:href="#SimHei-566a" transform="translate(200 0)"/>
     <use xlink:href="#SimHei-58f0" transform="translate(300 0)"/>
     <use xlink:href="#SimHei-6c34" transform="translate(400 0)"/>
     <use xlink:href="#SimHei-5e73" transform="translate(500 0)"/>
     <use xlink:href="#SimHei-4e0b" transform="translate(600 0)"/>
     <use xlink:href="#SimHei-7684" transform="translate(700 0)"/>
     <use xlink:href="#SimHei-8bca" transform="translate(800 0)"/>
     <use xlink:href="#SimHei-65ad" transform="translate(900 0)"/>
     <use xlink:href="#SimHei-9c81" transform="translate(1000 0)"/>
     <use xlink:href="#SimHei-68d2" transform="translate(1100 0)"/>
     <use xlink:href="#SimHei-6027" transform="translate(1200 0)"/>
    </g>
   </g>
   <g id="legend_1">
    <g id="patch_7">
     <path d="M 487.3325 97.153125 
L 554.3325 97.153125 
Q 556.3325 97.153125 556.3325 95.153125 
L 556.3325 29.903125 
Q 556.3325 27.903125 554.3325 27.903125 
L 487.3325 27.903125 
Q 485.3325 27.903125 485.3325 29.903125 
L 485.3325 95.153125 
Q 485.3325 97.153125 487.3325 97.153125 
z
" style="fill: #ffffff; opacity: 0.8; stroke: #cccccc; stroke-linejoin: miter"/>
    </g>
    <g id="line2d_32">
     <path d="M 489.3325 35.403125 
L 499.3325 35.403125 
L 509.3325 35.403125 
" style="fill: none; stroke: #1f77b4; stroke-width: 1.5; stroke-linecap: square"/>
     <g>
      <use xlink:href="#m646de866c4" x="499.3325" y="35.403125" style="fill: #1f77b4; stroke: #1f77b4"/>
     </g>
    </g>
    <g id="text_17">
     <!-- KNN -->
     <g transform="translate(517.3325 38.903125) scale(0.1 -0.1)">
      <defs>
       <path id="SimHei-4b" d="M 3050 125 
L 2400 125 
L 1250 2250 
L 850 1725 
L 850 125 
L 275 125 
L 275 4400 
L 850 4400 
L 850 2550 
L 2275 4400 
L 2950 4400 
L 1625 2725 
L 3050 125 
z
" transform="scale(0.015625)"/>
       <path id="SimHei-4e" d="M 2850 125 
L 2225 125 
L 850 3225 
L 825 3225 
L 825 125 
L 250 125 
L 250 4400 
L 875 4400 
L 2250 1300 
L 2275 1300 
L 2275 4400 
L 2850 4400 
L 2850 125 
z
" transform="scale(0.015625)"/>
      </defs>
      <use xlink:href="#SimHei-4b"/>
      <use xlink:href="#SimHei-4e" transform="translate(50 0)"/>
      <use xlink:href="#SimHei-4e" transform="translate(100 0)"/>
     </g>
    </g>
    <g id="line2d_33">
     <path d="M 489.3325 48.653125 
L 499.3325 48.653125 
L 509.3325 48.653125 
" style="fill: none; stroke: #ff7f0e; stroke-width: 1.5; stroke-linecap: square"/>
     <g>
      <use xlink:href="#mc479616dc2" x="499.3325" y="48.653125" style="fill: #ff7f0e; stroke: #ff7f0e"/>
     </g>
    </g>
    <g id="text_18">
     <!-- SVM -->
     <g transform="translate(517.3325 52.153125) scale(0.1 -0.1)">
      <defs>
       <path id="SimHei-53" d="M 2900 1325 
Q 2900 750 2537 412 
Q 2175 75 1550 75 
Q 925 75 575 425 
Q 225 775 225 1300 
L 225 1475 
L 800 1475 
L 800 1325 
Q 800 950 1025 750 
Q 1250 550 1550 550 
Q 1950 550 2137 762 
Q 2325 975 2325 1275 
Q 2325 1525 2100 1737 
Q 1875 1950 1450 2125 
Q 850 2350 587 2625 
Q 325 2900 325 3275 
Q 325 3800 687 4125 
Q 1050 4450 1550 4450 
Q 2200 4450 2487 4062 
Q 2775 3675 2775 3225 
L 2200 3225 
Q 2225 3500 2050 3725 
Q 1875 3950 1550 3950 
Q 1250 3950 1075 3787 
Q 900 3625 900 3350 
Q 900 3125 1037 2962 
Q 1175 2800 1750 2575 
Q 2300 2350 2600 2037 
Q 2900 1725 2900 1325 
z
" transform="scale(0.015625)"/>
       <path id="SimHei-56" d="M 3050 4400 
L 1800 75 
L 1300 75 
L 50 4400 
L 650 4400 
L 1525 1125 
L 1575 1125 
L 2450 4400 
L 3050 4400 
z
" transform="scale(0.015625)"/>
       <path id="SimHei-4d" d="M 2925 125 
L 2425 125 
L 2425 3175 
L 2375 3175 
L 1775 125 
L 1375 125 
L 775 3175 
L 725 3175 
L 725 125 
L 225 125 
L 225 4400 
L 1000 4400 
L 1550 1575 
L 1600 1575 
L 2150 4400 
L 2925 4400 
L 2925 125 
z
" transform="scale(0.015625)"/>
      </defs>
      <use xlink:href="#SimHei-53"/>
      <use xlink:href="#SimHei-56" transform="translate(50 0)"/>
      <use xlink:href="#SimHei-4d" transform="translate(100 0)"/>
     </g>
    </g>
    <g id="line2d_34">
     <path d="M 489.3325 61.903125 
L 499.3325 61.903125 
L 509.3325 61.903125 
" style="fill: none; stroke: #2ca02c; stroke-width: 1.5; stroke-linecap: square"/>
     <g>
      <use xlink:href="#m3b13399a87" x="499.3325" y="61.903125" style="fill: #2ca02c; stroke: #2ca02c"/>
     </g>
    </g>
    <g id="text_19">
     <!-- RF -->
     <g transform="translate(517.3325 65.403125) scale(0.1 -0.1)">
      <defs>
       <path id="SimHei-52" d="M 3000 125 
L 2400 125 
L 1500 1975 
L 850 1975 
L 850 125 
L 275 125 
L 275 4400 
L 1525 4400 
Q 2125 4400 2500 4112 
Q 2875 3825 2875 3175 
Q 2875 2675 2625 2400 
Q 2375 2125 2050 2050 
L 3000 125 
z
M 2300 3175 
Q 2300 3525 2087 3725 
Q 1875 3925 1400 3925 
L 850 3925 
L 850 2450 
L 1550 2450 
Q 1850 2450 2075 2612 
Q 2300 2775 2300 3175 
z
" transform="scale(0.015625)"/>
       <path id="SimHei-46" d="M 2925 3925 
L 875 3925 
L 875 2525 
L 2425 2525 
L 2425 2050 
L 875 2050 
L 875 125 
L 300 125 
L 300 4400 
L 2925 4400 
L 2925 3925 
z
" transform="scale(0.015625)"/>
      </defs>
      <use xlink:href="#SimHei-52"/>
      <use xlink:href="#SimHei-46" transform="translate(50 0)"/>
     </g>
    </g>
    <g id="line2d_35">
     <path d="M 489.3325 75.153125 
L 499.3325 75.153125 
L 509.3325 75.153125 
" style="fill: none; stroke: #d62728; stroke-width: 1.5; stroke-linecap: square"/>
     <g>
      <use xlink:href="#m800839b922" x="499.3325" y="75.153125" style="fill: #d62728; stroke: #d62728"/>
     </g>
    </g>
    <g id="text_20">
     <!-- MLP -->
     <g transform="translate(517.3325 78.653125) scale(0.1 -0.1)">
      <defs>
       <path id="SimHei-4c" d="M 2900 125 
L 300 125 
L 300 4400 
L 875 4400 
L 875 600 
L 2900 600 
L 2900 125 
z
" transform="scale(0.015625)"/>
       <path id="SimHei-50" d="M 2950 3100 
Q 2950 2500 2600 2150 
Q 2250 1800 1625 1800 
L 900 1800 
L 900 125 
L 325 125 
L 325 4400 
L 1625 4400 
Q 2250 4400 2600 4050 
Q 2950 3700 2950 3100 
z
M 2375 3100 
Q 2375 3575 2150 3750 
Q 1925 3925 1475 3925 
L 900 3925 
L 900 2275 
L 1475 2275 
Q 1925 2275 2150 2450 
Q 2375 2625 2375 3100 
z
" transform="scale(0.015625)"/>
      </defs>
      <use xlink:href="#SimHei-4d"/>
      <use xlink:href="#SimHei-4c" transform="translate(50 0)"/>
      <use xlink:href="#SimHei-50" transform="translate(100 0)"/>
     </g>
    </g>
    <g id="line2d_36">
     <path d="M 489.3325 88.403125 
L 499.3325 88.403125 
L 509.3325 88.403125 
" style="fill: none; stroke: #9467bd; stroke-width: 1.5; stroke-linecap: square"/>
     <g>
      <use xlink:href="#m740357f390" x="499.3325" y="88.403125" style="fill: #9467bd; stroke: #9467bd"/>
     </g>
    </g>
    <g id="text_21">
     <!-- PINN-RF -->
     <g transform="translate(517.3325 91.903125) scale(0.1 -0.1)">
      <defs>
       <path id="SimHei-49" d="M 1850 125 
L 1275 125 
L 1275 4400 
L 1850 4400 
L 1850 125 
z
" transform="scale(0.015625)"/>
       <path id="SimHei-2d" d="M 2975 2125 
L 125 2125 
L 125 2525 
L 2975 2525 
L 2975 2125 
z
" transform="scale(0.015625)"/>
      </defs>
      <use xlink:href="#SimHei-50"/>
      <use xlink:href="#SimHei-49" transform="translate(50 0)"/>
      <use xlink:href="#SimHei-4e" transform="translate(100 0)"/>
      <use xlink:href="#SimHei-4e" transform="translate(150 0)"/>
      <use xlink:href="#SimHei-2d" transform="translate(200 0)"/>
      <use xlink:href="#SimHei-52" transform="translate(250 0)"/>
      <use xlink:href="#SimHei-46" transform="translate(300 0)"/>
     </g>
    </g>
   </g>
  </g>
 </g>
 <defs>
  <clipPath id="p3bc1f0aa91">
   <rect x="37.575" y="22.903125" width="523.7575" height="292.825"/>
  </clipPath>
 </defs>
</svg>
